<svg width="18" height="18" viewBox="0 0 18 18" fill="none" xmlns="http://www.w3.org/2000/svg">
<path d="M4.8172 0.656703C4.60066 0.66312 4.3951 0.753475 4.24397 0.908672L0.911685 4.2441C0.834071 4.32162 0.772498 4.41368 0.730488 4.51501C0.688478 4.61634 0.666855 4.72496 0.666855 4.83466C0.666855 4.94435 0.688478 5.05297 0.730488 5.1543C0.772498 5.25563 0.834071 5.34769 0.911685 5.42521L4.24397 8.75749C4.31956 8.84296 4.41187 8.91202 4.5152 8.96041C4.61853 9.00879 4.73068 9.03548 4.84473 9.03882C4.95878 9.04216 5.0723 9.02209 5.17828 8.97983C5.28427 8.93757 5.38046 8.87403 5.46093 8.79314C5.54139 8.71224 5.60441 8.61571 5.6461 8.5095C5.68779 8.40329 5.70726 8.28966 5.70331 8.17564C5.69936 8.06161 5.67207 7.9496 5.62313 7.84653C5.57419 7.74346 5.50464 7.65152 5.41877 7.57639L3.51011 5.66458H16.4991C16.7204 5.66458 16.9327 5.57664 17.0893 5.42011C17.2458 5.26359 17.3337 5.05129 17.3337 4.82993C17.3337 4.60857 17.2458 4.39627 17.0893 4.23975C16.9327 4.08322 16.7204 3.99529 16.4991 3.99529H3.51956L5.41877 2.08977C5.53914 1.97284 5.62146 1.82235 5.655 1.65792C5.68854 1.4935 5.67173 1.32278 5.60678 1.16805C5.54183 1.01332 5.43174 0.881763 5.29089 0.790544C5.15004 0.699325 4.98496 0.652683 4.8172 0.656703ZM13.1574 8.99056C12.9924 8.99227 12.8316 9.04281 12.6954 9.13582C12.5592 9.22883 12.4535 9.36012 12.3919 9.51313C12.3302 9.66613 12.3152 9.83398 12.3489 9.99547C12.3826 10.157 12.4633 10.3049 12.581 10.4205L14.4928 12.3323H1.50066C1.2793 12.3323 1.067 12.4202 0.910478 12.5768C0.753951 12.7333 0.666016 12.9456 0.666016 13.1669C0.666016 13.3883 0.753951 13.6006 0.910478 13.7571C1.067 13.9137 1.2793 14.0016 1.50066 14.0016H14.4896L12.581 15.9134C12.491 15.9874 12.4176 16.0793 12.3653 16.1834C12.3131 16.2874 12.2831 16.4012 12.2775 16.5175C12.2718 16.6338 12.2906 16.75 12.3325 16.8586C12.3744 16.9672 12.4386 17.0659 12.521 17.1482C12.6033 17.2306 12.7019 17.2947 12.8106 17.3367C12.9192 17.3786 13.0354 17.3974 13.1517 17.3917C13.268 17.386 13.3818 17.3561 13.4858 17.3039C13.5899 17.2516 13.6818 17.1781 13.7558 17.0882L17.0881 13.7528C17.2429 13.5965 17.3298 13.3854 17.3298 13.1654C17.3298 12.9454 17.2429 12.7343 17.0881 12.578L13.7558 9.24253C13.6779 9.16268 13.5849 9.09925 13.4821 9.05597C13.3793 9.01269 13.2689 8.99045 13.1574 8.99056Z" fill="black"/>
</svg>
