<svg width="30" height="30" viewBox="0 0 30 30" fill="none" xmlns="http://www.w3.org/2000/svg">
<path d="M27.6966 12.3732V24.9003C27.6966 25.5818 27.4259 26.2354 26.944 26.7173C26.4621 27.1992 25.8085 27.47 25.127 27.47H21.6965C21.0149 27.47 20.3613 27.1992 19.8794 26.7173C19.3975 26.2354 19.1268 25.5818 19.1268 24.9003V21.7268C19.1268 20.5921 18.676 19.5038 17.8737 18.7014C17.0713 17.8991 15.983 17.4483 14.8483 17.4483C13.7136 17.4483 12.6253 17.8991 11.823 18.7014C11.0206 19.5038 10.5698 20.5921 10.5698 21.7268V24.9003C10.5698 25.5818 10.2991 26.2354 9.81719 26.7173C9.33528 27.1992 8.68168 27.47 8.00016 27.47H4.56966C3.88815 27.47 3.23454 27.1992 2.75264 26.7173C2.27073 26.2354 2 25.5818 2 24.9003V12.3732C1.99976 11.7373 2.15684 11.1113 2.45724 10.5508C2.75764 9.99041 3.19202 9.51299 3.72167 9.16114L12.7155 3.17382C13.3476 2.75394 14.0895 2.52997 14.8483 2.52997C15.6071 2.52997 16.3491 2.75394 16.9811 3.17382L25.975 9.16114C26.5046 9.51299 26.939 9.99041 27.2394 10.5508C27.5398 11.1113 27.6969 11.7373 27.6966 12.3732Z" fill="currentColor"/>
</svg>
