<svg width="335" height="165" viewBox="0 0 335 165" fill="none" xmlns="http://www.w3.org/2000/svg">
<g clip-path="url(#clip0_141_365)">
<rect y="20.766" width="335" height="140" rx="20" fill="#FFBF23"/>
<circle cx="249.5" cy="91.266" r="102.5" fill="#FCCA50"/>
<path d="M18 129.766C17.4477 129.766 17 130.214 17 130.766C17 131.318 17.4477 131.766 18 131.766V129.766ZM41.7071 131.473C42.0976 131.083 42.0976 130.449 41.7071 130.059L35.3431 123.695C34.9526 123.304 34.3195 123.304 33.9289 123.695C33.5384 124.085 33.5384 124.719 33.9289 125.109L39.5858 130.766L33.9289 136.423C33.5384 136.813 33.5384 137.447 33.9289 137.837C34.3195 138.228 34.9526 138.228 35.3431 137.837L41.7071 131.473ZM18 131.766H41V129.766H18V131.766Z" fill="black"/>
<path d="M21.84 59.766V50.134H18.4V48.566H27.008V50.134H23.568V59.766H21.84ZM29.6796 59.99C29.1143 59.99 28.6076 59.894 28.1596 59.702C27.7223 59.51 27.3703 59.2273 27.1036 58.854C26.8476 58.4807 26.7196 58.0273 26.7196 57.494C26.7196 56.95 26.8476 56.502 27.1036 56.15C27.3703 55.7873 27.7276 55.5153 28.1756 55.334C28.6343 55.1527 29.1516 55.062 29.7276 55.062H32.1276V54.55C32.1276 54.0913 31.989 53.7233 31.7116 53.446C31.4343 53.1687 31.0076 53.03 30.4316 53.03C29.8663 53.03 29.4343 53.1633 29.1356 53.43C28.837 53.6967 28.6396 54.0433 28.5436 54.47L27.0076 53.974C27.1356 53.5473 27.3383 53.1633 27.6156 52.822C27.9036 52.47 28.2823 52.1873 28.7516 51.974C29.221 51.7607 29.7863 51.654 30.4476 51.654C31.4716 51.654 32.277 51.9153 32.8636 52.438C33.4503 52.9607 33.7436 53.702 33.7436 54.662V57.91C33.7436 58.23 33.893 58.39 34.1916 58.39H34.8636V59.766H33.6316C33.2583 59.766 32.9543 59.67 32.7196 59.478C32.485 59.286 32.3676 59.0247 32.3676 58.694V58.646H32.1276C32.0423 58.806 31.9143 58.9927 31.7436 59.206C31.573 59.4193 31.3223 59.606 30.9916 59.766C30.661 59.9153 30.2236 59.99 29.6796 59.99ZM29.9196 58.63C30.581 58.63 31.1143 58.4433 31.5196 58.07C31.925 57.686 32.1276 57.1633 32.1276 56.502V56.342H29.8236C29.3863 56.342 29.0343 56.438 28.7676 56.63C28.501 56.8113 28.3676 57.0833 28.3676 57.446C28.3676 57.8087 28.5063 58.0967 28.7836 58.31C29.061 58.5233 29.4396 58.63 29.9196 58.63ZM36.466 59.766V48.566H38.114V54.95H38.37L41.474 51.878H43.666L39.682 55.702L43.794 59.766H41.618L38.37 56.486H38.114V59.766H36.466ZM48.4414 59.99C47.6414 59.99 46.9427 59.8247 46.3454 59.494C45.748 59.1527 45.2787 58.678 44.9374 58.07C44.6067 57.4513 44.4414 56.7367 44.4414 55.926V55.734C44.4414 54.9127 44.6067 54.198 44.9374 53.59C45.268 52.9713 45.7267 52.4967 46.3134 52.166C46.9107 51.8247 47.5987 51.654 48.3774 51.654C49.1347 51.654 49.796 51.8247 50.3614 52.166C50.9374 52.4967 51.3854 52.9607 51.7054 53.558C52.0254 54.1553 52.1854 54.854 52.1854 55.654V56.278H46.1214C46.1427 56.9713 46.372 57.526 46.8094 57.942C47.2574 58.3473 47.812 58.55 48.4734 58.55C49.092 58.55 49.556 58.4113 49.8654 58.134C50.1854 57.8567 50.4307 57.5367 50.6014 57.174L51.9614 57.878C51.812 58.1767 51.5934 58.4913 51.3054 58.822C51.028 59.1527 50.66 59.43 50.2014 59.654C49.7427 59.878 49.156 59.99 48.4414 59.99ZM46.1374 55.014H50.5054C50.4627 54.4167 50.2494 53.9527 49.8654 53.622C49.4814 53.2807 48.98 53.11 48.3614 53.11C47.7427 53.11 47.236 53.2807 46.8414 53.622C46.4574 53.9527 46.2227 54.4167 46.1374 55.014ZM58.2473 59.766V48.566H59.8953V59.766H58.2473ZM65.957 59.99C65.157 59.99 64.4583 59.8247 63.861 59.494C63.2637 59.1527 62.7943 58.678 62.453 58.07C62.1223 57.4513 61.957 56.7367 61.957 55.926V55.734C61.957 54.9127 62.1223 54.198 62.453 53.59C62.7837 52.9713 63.2423 52.4967 63.829 52.166C64.4263 51.8247 65.1143 51.654 65.893 51.654C66.6503 51.654 67.3117 51.8247 67.877 52.166C68.453 52.4967 68.901 52.9607 69.221 53.558C69.541 54.1553 69.701 54.854 69.701 55.654V56.278H63.637C63.6583 56.9713 63.8877 57.526 64.325 57.942C64.773 58.3473 65.3277 58.55 65.989 58.55C66.6077 58.55 67.0717 58.4113 67.381 58.134C67.701 57.8567 67.9463 57.5367 68.117 57.174L69.477 57.878C69.3277 58.1767 69.109 58.4913 68.821 58.822C68.5437 59.1527 68.1757 59.43 67.717 59.654C67.2583 59.878 66.6717 59.99 65.957 59.99ZM63.653 55.014H68.021C67.9783 54.4167 67.765 53.9527 67.381 53.622C66.997 53.2807 66.4957 53.11 65.877 53.11C65.2583 53.11 64.7517 53.2807 64.357 53.622C63.973 53.9527 63.7383 54.4167 63.653 55.014ZM74.1328 59.99C73.5674 59.99 73.0608 59.894 72.6128 59.702C72.1754 59.51 71.8234 59.2273 71.5568 58.854C71.3008 58.4807 71.1728 58.0273 71.1728 57.494C71.1728 56.95 71.3008 56.502 71.5568 56.15C71.8234 55.7873 72.1808 55.5153 72.6288 55.334C73.0874 55.1527 73.6048 55.062 74.1808 55.062H76.5808V54.55C76.5808 54.0913 76.4421 53.7233 76.1648 53.446C75.8874 53.1687 75.4608 53.03 74.8848 53.03C74.3194 53.03 73.8874 53.1633 73.5888 53.43C73.2901 53.6967 73.0928 54.0433 72.9968 54.47L71.4608 53.974C71.5888 53.5473 71.7914 53.1633 72.0688 52.822C72.3568 52.47 72.7354 52.1873 73.2048 51.974C73.6741 51.7607 74.2394 51.654 74.9008 51.654C75.9248 51.654 76.7301 51.9153 77.3168 52.438C77.9034 52.9607 78.1968 53.702 78.1968 54.662V57.91C78.1968 58.23 78.3461 58.39 78.6448 58.39H79.3168V59.766H78.0848C77.7114 59.766 77.4074 59.67 77.1728 59.478C76.9381 59.286 76.8208 59.0247 76.8208 58.694V58.646H76.5808C76.4954 58.806 76.3674 58.9927 76.1968 59.206C76.0261 59.4193 75.7754 59.606 75.4448 59.766C75.1141 59.9153 74.6768 59.99 74.1328 59.99ZM74.3728 58.63C75.0341 58.63 75.5674 58.4433 75.9728 58.07C76.3781 57.686 76.5808 57.1633 76.5808 56.502V56.342H74.2768C73.8394 56.342 73.4874 56.438 73.2208 56.63C72.9541 56.8113 72.8207 57.0833 72.8207 57.446C72.8207 57.8087 72.9594 58.0967 73.2368 58.31C73.5141 58.5233 73.8928 58.63 74.3728 58.63ZM80.9191 59.766V51.878H82.5351V52.806H82.7911C82.9191 52.4753 83.1218 52.2353 83.3991 52.086C83.6871 51.926 84.0391 51.846 84.4551 51.846H85.3991V53.334H84.3911C83.8578 53.334 83.4205 53.4833 83.0791 53.782C82.7378 54.07 82.5671 54.518 82.5671 55.126V59.766H80.9191ZM87.1066 59.766V51.878H88.7226V53.062H88.9786C89.128 52.742 89.3946 52.4433 89.7786 52.166C90.1626 51.8887 90.7333 51.75 91.4906 51.75C92.088 51.75 92.616 51.8833 93.0746 52.15C93.544 52.4167 93.912 52.7953 94.1786 53.286C94.4453 53.766 94.5786 54.3473 94.5786 55.03V59.766H92.9306V55.158C92.9306 54.4753 92.76 53.974 92.4186 53.654C92.0773 53.3233 91.608 53.158 91.0106 53.158C90.328 53.158 89.7786 53.382 89.3626 53.83C88.9573 54.278 88.7546 54.9287 88.7546 55.782V59.766H87.1066ZM96.9504 59.766V51.878H98.5984V59.766H96.9504ZM97.7824 50.806C97.4624 50.806 97.1904 50.7047 96.9664 50.502C96.753 50.2887 96.6464 50.0167 96.6464 49.686C96.6464 49.3553 96.753 49.0887 96.9664 48.886C97.1904 48.6727 97.4624 48.566 97.7824 48.566C98.113 48.566 98.385 48.6727 98.5984 48.886C98.8117 49.0887 98.9184 49.3553 98.9184 49.686C98.9184 50.0167 98.8117 50.2887 98.5984 50.502C98.385 50.7047 98.113 50.806 97.7824 50.806ZM101.044 59.766V51.878H102.66V53.062H102.916C103.065 52.742 103.332 52.4433 103.716 52.166C104.1 51.8887 104.671 51.75 105.428 51.75C106.025 51.75 106.553 51.8833 107.012 52.15C107.481 52.4167 107.849 52.7953 108.116 53.286C108.383 53.766 108.516 54.3473 108.516 55.03V59.766H106.868V55.158C106.868 54.4753 106.697 53.974 106.356 53.654C106.015 53.3233 105.545 53.158 104.948 53.158C104.265 53.158 103.716 53.382 103.3 53.83C102.895 54.278 102.692 54.9287 102.692 55.782V59.766H101.044ZM110.504 55.862V55.622C110.504 54.79 110.669 54.0807 111 53.494C111.341 52.9073 111.789 52.454 112.344 52.134C112.899 51.814 113.507 51.654 114.168 51.654C114.936 51.654 115.523 51.798 115.928 52.086C116.344 52.374 116.648 52.6833 116.84 53.014H117.096V51.878H118.696V61.382C118.696 61.862 118.552 62.246 118.264 62.534C117.987 62.822 117.603 62.966 117.112 62.966H111.8V61.526H116.6C116.909 61.526 117.064 61.366 117.064 61.046V58.534H116.808C116.691 58.726 116.525 58.9233 116.312 59.126C116.099 59.3287 115.816 59.494 115.464 59.622C115.123 59.75 114.691 59.814 114.168 59.814C113.507 59.814 112.893 59.6593 112.328 59.35C111.773 59.03 111.331 58.5767 111 57.99C110.669 57.3927 110.504 56.6833 110.504 55.862ZM114.616 58.374C115.331 58.374 115.917 58.15 116.376 57.702C116.845 57.2433 117.08 56.614 117.08 55.814V55.67C117.08 54.8487 116.851 54.2193 116.392 53.782C115.933 53.334 115.341 53.11 114.616 53.11C113.912 53.11 113.325 53.334 112.856 53.782C112.397 54.2193 112.168 54.8487 112.168 55.67V55.814C112.168 56.614 112.397 57.2433 112.856 57.702C113.325 58.15 113.912 58.374 114.616 58.374ZM127.648 59.99C127.083 59.99 126.576 59.894 126.128 59.702C125.691 59.51 125.339 59.2273 125.072 58.854C124.816 58.4807 124.688 58.0273 124.688 57.494C124.688 56.95 124.816 56.502 125.072 56.15C125.339 55.7873 125.696 55.5153 126.144 55.334C126.603 55.1527 127.12 55.062 127.696 55.062H130.096V54.55C130.096 54.0913 129.958 53.7233 129.68 53.446C129.403 53.1687 128.976 53.03 128.4 53.03C127.835 53.03 127.403 53.1633 127.104 53.43C126.806 53.6967 126.608 54.0433 126.512 54.47L124.976 53.974C125.104 53.5473 125.307 53.1633 125.584 52.822C125.872 52.47 126.251 52.1873 126.72 51.974C127.19 51.7607 127.755 51.654 128.416 51.654C129.44 51.654 130.246 51.9153 130.832 52.438C131.419 52.9607 131.712 53.702 131.712 54.662V57.91C131.712 58.23 131.862 58.39 132.16 58.39H132.832V59.766H131.6C131.227 59.766 130.923 59.67 130.688 59.478C130.454 59.286 130.336 59.0247 130.336 58.694V58.646H130.096C130.011 58.806 129.883 58.9927 129.712 59.206C129.542 59.4193 129.291 59.606 128.96 59.766C128.63 59.9153 128.192 59.99 127.648 59.99ZM127.888 58.63C128.55 58.63 129.083 58.4433 129.488 58.07C129.894 57.686 130.096 57.1633 130.096 56.502V56.342H127.792C127.355 56.342 127.003 56.438 126.736 56.63C126.47 56.8113 126.336 57.0833 126.336 57.446C126.336 57.8087 126.475 58.0967 126.752 58.31C127.03 58.5233 127.408 58.63 127.888 58.63ZM137.911 59.99C137.154 59.99 136.466 59.83 135.847 59.51C135.239 59.19 134.754 58.726 134.391 58.118C134.039 57.51 133.863 56.7793 133.863 55.926V55.718C133.863 54.8647 134.039 54.1393 134.391 53.542C134.754 52.934 135.239 52.47 135.847 52.15C136.466 51.8193 137.154 51.654 137.911 51.654C138.669 51.654 139.314 51.7927 139.847 52.07C140.381 52.3473 140.807 52.7153 141.127 53.174C141.458 53.6327 141.671 54.1393 141.767 54.694L140.167 55.03C140.114 54.678 140.002 54.358 139.831 54.07C139.661 53.782 139.421 53.5527 139.111 53.382C138.802 53.2113 138.413 53.126 137.943 53.126C137.485 53.126 137.069 53.2327 136.695 53.446C136.333 53.6487 136.045 53.9473 135.831 54.342C135.618 54.726 135.511 55.1953 135.511 55.75V55.894C135.511 56.4487 135.618 56.9233 135.831 57.318C136.045 57.7127 136.333 58.0113 136.695 58.214C137.069 58.4167 137.485 58.518 137.943 58.518C138.637 58.518 139.165 58.342 139.527 57.99C139.89 57.6273 140.119 57.1687 140.215 56.614L141.815 56.982C141.687 57.526 141.458 58.0273 141.127 58.486C140.807 58.9447 140.381 59.3127 139.847 59.59C139.314 59.8567 138.669 59.99 137.911 59.99ZM146.379 59.766C145.899 59.766 145.515 59.622 145.227 59.334C144.95 59.046 144.811 58.662 144.811 58.182V53.27H142.635V51.878H144.811V49.27H146.459V51.878H148.811V53.27H146.459V57.894C146.459 58.214 146.608 58.374 146.907 58.374H148.555V59.766H146.379ZM150.747 59.766V51.878H152.395V59.766H150.747ZM151.579 50.806C151.259 50.806 150.987 50.7047 150.763 50.502C150.55 50.2887 150.443 50.0167 150.443 49.686C150.443 49.3553 150.55 49.0887 150.763 48.886C150.987 48.6727 151.259 48.566 151.579 48.566C151.91 48.566 152.182 48.6727 152.395 48.886C152.609 49.0887 152.715 49.3553 152.715 49.686C152.715 50.0167 152.609 50.2887 152.395 50.502C152.182 50.7047 151.91 50.806 151.579 50.806ZM156.665 59.766L154.009 51.878H155.753L157.849 58.55H158.105L160.201 51.878H161.945L159.289 59.766H156.665ZM163.544 59.766V51.878H165.192V59.766H163.544ZM164.376 50.806C164.056 50.806 163.784 50.7047 163.56 50.502C163.347 50.2887 163.24 50.0167 163.24 49.686C163.24 49.3553 163.347 49.0887 163.56 48.886C163.784 48.6727 164.056 48.566 164.376 48.566C164.707 48.566 164.979 48.6727 165.192 48.886C165.405 49.0887 165.512 49.3553 165.512 49.686C165.512 50.0167 165.405 50.2887 165.192 50.502C164.979 50.7047 164.707 50.806 164.376 50.806ZM170.598 59.766C170.118 59.766 169.734 59.622 169.446 59.334C169.169 59.046 169.03 58.662 169.03 58.182V53.27H166.854V51.878H169.03V49.27H170.678V51.878H173.03V53.27H170.678V57.894C170.678 58.214 170.827 58.374 171.126 58.374H172.774V59.766H170.598ZM174.966 59.766V51.878H176.614V59.766H174.966ZM175.798 50.806C175.478 50.806 175.206 50.7047 174.982 50.502C174.769 50.2887 174.662 50.0167 174.662 49.686C174.662 49.3553 174.769 49.0887 174.982 48.886C175.206 48.6727 175.478 48.566 175.798 48.566C176.129 48.566 176.401 48.6727 176.614 48.886C176.827 49.0887 176.934 49.3553 176.934 49.686C176.934 50.0167 176.827 50.2887 176.614 50.502C176.401 50.7047 176.129 50.806 175.798 50.806ZM182.676 59.99C181.876 59.99 181.177 59.8247 180.58 59.494C179.982 59.1527 179.513 58.678 179.172 58.07C178.841 57.4513 178.676 56.7367 178.676 55.926V55.734C178.676 54.9127 178.841 54.198 179.172 53.59C179.502 52.9713 179.961 52.4967 180.548 52.166C181.145 51.8247 181.833 51.654 182.612 51.654C183.369 51.654 184.03 51.8247 184.596 52.166C185.172 52.4967 185.62 52.9607 185.94 53.558C186.26 54.1553 186.42 54.854 186.42 55.654V56.278H180.356C180.377 56.9713 180.606 57.526 181.044 57.942C181.492 58.3473 182.046 58.55 182.708 58.55C183.326 58.55 183.79 58.4113 184.1 58.134C184.42 57.8567 184.665 57.5367 184.836 57.174L186.196 57.878C186.046 58.1767 185.828 58.4913 185.54 58.822C185.262 59.1527 184.894 59.43 184.436 59.654C183.977 59.878 183.39 59.99 182.676 59.99ZM180.372 55.014H184.74C184.697 54.4167 184.484 53.9527 184.1 53.622C183.716 53.2807 183.214 53.11 182.596 53.11C181.977 53.11 181.47 53.2807 181.076 53.622C180.692 53.9527 180.457 54.4167 180.372 55.014ZM191.636 59.99C190.633 59.99 189.801 59.766 189.14 59.318C188.478 58.87 188.073 58.1927 187.924 57.286L189.46 56.918C189.545 57.3553 189.689 57.702 189.892 57.958C190.094 58.214 190.345 58.3953 190.644 58.502C190.953 58.6087 191.284 58.662 191.636 58.662C192.158 58.662 192.558 58.5607 192.836 58.358C193.124 58.1553 193.268 57.894 193.268 57.574C193.268 57.254 193.134 57.0193 192.868 56.87C192.601 56.7207 192.206 56.598 191.684 56.502L191.14 56.406C190.606 56.31 190.121 56.1713 189.684 55.99C189.246 55.8087 188.9 55.558 188.644 55.238C188.388 54.918 188.26 54.5073 188.26 54.006C188.26 53.2593 188.537 52.6833 189.092 52.278C189.646 51.862 190.382 51.654 191.299 51.654C192.185 51.654 192.91 51.8567 193.476 52.262C194.052 52.6567 194.425 53.1953 194.596 53.878L193.06 54.31C192.964 53.83 192.761 53.494 192.452 53.302C192.142 53.0993 191.758 52.998 191.299 52.998C190.852 52.998 190.5 53.0833 190.244 53.254C189.988 53.414 189.86 53.6433 189.86 53.942C189.86 54.262 189.982 54.4967 190.228 54.646C190.484 54.7953 190.825 54.9073 191.252 54.982L191.812 55.078C192.377 55.174 192.894 55.3073 193.364 55.478C193.833 55.6487 194.201 55.894 194.468 56.214C194.745 56.534 194.884 56.9607 194.884 57.494C194.884 58.2833 194.59 58.8967 194.004 59.334C193.417 59.7713 192.628 59.99 191.636 59.99ZM22.176 79.766C21.696 79.766 21.312 79.622 21.024 79.334C20.7467 79.046 20.608 78.662 20.608 78.182V73.27H18.432V71.878H20.608V69.27H22.256V71.878H24.608V73.27H22.256V77.894C22.256 78.214 22.4053 78.374 22.704 78.374H24.352V79.766H22.176ZM29.9589 79.99C29.1695 79.99 28.4655 79.83 27.8469 79.51C27.2389 79.1793 26.7589 78.71 26.4069 78.102C26.0549 77.494 25.8789 76.774 25.8789 75.942V75.702C25.8789 74.87 26.0549 74.1553 26.4069 73.558C26.7589 72.95 27.2389 72.4807 27.8469 72.15C28.4655 71.8193 29.1695 71.654 29.9589 71.654C30.7482 71.654 31.4522 71.8193 32.0709 72.15C32.6895 72.4807 33.1749 72.95 33.5269 73.558C33.8789 74.1553 34.0549 74.87 34.0549 75.702V75.942C34.0549 76.774 33.8789 77.494 33.5269 78.102C33.1749 78.71 32.6895 79.1793 32.0709 79.51C31.4522 79.83 30.7482 79.99 29.9589 79.99ZM29.9589 78.518C30.6842 78.518 31.2709 78.2887 31.7189 77.83C32.1775 77.3607 32.4069 76.7153 32.4069 75.894V75.75C32.4069 74.9287 32.1829 74.2887 31.7349 73.83C31.2869 73.3607 30.6949 73.126 29.9589 73.126C29.2442 73.126 28.6575 73.3607 28.1989 73.83C27.7509 74.2887 27.5269 74.9287 27.5269 75.75V75.894C27.5269 76.7153 27.7509 77.3607 28.1989 77.83C28.6575 78.2887 29.2442 78.518 29.9589 78.518ZM40.1848 79.766V71.878H41.8328V79.766H40.1848ZM41.0168 70.806C40.6968 70.806 40.4248 70.7047 40.2008 70.502C39.9874 70.2887 39.8808 70.0167 39.8808 69.686C39.8808 69.3553 39.9874 69.0887 40.2008 68.886C40.4248 68.6727 40.6968 68.566 41.0168 68.566C41.3474 68.566 41.6194 68.6727 41.8328 68.886C42.0461 69.0887 42.1528 69.3553 42.1528 69.686C42.1528 70.0167 42.0461 70.2887 41.8328 70.502C41.6194 70.7047 41.3474 70.806 41.0168 70.806ZM44.2785 79.766V71.878H45.8945V72.806H46.1505C46.2998 72.5287 46.5398 72.2833 46.8705 72.07C47.2012 71.8567 47.6492 71.75 48.2145 71.75C48.8012 71.75 49.2705 71.8727 49.6225 72.118C49.9852 72.3527 50.2572 72.6567 50.4385 73.03H50.6945C50.8758 72.6673 51.1372 72.3633 51.4785 72.118C51.8305 71.8727 52.3265 71.75 52.9665 71.75C53.4785 71.75 53.9318 71.8567 54.3265 72.07C54.7212 72.2727 55.0358 72.582 55.2705 72.998C55.5052 73.4033 55.6225 73.91 55.6225 74.518V79.766H53.9745V74.646C53.9745 74.166 53.8412 73.798 53.5745 73.542C53.3185 73.2753 52.9505 73.142 52.4705 73.142C51.9585 73.142 51.5478 73.3073 51.2385 73.638C50.9292 73.9687 50.7745 74.4433 50.7745 75.062V79.766H49.1265V74.646C49.1265 74.166 48.9932 73.798 48.7265 73.542C48.4705 73.2753 48.1025 73.142 47.6225 73.142C47.1105 73.142 46.6998 73.3073 46.3905 73.638C46.0812 73.9687 45.9265 74.4433 45.9265 75.062V79.766H44.2785ZM57.9973 82.966V71.878H59.6133V73.014H59.8693C60.0719 72.662 60.3759 72.3473 60.7812 72.07C61.1973 71.7927 61.7893 71.654 62.5573 71.654C63.2186 71.654 63.8213 71.814 64.3653 72.134C64.9199 72.454 65.3626 72.918 65.6933 73.526C66.0346 74.1233 66.2053 74.8487 66.2053 75.702V75.942C66.2053 76.7953 66.0399 77.526 65.7093 78.134C65.3786 78.7313 64.9359 79.19 64.3813 79.51C63.8266 79.83 63.2186 79.99 62.5573 79.99C62.0453 79.99 61.6133 79.926 61.2613 79.798C60.9093 79.67 60.6266 79.51 60.4133 79.318C60.1999 79.1153 60.0293 78.9073 59.9013 78.694H59.6453V82.966H57.9973ZM62.0773 78.55C62.8026 78.55 63.3946 78.3207 63.8533 77.862C64.3119 77.4033 64.5413 76.7473 64.5413 75.894V75.75C64.5413 74.9073 64.3066 74.2567 63.8373 73.798C63.3786 73.3393 62.7919 73.11 62.0773 73.11C61.3733 73.11 60.7866 73.3393 60.3173 73.798C59.8586 74.2567 59.6293 74.9073 59.6293 75.75V75.894C59.6293 76.7473 59.8586 77.4033 60.3173 77.862C60.7866 78.3207 61.3733 78.55 62.0773 78.55ZM68.2473 79.766V71.878H69.8633V72.806H70.1193C70.2473 72.4753 70.4499 72.2353 70.7273 72.086C71.0153 71.926 71.3673 71.846 71.7833 71.846H72.7273V73.334H71.7193C71.1859 73.334 70.7486 73.4833 70.4073 73.782C70.0659 74.07 69.8953 74.518 69.8953 75.126V79.766H68.2473ZM77.8495 79.99C77.0602 79.99 76.3562 79.83 75.7375 79.51C75.1295 79.1793 74.6495 78.71 74.2975 78.102C73.9455 77.494 73.7695 76.774 73.7695 75.942V75.702C73.7695 74.87 73.9455 74.1553 74.2975 73.558C74.6495 72.95 75.1295 72.4807 75.7375 72.15C76.3562 71.8193 77.0602 71.654 77.8495 71.654C78.6388 71.654 79.3428 71.8193 79.9615 72.15C80.5802 72.4807 81.0655 72.95 81.4175 73.558C81.7695 74.1553 81.9455 74.87 81.9455 75.702V75.942C81.9455 76.774 81.7695 77.494 81.4175 78.102C81.0655 78.71 80.5802 79.1793 79.9615 79.51C79.3428 79.83 78.6388 79.99 77.8495 79.99ZM77.8495 78.518C78.5748 78.518 79.1615 78.2887 79.6095 77.83C80.0682 77.3607 80.2975 76.7153 80.2975 75.894V75.75C80.2975 74.9287 80.0735 74.2887 79.6255 73.83C79.1775 73.3607 78.5855 73.126 77.8495 73.126C77.1348 73.126 76.5482 73.3607 76.0895 73.83C75.6415 74.2887 75.4175 74.9287 75.4175 75.75V75.894C75.4175 76.7153 75.6415 77.3607 76.0895 77.83C76.5482 78.2887 77.1348 78.518 77.8495 78.518ZM85.54 79.766L82.884 71.878H84.628L86.724 78.55H86.98L89.076 71.878H90.82L88.164 79.766H85.54ZM95.7539 79.99C94.9539 79.99 94.2552 79.8247 93.6579 79.494C93.0605 79.1527 92.5912 78.678 92.2499 78.07C91.9192 77.4513 91.7539 76.7367 91.7539 75.926V75.734C91.7539 74.9127 91.9192 74.198 92.2499 73.59C92.5805 72.9713 93.0392 72.4967 93.6259 72.166C94.2232 71.8247 94.9112 71.654 95.6899 71.654C96.4472 71.654 97.1085 71.8247 97.6739 72.166C98.2499 72.4967 98.6979 72.9607 99.0179 73.558C99.3379 74.1553 99.4979 74.854 99.4979 75.654V76.278H93.4339C93.4552 76.9713 93.6845 77.526 94.1219 77.942C94.5699 78.3473 95.1245 78.55 95.7859 78.55C96.4045 78.55 96.8685 78.4113 97.1779 78.134C97.4979 77.8567 97.7432 77.5367 97.9139 77.174L99.2739 77.878C99.1245 78.1767 98.9059 78.4913 98.6179 78.822C98.3405 79.1527 97.9725 79.43 97.5139 79.654C97.0552 79.878 96.4685 79.99 95.7539 79.99ZM93.4499 75.014H97.8179C97.7752 74.4167 97.5619 73.9527 97.1779 73.622C96.7939 73.2807 96.2925 73.11 95.6739 73.11C95.0552 73.11 94.5485 73.2807 94.1539 73.622C93.7699 73.9527 93.5352 74.4167 93.4499 75.014ZM106.472 82.966V81.526H110.872C111.17 81.526 111.32 81.366 111.32 81.046V78.614H111.064C110.968 78.8273 110.818 79.0353 110.616 79.238C110.424 79.43 110.162 79.59 109.832 79.718C109.501 79.846 109.085 79.91 108.584 79.91C107.986 79.91 107.453 79.7767 106.984 79.51C106.514 79.2433 106.146 78.8647 105.88 78.374C105.613 77.8833 105.48 77.302 105.48 76.63V71.878H107.128V76.502C107.128 77.1847 107.298 77.6913 107.64 78.022C107.981 78.342 108.456 78.502 109.064 78.502C109.736 78.502 110.274 78.278 110.68 77.83C111.096 77.382 111.304 76.7313 111.304 75.878V71.878H112.952V81.382C112.952 81.862 112.808 82.246 112.52 82.534C112.242 82.822 111.858 82.966 111.368 82.966H106.472ZM119.084 79.99C118.295 79.99 117.591 79.83 116.972 79.51C116.364 79.1793 115.884 78.71 115.532 78.102C115.18 77.494 115.004 76.774 115.004 75.942V75.702C115.004 74.87 115.18 74.1553 115.532 73.558C115.884 72.95 116.364 72.4807 116.972 72.15C117.591 71.8193 118.295 71.654 119.084 71.654C119.873 71.654 120.577 71.8193 121.196 72.15C121.815 72.4807 122.3 72.95 122.652 73.558C123.004 74.1553 123.18 74.87 123.18 75.702V75.942C123.18 76.774 123.004 77.494 122.652 78.102C122.3 78.71 121.815 79.1793 121.196 79.51C120.577 79.83 119.873 79.99 119.084 79.99ZM119.084 78.518C119.809 78.518 120.396 78.2887 120.844 77.83C121.303 77.3607 121.532 76.7153 121.532 75.894V75.75C121.532 74.9287 121.308 74.2887 120.86 73.83C120.412 73.3607 119.82 73.126 119.084 73.126C118.369 73.126 117.783 73.3607 117.324 73.83C116.876 74.2887 116.652 74.9287 116.652 75.75V75.894C116.652 76.7153 116.876 77.3607 117.324 77.83C117.783 78.2887 118.369 78.518 119.084 78.518ZM128.256 79.91C127.658 79.91 127.125 79.7767 126.656 79.51C126.186 79.2433 125.818 78.8647 125.552 78.374C125.285 77.8833 125.152 77.2967 125.152 76.614V71.878H126.8V76.502C126.8 77.1847 126.97 77.6913 127.312 78.022C127.653 78.342 128.128 78.502 128.736 78.502C129.408 78.502 129.946 78.278 130.352 77.83C130.768 77.3713 130.976 76.7153 130.976 75.862V71.878H132.624V79.766H131.008V78.582H130.752C130.602 78.902 130.336 79.206 129.952 79.494C129.568 79.7713 129.002 79.91 128.256 79.91ZM135.06 79.766V71.878H136.676V72.806H136.932C137.06 72.4753 137.262 72.2353 137.54 72.086C137.828 71.926 138.18 71.846 138.596 71.846H139.54V73.334H138.532C137.998 73.334 137.561 73.4833 137.22 73.782C136.878 74.07 136.708 74.518 136.708 75.126V79.766H135.06ZM19.216 99.766V91.878H20.832V92.806H21.088C21.216 92.4753 21.4187 92.2353 21.696 92.086C21.984 91.926 22.336 91.846 22.752 91.846H23.696V93.334H22.688C22.1547 93.334 21.7173 93.4833 21.376 93.782C21.0347 94.07 20.864 94.518 20.864 95.126V99.766H19.216ZM28.7383 99.99C27.9383 99.99 27.2396 99.8247 26.6423 99.494C26.0449 99.1527 25.5756 98.678 25.2343 98.07C24.9036 97.4513 24.7383 96.7367 24.7383 95.926V95.734C24.7383 94.9127 24.9036 94.198 25.2343 93.59C25.5649 92.9713 26.0236 92.4967 26.6103 92.166C27.2076 91.8247 27.8956 91.654 28.6743 91.654C29.4316 91.654 30.0929 91.8247 30.6583 92.166C31.2343 92.4967 31.6823 92.9607 32.0023 93.558C32.3223 94.1553 32.4823 94.854 32.4823 95.654V96.278H26.4183C26.4396 96.9713 26.6689 97.526 27.1063 97.942C27.5543 98.3473 28.1089 98.55 28.7703 98.55C29.3889 98.55 29.8529 98.4113 30.1623 98.134C30.4823 97.8567 30.7276 97.5367 30.8983 97.174L32.2583 97.878C32.1089 98.1767 31.8903 98.4913 31.6023 98.822C31.3249 99.1527 30.9569 99.43 30.4983 99.654C30.0396 99.878 29.4529 99.99 28.7383 99.99ZM26.4343 95.014H30.8023C30.7596 94.4167 30.5463 93.9527 30.1623 93.622C29.7783 93.2807 29.2769 93.11 28.6583 93.11C28.0396 93.11 27.5329 93.2807 27.1383 93.622C26.7543 93.9527 26.5196 94.4167 26.4343 95.014ZM36.914 99.99C36.3487 99.99 35.842 99.894 35.394 99.702C34.9567 99.51 34.6047 99.2273 34.338 98.854C34.082 98.4807 33.954 98.0273 33.954 97.494C33.954 96.95 34.082 96.502 34.338 96.15C34.6047 95.7873 34.962 95.5153 35.41 95.334C35.8687 95.1527 36.386 95.062 36.962 95.062H39.362V94.55C39.362 94.0913 39.2233 93.7233 38.946 93.446C38.6687 93.1687 38.242 93.03 37.666 93.03C37.1007 93.03 36.6687 93.1633 36.37 93.43C36.0713 93.6967 35.874 94.0433 35.778 94.47L34.242 93.974C34.37 93.5473 34.5727 93.1633 34.85 92.822C35.138 92.47 35.5167 92.1873 35.986 91.974C36.4553 91.7607 37.0207 91.654 37.682 91.654C38.706 91.654 39.5113 91.9153 40.098 92.438C40.6847 92.9607 40.978 93.702 40.978 94.662V97.91C40.978 98.23 41.1273 98.39 41.426 98.39H42.098V99.766H40.866C40.4927 99.766 40.1887 99.67 39.954 99.478C39.7193 99.286 39.602 99.0247 39.602 98.694V98.646H39.362C39.2767 98.806 39.1487 98.9927 38.978 99.206C38.8073 99.4193 38.5567 99.606 38.226 99.766C37.8953 99.9153 37.458 99.99 36.914 99.99ZM37.154 98.63C37.8153 98.63 38.3487 98.4433 38.754 98.07C39.1593 97.686 39.362 97.1633 39.362 96.502V96.342H37.058C36.6207 96.342 36.2687 96.438 36.002 96.63C35.7353 96.8113 35.602 97.0833 35.602 97.446C35.602 97.8087 35.7407 98.0967 36.018 98.31C36.2953 98.5233 36.674 98.63 37.154 98.63ZM46.7769 99.99C46.1262 99.99 45.5235 99.83 44.9689 99.51C44.4142 99.19 43.9662 98.7313 43.6249 98.134C43.2942 97.526 43.1289 96.7953 43.1289 95.942V95.702C43.1289 94.8593 43.2942 94.134 43.6249 93.526C43.9555 92.918 44.3982 92.454 44.9529 92.134C45.5075 91.814 46.1155 91.654 46.7769 91.654C47.2889 91.654 47.7155 91.718 48.0569 91.846C48.4089 91.974 48.6969 92.1393 48.9209 92.342C49.1449 92.534 49.3155 92.7367 49.4329 92.95H49.6889V88.566H51.3369V99.766H49.7209V98.646H49.4649C49.2622 98.9873 48.9529 99.2967 48.5369 99.574C48.1315 99.8513 47.5449 99.99 46.7769 99.99ZM47.2409 98.55C47.9555 98.55 48.5422 98.3207 49.0009 97.862C49.4702 97.4033 49.7049 96.7473 49.7049 95.894V95.75C49.7049 94.9073 49.4755 94.2567 49.0169 93.798C48.5582 93.3393 47.9662 93.11 47.2409 93.11C46.5369 93.11 45.9502 93.3393 45.4809 93.798C45.0222 94.2567 44.7929 94.9073 44.7929 95.75V95.894C44.7929 96.7473 45.0222 97.4033 45.4809 97.862C45.9502 98.3207 46.5369 98.55 47.2409 98.55ZM53.7629 99.766V91.878H55.4109V99.766H53.7629ZM54.5949 90.806C54.2749 90.806 54.0029 90.7047 53.7789 90.502C53.5655 90.2887 53.4589 90.0167 53.4589 89.686C53.4589 89.3553 53.5655 89.0887 53.7789 88.886C54.0029 88.6727 54.2749 88.566 54.5949 88.566C54.9255 88.566 55.1975 88.6727 55.4109 88.886C55.6242 89.0887 55.7309 89.3553 55.7309 89.686C55.7309 90.0167 55.6242 90.2887 55.4109 90.502C55.1975 90.7047 54.9255 90.806 54.5949 90.806ZM57.8566 99.766V91.878H59.4726V93.062H59.7286C59.878 92.742 60.1446 92.4433 60.5286 92.166C60.9126 91.8887 61.4833 91.75 62.2406 91.75C62.838 91.75 63.366 91.8833 63.8246 92.15C64.294 92.4167 64.662 92.7953 64.9286 93.286C65.1953 93.766 65.3286 94.3473 65.3286 95.03V99.766H63.6806V95.158C63.6806 94.4753 63.51 93.974 63.1686 93.654C62.8273 93.3233 62.358 93.158 61.7606 93.158C61.078 93.158 60.5286 93.382 60.1126 93.83C59.7073 94.278 59.5046 94.9287 59.5046 95.782V99.766H57.8566ZM67.3164 95.862V95.622C67.3164 94.79 67.4817 94.0807 67.8124 93.494C68.1537 92.9073 68.6017 92.454 69.1564 92.134C69.711 91.814 70.319 91.654 70.9804 91.654C71.7484 91.654 72.335 91.798 72.7404 92.086C73.1564 92.374 73.4604 92.6833 73.6524 93.014H73.9084V91.878H75.5084V101.382C75.5084 101.862 75.3644 102.246 75.0764 102.534C74.799 102.822 74.415 102.966 73.9244 102.966H68.6124V101.526H73.4124C73.7217 101.526 73.8764 101.366 73.8764 101.046V98.534H73.6204C73.503 98.726 73.3377 98.9233 73.1244 99.126C72.911 99.3287 72.6284 99.494 72.2764 99.622C71.935 99.75 71.503 99.814 70.9804 99.814C70.319 99.814 69.7057 99.6593 69.1404 99.35C68.5857 99.03 68.143 98.5767 67.8124 97.99C67.4817 97.3927 67.3164 96.6833 67.3164 95.862ZM71.4284 98.374C72.143 98.374 72.7297 98.15 73.1884 97.702C73.6577 97.2433 73.8924 96.614 73.8924 95.814V95.67C73.8924 94.8487 73.663 94.2193 73.2044 93.782C72.7457 93.334 72.1537 93.11 71.4284 93.11C70.7244 93.11 70.1377 93.334 69.6684 93.782C69.2097 94.2193 68.9804 94.8487 68.9804 95.67V95.814C68.9804 96.614 69.2097 97.2433 69.6684 97.702C70.1377 98.15 70.7244 98.374 71.4284 98.374ZM85.2449 99.99C84.2422 99.99 83.4102 99.766 82.7489 99.318C82.0875 98.87 81.6822 98.1927 81.5329 97.286L83.0689 96.918C83.1542 97.3553 83.2982 97.702 83.5009 97.958C83.7035 98.214 83.9542 98.3953 84.2529 98.502C84.5622 98.6087 84.8929 98.662 85.2449 98.662C85.7675 98.662 86.1675 98.5607 86.4449 98.358C86.7329 98.1553 86.8769 97.894 86.8769 97.574C86.8769 97.254 86.7435 97.0193 86.4769 96.87C86.2102 96.7207 85.8155 96.598 85.2929 96.502L84.7489 96.406C84.2155 96.31 83.7302 96.1713 83.2929 95.99C82.8555 95.8087 82.5089 95.558 82.2529 95.238C81.9969 94.918 81.8689 94.5073 81.8689 94.006C81.8689 93.2593 82.1462 92.6833 82.7009 92.278C83.2555 91.862 83.9915 91.654 84.9089 91.654C85.7942 91.654 86.5195 91.8567 87.0849 92.262C87.6609 92.6567 88.0342 93.1953 88.2049 93.878L86.6689 94.31C86.5729 93.83 86.3702 93.494 86.0609 93.302C85.7515 93.0993 85.3675 92.998 84.9089 92.998C84.4609 92.998 84.1089 93.0833 83.8529 93.254C83.5969 93.414 83.4689 93.6433 83.4689 93.942C83.4689 94.262 83.5915 94.4967 83.8369 94.646C84.0929 94.7953 84.4342 94.9073 84.8609 94.982L85.4209 95.078C85.9862 95.174 86.5035 95.3073 86.9729 95.478C87.4422 95.6487 87.8102 95.894 88.0769 96.214C88.3542 96.534 88.4929 96.9607 88.4929 97.494C88.4929 98.2833 88.1995 98.8967 87.6129 99.334C87.0262 99.7713 86.2369 99.99 85.2449 99.99ZM90.4191 99.766V88.566H92.0671V94.95H92.3231L95.4271 91.878H97.6191L93.6351 95.702L97.7471 99.766H95.5711L92.3231 96.486H92.0671V99.766H90.4191ZM99.2316 99.766V91.878H100.88V99.766H99.2316ZM100.064 90.806C99.7436 90.806 99.4716 90.7047 99.2476 90.502C99.0343 90.2887 98.9276 90.0167 98.9276 89.686C98.9276 89.3553 99.0343 89.0887 99.2476 88.886C99.4716 88.6727 99.7436 88.566 100.064 88.566C100.394 88.566 100.666 88.6727 100.88 88.886C101.093 89.0887 101.2 89.3553 101.2 89.686C101.2 90.0167 101.093 90.2887 100.88 90.502C100.666 90.7047 100.394 90.806 100.064 90.806ZM103.325 99.766V88.566H104.973V99.766H103.325ZM107.419 99.766V88.566H109.067V99.766H107.419ZM114.745 99.99C113.742 99.99 112.91 99.766 112.249 99.318C111.588 98.87 111.182 98.1927 111.033 97.286L112.569 96.918C112.654 97.3553 112.798 97.702 113.001 97.958C113.204 98.214 113.454 98.3953 113.753 98.502C114.062 98.6087 114.393 98.662 114.745 98.662C115.268 98.662 115.668 98.5607 115.945 98.358C116.233 98.1553 116.377 97.894 116.377 97.574C116.377 97.254 116.244 97.0193 115.977 96.87C115.71 96.7207 115.316 96.598 114.793 96.502L114.249 96.406C113.716 96.31 113.23 96.1713 112.793 95.99C112.356 95.8087 112.009 95.558 111.753 95.238C111.497 94.918 111.369 94.5073 111.369 94.006C111.369 93.2593 111.646 92.6833 112.201 92.278C112.756 91.862 113.492 91.654 114.409 91.654C115.294 91.654 116.02 91.8567 116.585 92.262C117.161 92.6567 117.534 93.1953 117.705 93.878L116.169 94.31C116.073 93.83 115.87 93.494 115.561 93.302C115.252 93.0993 114.868 92.998 114.409 92.998C113.961 92.998 113.609 93.0833 113.353 93.254C113.097 93.414 112.969 93.6433 112.969 93.942C112.969 94.262 113.092 94.4967 113.337 94.646C113.593 94.7953 113.934 94.9073 114.361 94.982L114.921 95.078C115.486 95.174 116.004 95.3073 116.473 95.478C116.942 95.6487 117.31 95.894 117.577 96.214C117.854 96.534 117.993 96.9607 117.993 97.494C117.993 98.2833 117.7 98.8967 117.113 99.334C116.526 99.7713 115.737 99.99 114.745 99.99ZM120.911 99.99C120.538 99.99 120.223 99.8673 119.967 99.622C119.722 99.3767 119.599 99.062 119.599 98.678C119.599 98.294 119.722 97.9847 119.967 97.75C120.223 97.5047 120.538 97.382 120.911 97.382C121.284 97.382 121.594 97.5047 121.839 97.75C122.095 97.9953 122.223 98.3047 122.223 98.678C122.223 99.062 122.095 99.3767 121.839 99.622C121.594 99.8673 121.284 99.99 120.911 99.99Z" fill="black"/>
</g>
<g filter="url(#filter0_d_141_365)">
<path d="M245.863 160.762H304.297L298.856 144.747L254.077 147.071L245.863 160.762Z" fill="#263238"/>
<path d="M256.744 147.398L290.893 146.125L303.019 78.2163L292.061 73.4991C292.061 73.4991 287.513 76.0497 279.089 76.0901C270.823 76.1306 270.969 73.3212 270.969 73.3212L263.721 81.1267C263.721 81.1267 254.8 106.508 254.666 107.021C254.533 107.534 256.744 147.398 256.744 147.398Z" fill="white"/>
<path d="M296.237 75.2291C296.237 75.2291 313.056 78.7054 313.214 81.5067C313.372 84.3079 306.019 101.677 305.877 102.122C305.736 102.566 299.252 127.402 299.252 127.402L308.953 160.766H278.718C278.718 160.766 280.876 129.289 283.302 114.746C285.727 100.202 286.305 95.3431 287.239 89.5789C287.611 87.2708 289.49 79.3522 290.658 74.5177C290.989 73.1548 291.05 71.7404 290.836 70.3542L292.271 70.8999L296.237 75.2291Z" fill="#455A64"/>
<path d="M243.615 117.814C243.454 118.056 240.382 129.209 239.876 132.438C239.448 135.179 238.769 139.633 241.675 143.756C244.582 147.88 247.585 147.394 250.487 146.343C253.389 145.293 256.55 139.233 257.108 135.757C257.666 132.281 254.384 116.993 254.384 116.993L243.615 117.814Z" fill="#455A64"/>
<path d="M271.001 71.1586L267.258 76.4418C267.258 76.4418 254.776 78.0587 251.898 80.1525C249.02 82.2464 243.219 120.029 243.219 120.029L254.832 126.496L245.859 160.766H257.108C257.108 160.766 259.897 146.323 259.643 135.951C259.388 125.579 261.187 112.102 264.493 102.134C267.8 92.1659 270.961 74.93 270.961 74.93L271.001 71.1586Z" fill="#455A64"/>
<g opacity="0.3">
<path d="M304.988 148.15L284.87 136.962C285.727 141.574 288.435 145.996 292.397 148.51C294.391 149.765 296.62 150.602 298.948 150.969C301.276 151.336 303.654 151.225 305.938 150.644C305.615 149.812 305.298 148.98 304.988 148.15Z" fill="black"/>
</g>
<path d="M245.378 126.848C245.378 126.884 244.901 126.961 244.189 127.252C243.259 127.651 242.441 128.273 241.808 129.063C241.188 129.862 240.772 130.8 240.596 131.796C240.462 132.56 240.503 133.049 240.462 133.053C240.426 132.942 240.41 132.826 240.414 132.709C240.394 132.396 240.407 132.082 240.45 131.771C240.585 130.734 240.998 129.753 241.647 128.933C242.295 128.113 243.155 127.485 244.133 127.115C244.425 127 244.729 126.915 245.038 126.86C245.15 126.836 245.265 126.832 245.378 126.848Z" fill="#263238"/>
<path d="M247.73 142.54C247.73 142.54 250.924 141.529 252.072 140.232C253.165 138.946 253.898 137.394 254.198 135.733C254.343 133.809 255.067 123.703 255.067 123.703L246.651 123.149L241.461 133.061C241.461 133.061 240.054 136.699 242.928 140.575C244.763 143.061 247.73 142.54 247.73 142.54Z" fill="#FFBF9D"/>
<path d="M255.815 136.962C255.832 136.572 255.87 136.183 255.928 135.797C256.014 134.866 256 133.929 255.887 133C255.769 132.071 255.553 131.156 255.245 130.272C255.006 129.593 254.816 129.188 254.84 129.172C254.865 129.156 254.913 129.261 255.014 129.439C255.151 129.692 255.272 129.952 255.378 130.219C256.096 131.992 256.336 133.923 256.073 135.818C256.035 136.102 255.981 136.384 255.912 136.662C255.896 136.767 255.863 136.868 255.815 136.962Z" fill="#263238"/>
<path d="M255.5 137.156C255.515 137.317 255.515 137.479 255.5 137.641C255.495 137.83 255.478 138.019 255.451 138.207C255.419 138.425 255.394 138.675 255.33 138.946C255.205 139.59 255.021 140.22 254.78 140.83C254.483 141.574 254.115 142.287 253.681 142.96C253.235 143.627 252.728 144.249 252.165 144.82C251.701 145.282 251.196 145.701 250.657 146.073C250.454 146.22 250.242 146.355 250.022 146.477C249.864 146.58 249.698 146.67 249.525 146.748C249.385 146.829 249.236 146.894 249.081 146.942C249.081 146.905 249.683 146.606 250.572 145.955C251.089 145.57 251.575 145.146 252.027 144.686C252.573 144.117 253.067 143.5 253.503 142.843C253.93 142.176 254.298 141.472 254.602 140.741C254.844 140.144 255.039 139.529 255.184 138.902C255.431 137.843 255.455 137.151 255.5 137.156Z" fill="#263238"/>
<path d="M217.24 71.9347C215.833 72.1398 214.562 72.8869 213.699 74.0165L232.499 100.695L255.972 98.0069L255.593 74.0044C255.593 74.0044 254 71.6922 252.456 71.9509C251.837 72.056 231.982 75.1564 230.224 80.0151C230.224 80.0151 230.43 77.5332 228.773 76.2922C227.115 75.0513 217.24 71.9347 217.24 71.9347Z" fill="white"/>
<path d="M217.24 71.9347L217.515 72.0115L218.323 72.2622C219.026 72.4845 220.073 72.8159 221.415 73.2687C222.757 73.7214 224.406 74.2873 226.298 75.0311C226.771 75.221 227.256 75.4353 227.753 75.6495C228.28 75.8637 228.764 76.1719 229.18 76.559C230.013 77.42 230.349 78.7175 230.3 80.0151L230.163 79.9828C230.589 79.1013 231.265 78.3647 232.107 77.8646C232.97 77.3019 233.882 76.8176 234.831 76.4175C236.903 75.5462 239.035 74.8235 241.21 74.255C243.49 73.6284 245.903 73.0746 248.429 72.5734C249.69 72.3228 250.984 72.0843 252.298 71.8701C252.644 71.7999 253.003 71.8237 253.336 71.9388C253.663 72.0611 253.97 72.2314 254.246 72.4441C254.794 72.8698 255.276 73.3737 255.677 73.9397L255.697 73.9639V73.9963C255.794 80.1849 255.903 86.9313 256.016 93.9364C256.041 95.3027 256.062 96.6568 256.081 97.9988V98.0918H255.984L232.511 100.772H232.454L232.422 100.727L213.67 74.0448V74.0246V74.0043C214.03 73.5002 214.488 73.074 215.016 72.7513C215.398 72.516 215.805 72.3235 216.229 72.1773C216.478 72.0875 216.733 72.0172 216.993 71.9671C217.081 71.951 217.17 71.9428 217.26 71.9428C217.172 71.9531 217.084 71.968 216.997 71.9873C216.74 72.0429 216.487 72.1186 216.241 72.2137C215.83 72.3661 215.437 72.5626 215.069 72.7998C214.551 73.1221 214.102 73.5455 213.751 74.0448V74.0043L232.6 100.642L232.511 100.602L255.96 97.8937L255.867 98.0029C255.845 96.6555 255.824 95.3081 255.802 93.9607C255.693 86.9555 255.588 80.2172 255.491 74.0165L255.511 74.0731C255.12 73.5247 254.652 73.0359 254.121 72.6219C253.862 72.4213 253.574 72.2605 253.268 72.1449C252.965 72.0399 252.64 72.0189 252.326 72.0843C251.012 72.2945 249.723 72.533 248.462 72.7796C245.939 73.2767 243.526 73.8265 241.25 74.4449C239.084 75.0086 236.959 75.7231 234.892 76.5833C233.948 76.9773 233.042 77.4548 232.184 78.0102C231.367 78.4912 230.71 79.2008 230.292 80.0515L230.138 80.4274V80.0232C230.191 78.7661 229.867 77.4887 229.071 76.6681C228.666 76.2891 228.195 75.9877 227.681 75.7789C227.192 75.5485 226.706 75.3464 226.238 75.1523C224.354 74.4005 222.709 73.8265 221.387 73.3616L218.307 72.3188L217.498 72.052C217.329 71.9711 217.24 71.9347 217.24 71.9347Z" fill="#263238"/>
<path d="M228.776 104.41L211.173 74.4975C211.09 74.3585 211.053 74.1968 211.068 74.0357C211.082 73.8746 211.147 73.7221 211.253 73.6001C211.359 73.4813 211.499 73.3977 211.653 73.3609C211.808 73.324 211.97 73.3356 212.118 73.394L225.995 78.9237C226.262 79.0284 226.5 79.1946 226.691 79.4087C226.888 79.629 227.03 79.893 227.105 80.1791C227.181 80.4652 227.187 80.7651 227.123 81.0539L226.917 81.9796L231.768 83.2205L231.873 82.9497C232.066 82.453 232.368 82.006 232.757 81.6415C233.146 81.277 233.612 81.0044 234.12 80.8437L256.477 73.7214C256.941 73.5724 257.442 73.5926 257.892 73.7784C258.342 73.9641 258.712 74.3034 258.935 74.736L274.813 105.343L274.275 106.787L249.036 112.769H244.589L228.776 104.41Z" fill="#263238"/>
<path d="M228.776 104.41L229.055 104.547L229.864 104.951L232.976 106.568L244.634 112.692H244.602H249.024L274.259 106.69L274.19 106.75C274.348 106.305 274.526 105.804 274.708 105.303V105.376L266.502 89.5466C265.068 86.7682 263.601 83.9387 262.1 81.0579L259.857 76.6843L259.287 75.5808L259 75.027C258.915 74.8429 258.814 74.667 258.697 74.5015C258.457 74.1835 258.125 73.9462 257.747 73.8213C257.368 73.6963 256.961 73.6897 256.579 73.8022L243.373 78.0061L237.022 80.0272C235.984 80.3627 234.933 80.678 233.93 81.0216C233.447 81.22 233.014 81.5225 232.661 81.9074C232.308 82.2924 232.044 82.7504 231.889 83.2488L231.865 83.3337L231.772 83.3094L226.921 82.0685L226.828 82.0442L226.848 81.9513L227.014 81.2115C227.081 80.9807 227.107 80.7399 227.091 80.5001C227.071 80.2655 227.004 80.0373 226.894 79.829C226.785 79.6207 226.634 79.4365 226.452 79.2875C226.264 79.1391 226.052 79.0242 225.826 78.9479L225.142 78.6771L223.78 78.1314L218.485 76.0173L213.432 73.9962L212.219 73.5112C212.134 73.4637 212.04 73.4347 211.943 73.426C211.846 73.4174 211.748 73.4293 211.656 73.4609C211.563 73.4925 211.479 73.5432 211.407 73.6097C211.336 73.6762 211.279 73.7569 211.241 73.8467C211.203 73.9347 211.184 74.0297 211.184 74.1256C211.184 74.2215 211.203 74.3164 211.241 74.4045L211.557 74.9502L212.195 76.0375C215.579 81.7977 218.554 86.8706 221.015 91.0705L226.763 100.889L228.283 103.508L228.687 104.187C228.772 104.337 228.813 104.418 228.813 104.418C228.813 104.418 228.764 104.345 228.675 104.195C228.586 104.046 228.449 103.824 228.271 103.533L226.711 100.925C225.365 98.6496 223.4 95.3269 220.918 91.1392L212.054 76.1143L211.411 75.027C211.302 74.841 211.197 74.6672 211.084 74.4692C211.032 74.3609 211.004 74.2431 211 74.1232C210.997 74.0033 211.019 73.8841 211.065 73.7732C211.11 73.6623 211.179 73.5623 211.266 73.4796C211.353 73.3968 211.456 73.3332 211.569 73.2929C211.798 73.217 212.048 73.2344 212.264 73.3414L213.477 73.8305L218.533 75.8516L223.833 77.9616L225.191 78.5033L225.878 78.7741C226.123 78.8571 226.351 78.9815 226.553 79.1419C226.757 79.3081 226.925 79.5138 227.047 79.7464C227.169 79.9791 227.243 80.2341 227.265 80.4961C227.283 80.7562 227.255 81.0175 227.184 81.2681L227.022 82.0079L226.949 81.8906L231.8 83.1275L231.683 83.1882C231.848 82.6647 232.127 82.1839 232.498 81.7795C232.87 81.3752 233.325 81.0571 233.833 80.8477C234.864 80.492 235.895 80.1808 236.938 79.8453L243.292 77.8242L256.498 73.6163C256.922 73.4917 257.373 73.4993 257.793 73.6379C258.213 73.7766 258.58 74.0397 258.846 74.3924C258.97 74.5664 259.077 74.7518 259.166 74.9461L259.453 75.4999L260.027 76.6034C260.784 78.0694 261.537 79.526 262.286 80.9731L266.688 89.4617L274.878 105.299V105.335V105.372L274.36 106.819V106.867H274.308L249.052 112.85H244.606L232.964 106.665L229.872 105.012L229.063 104.584L228.776 104.41Z" fill="#263238"/>
<g opacity="0.3">
<path d="M241.178 109.212L229.642 103.694L213.711 77.4443L227.782 82.9012L227.487 83.6571L215.636 79.0571L230.208 103.068L241.526 108.48L241.178 109.212Z" fill="black"/>
</g>
<g opacity="0.3">
<path d="M250.499 110.829L235.983 84.6272L257.375 77.7555L271.316 104.765L250.499 110.829ZM237.16 85.0961L250.883 109.871L270.14 104.236L256.962 78.7256L237.16 85.0961Z" fill="black"/>
</g>
<path d="M247.916 112.47C247.868 112.498 244.226 106.002 239.783 97.918C235.341 89.8336 231.788 83.2974 231.836 83.2691C231.885 83.2408 235.527 89.7366 239.969 97.821C244.412 105.905 247.969 112.446 247.916 112.47Z" fill="#263238"/>
<path d="M226.917 81.9715C226.987 82.0662 227.049 82.1662 227.103 82.2706L227.604 83.1397C228.037 83.8996 228.647 85.0031 229.399 86.3735C230.899 89.106 232.936 92.9056 235.163 97.1136L240.859 107.886L242.593 111.148C242.787 111.52 242.94 111.819 243.057 112.037C243.117 112.139 243.167 112.246 243.207 112.357C243.137 112.262 243.075 112.162 243.021 112.058L242.52 111.188C242.087 110.429 241.477 109.325 240.725 107.955C239.225 105.218 237.188 101.419 234.961 97.2106L229.253 86.4381L227.519 83.1801C227.325 82.8082 227.172 82.5091 227.054 82.2908C226.999 82.1889 226.953 82.082 226.917 81.9715Z" fill="#263238"/>
<path d="M229.645 82.4565C229.634 82.045 229.694 81.6347 229.823 81.2439C229.883 80.8359 230.012 80.4409 230.203 80.0757C230.214 80.4871 230.154 80.8974 230.025 81.2883C229.965 81.6963 229.837 82.0913 229.645 82.4565Z" fill="#263238"/>
<g opacity="0.3">
<path d="M232.325 90.545L240.899 106.427L243.882 106.855L235.357 91.0948L232.325 90.545Z" fill="black"/>
</g>
<g opacity="0.3">
<path d="M229.278 86.3047L234.027 87.2547L235.07 88.9847L230.203 88.0227L229.355 86.5635" fill="black"/>
</g>
<g opacity="0.3">
<path d="M246.219 86.2805L245.382 84.3443L250.697 82.4566L251.623 84.3686L246.219 86.2805Z" fill="black"/>
</g>
<g opacity="0.3">
<path d="M245.863 96.107L242.916 90.545L257.965 84.9951L260.621 90.545L245.863 96.107Z" fill="black"/>
</g>
<path d="M294.248 7.08986C294.834 6.53637 295.54 6.12639 296.312 5.89213C297.084 5.65787 297.899 5.60571 298.694 5.73976C299.337 5.85294 300.032 6.08335 300.61 5.77614C300.984 5.49611 301.309 5.156 301.572 4.76964C301.824 4.51891 302.123 4.32156 302.453 4.18941C302.783 4.05727 303.136 3.99305 303.491 4.0006C303.846 4.00814 304.196 4.08731 304.52 4.23334C304.844 4.37938 305.135 4.58929 305.376 4.85048C305.569 5.14659 305.811 5.40767 306.091 5.62254C307.304 6.34609 308.828 4.04608 310.052 4.78176C309.472 4.97023 308.963 5.33123 308.593 5.81656C308.416 6.06412 308.327 6.36382 308.34 6.66786C308.354 6.9719 308.468 7.26277 308.666 7.49408C309.798 8.58951 311.851 6.36226 313.112 7.28388C313.796 7.78511 313.836 8.99373 314.648 9.23222C314.973 9.28101 315.304 9.2728 315.627 9.20797C316.179 9.19545 316.715 9.393 317.127 9.76068C317.539 10.1284 317.796 10.6387 317.846 11.1886C317.894 12.1305 317.369 13.2502 318.04 13.909C318.444 14.3133 319.119 14.289 319.701 14.2284C319.645 15.0915 319.394 15.9305 318.966 16.682C319.689 17.1855 320.189 17.9499 320.361 18.8144C320.533 19.6789 320.363 20.5764 319.887 21.3184C320.639 21.8925 321.272 22.6079 321.751 23.4244C322.175 24.2651 322.232 25.3646 321.641 26.1003C321.488 26.2511 321.359 26.4241 321.257 26.6137C321.181 26.8347 321.168 27.0729 321.221 27.3008C321.359 28.1861 321.702 29.0551 321.625 29.9485C321.548 30.8418 320.845 31.7877 319.956 31.6704C319.75 31.6421 319.523 31.5613 319.346 31.6704C319.281 31.7185 319.227 31.7791 319.187 31.8485C319.147 31.918 319.121 31.9949 319.111 32.0747C319.019 32.7123 319.03 33.3606 319.143 33.9947C319.256 34.6358 319.121 35.2957 318.767 35.842C318.363 36.3473 317.478 36.4847 317.102 35.9633L317.721 38.9868C317.842 39.5851 317.931 40.3086 317.478 40.7209C316.884 41.2626 315.885 40.7654 315.493 40.0661C315.101 39.3668 315.02 38.522 314.608 37.8348C314.414 37.5717 314.246 37.2901 314.107 36.994C314.022 36.7474 314.002 36.4604 313.812 36.2866C313.428 35.935 312.781 36.4645 312.809 36.9859C312.838 37.5074 313.234 37.9156 313.541 38.336C313.848 38.7564 314.083 39.3425 313.796 39.7791C313.658 39.9893 313.42 40.1186 313.286 40.3329C312.825 41.0685 313.901 41.8608 313.99 42.7258C314.058 43.3645 313.565 43.9143 313.088 44.3427C312.506 44.8682 311.415 45.2603 311.099 44.5448C311.04 44.278 310.996 44.0081 310.966 43.7364C310.835 43.4452 310.635 43.19 310.384 42.9926C309.822 42.428 309.437 41.7115 309.276 40.9311C309.899 41.78 310.542 42.8916 310.024 43.8051C309.769 44.1631 309.461 44.4806 309.111 44.7469C308.484 45.3371 308.076 46.1253 307.457 46.7236C306.839 47.3218 305.841 47.7058 305.117 47.2491C305.23 47.6723 305.196 48.1213 305.021 48.5228C304.846 48.9243 304.54 49.2545 304.153 49.4595C303.766 49.6646 303.32 49.7323 302.89 49.6516C302.459 49.571 302.069 49.3467 301.782 49.0155C301.651 48.8159 301.479 48.6464 301.277 48.5183C301.03 48.4493 300.768 48.4493 300.521 48.5183C299.755 48.6085 298.979 48.4861 298.278 48.1646C297.577 47.843 296.979 47.3347 296.548 46.6953L297.328 46.4608C295.828 46.19 294.264 45.8949 293.051 44.9733C291.838 44.0517 291.107 42.3014 291.838 40.9554C292.15 40.3733 292.724 39.7872 292.509 39.1647C292.36 38.7322 291.891 38.5179 291.471 38.3562L286.175 36.1977C285.318 35.8501 284.417 35.4661 283.871 34.7183C283.326 33.9705 283.334 32.7416 284.13 32.2687C283.75 31.4114 283.137 30.6786 282.359 30.1546C281.49 29.5766 280.456 29.2815 279.562 28.7399C278.669 28.1982 277.873 27.2644 277.99 26.2256C278.107 25.1868 279.582 24.447 280.266 25.2434C280.197 23.6629 277.404 23.4324 277.242 21.86C277.109 20.5867 278.758 20.0087 279.639 19.075C279.489 18.6263 279.057 18.3231 278.895 17.8623C278.552 16.9326 279.542 16.0676 280.456 15.6876C281.369 15.3076 282.477 14.9277 282.743 13.9737C283.01 13.0198 282.222 11.8354 282.788 10.9987C282.954 10.7715 283.2 10.6152 283.476 10.5605C283.752 10.5059 284.039 10.5569 284.279 10.7036C285.088 8.92906 288.427 10.457 289.502 8.828C289.594 8.70284 289.642 8.55084 289.639 8.39548C289.619 8.26256 289.565 8.13716 289.482 8.03169C289.114 7.51833 288.52 7.22325 288.039 6.81903C287.558 6.41481 287.17 5.73976 287.424 5.15769C287.679 4.57561 288.799 4.65241 288.754 5.28704C288.927 5.16452 289.125 5.08309 289.334 5.04898C289.544 5.01486 289.758 5.02895 289.96 5.09017C290.163 5.15139 290.349 5.25813 290.504 5.40223C290.66 5.54633 290.78 5.724 290.856 5.92166C291.317 5.41639 292.174 5.46489 292.744 5.84082C293.289 6.27129 293.724 6.82556 294.013 7.45769" fill="#263238"/>
<path d="M301.851 27.4989C301.354 24.8836 299.49 22.7291 297.404 21.0637C296.573 20.3134 295.569 19.7802 294.482 19.5115C293.382 19.3094 292.117 19.6651 291.535 20.6191L291.64 22.4825C291.329 25.4333 293.548 27.9759 294.567 30.761C295.011 31.9736 295.375 33.4248 296.531 33.9664C297.167 34.2204 297.874 34.2305 298.516 33.9947C301.059 33.1903 302.348 30.1142 301.851 27.4989Z" fill="#455A64"/>
<path d="M301.778 41.1737C302.607 40.0524 303.016 38.6757 302.933 37.2838C302.85 35.892 302.281 34.5734 301.326 33.5582C302.429 32.204 302.057 30.094 300.966 28.7318C299.874 27.3696 298.241 26.5773 296.665 25.8255C295.836 21.8197 291.378 18.9537 287.392 19.8834C285.351 16.8195 280.945 16.294 277.396 17.2883C276.549 17.5963 275.663 17.7814 274.764 17.8381C274.107 17.781 273.454 17.6838 272.808 17.547C269.218 17.0256 265.621 19.5196 264.186 22.8545C263.995 23.4024 263.733 23.923 263.406 24.4026C262.933 25.0009 262.221 25.3485 261.615 25.8053C260.959 26.3074 260.419 26.945 260.031 27.6745C259.643 28.4041 259.417 29.2086 259.368 30.0334C259.295 31.4279 259.727 32.9155 259.125 34.1766C258.822 34.8113 258.284 35.3165 258.05 35.9795C257.363 37.8914 259.473 39.8721 259.056 41.8609C258.972 42.2651 258.786 42.645 258.652 43.0412C258.415 43.8644 258.482 44.7457 258.842 45.5231C259.121 46.1132 259.574 46.6589 259.606 47.3138C259.567 47.8074 259.464 48.2939 259.299 48.7609C259.044 49.9493 261.567 54.5614 262.585 55.2284L293.306 55.8145C294.469 55.5643 295.526 54.9589 296.331 54.082C297.135 53.2051 297.648 52.1 297.797 50.9194C297.786 50.5231 297.889 50.132 298.092 49.7916C298.334 49.5567 298.621 49.3738 298.937 49.254C300.925 48.2152 301.192 45.4988 301.006 43.2635C300.961 42.9516 300.971 42.6343 301.035 42.3257C301.202 41.8952 301.455 41.5032 301.778 41.1737Z" fill="#263238"/>
<path d="M293.023 41.1332C293.168 35.6964 289.826 29.4108 284.453 26.7026C281.066 24.9927 278.39 24.9563 276.624 24.73C274.108 24.4597 271.57 24.9632 269.348 26.173C267.65 26.553 261.389 32.1716 261.005 38.3319C260.576 45.1754 260.326 53.5508 261.138 58.6561C262.775 68.9233 270.645 70.2249 270.645 70.2249L270.29 78.3618L276.025 89.0009L290.796 73.9599L293.023 41.1332Z" fill="#FFBF9D"/>
<path d="M276.506 57.108C276.459 56.5822 276.218 56.0927 275.831 55.7336C275.481 55.398 275.03 55.1869 274.548 55.1329C274.066 55.0788 273.58 55.1848 273.164 55.4345C272.728 55.7328 272.381 56.1418 272.156 56.6192C271.932 57.0967 271.838 57.6254 271.886 58.1509C272.093 58.4737 272.366 58.7488 272.687 58.9579C273.009 59.167 273.371 59.3053 273.75 59.3635C273.871 59.3635 273.992 59.3918 274.113 59.3959C274.717 59.4235 275.31 59.2246 275.775 58.838C276.019 58.6236 276.212 58.3566 276.339 58.0569C276.466 57.7573 276.523 57.4329 276.506 57.108Z" fill="#FF9A6C"/>
<path d="M263.313 47.5118C263.309 47.8554 263.441 48.1867 263.679 48.4345C263.917 48.6824 264.242 48.8271 264.586 48.8376C264.753 48.8508 264.922 48.8303 265.081 48.7774C265.24 48.7244 265.388 48.64 265.514 48.5293C265.64 48.4185 265.743 48.2835 265.816 48.1324C265.889 47.9812 265.931 47.817 265.94 47.6492C265.944 47.306 265.814 46.9748 265.576 46.7268C265.339 46.4788 265.014 46.334 264.671 46.3234C264.503 46.3102 264.335 46.3307 264.175 46.3836C264.015 46.4365 263.868 46.5208 263.741 46.6316C263.615 46.7423 263.512 46.8772 263.438 47.0284C263.364 47.1795 263.322 47.3439 263.313 47.5118Z" fill="#263238"/>
<path d="M263.333 42.2691C263.499 42.4429 264.497 41.7032 265.912 41.7032C267.327 41.7032 268.37 42.4146 268.523 42.2408C268.596 42.164 268.43 41.8568 267.978 41.5253C267.364 41.1004 266.634 40.8759 265.888 40.8826C265.152 40.8819 264.434 41.1139 263.838 41.5455C263.402 41.881 263.256 42.1923 263.333 42.2691Z" fill="#263238"/>
<path d="M271.632 53.4538C271.632 53.373 270.759 53.2234 269.332 53.0496C268.968 53.0132 268.624 52.9405 268.564 52.6939C268.532 52.3204 268.617 51.9464 268.806 51.6227L269.873 48.866C271.357 44.941 272.432 41.7153 272.274 41.6547C272.117 41.594 270.783 44.7308 269.299 48.6558C268.944 49.6218 268.6 50.5435 268.277 51.4287C268.049 51.8647 267.983 52.3675 268.091 52.8475C268.143 52.9752 268.224 53.0893 268.326 53.1811C268.429 53.2728 268.552 53.3399 268.685 53.377C268.886 53.4296 269.092 53.4581 269.299 53.4619C270.734 53.5306 271.628 53.5347 271.632 53.4538Z" fill="#263238"/>
<path d="M270.662 70.2249C275.495 70.2938 280.252 69.0219 284.405 66.5505C284.405 66.5505 280.767 73.9275 270.496 72.9736L270.662 70.2249Z" fill="#FF9A6C"/>
<path d="M275.803 54.432C275.573 54.432 275.569 55.9559 274.255 57.0514C272.941 58.1468 271.3 57.973 271.288 58.1913C271.288 58.2842 271.656 58.4863 272.347 58.5065C273.248 58.5203 274.125 58.2138 274.821 57.6415C275.496 57.0961 275.931 56.3084 276.034 55.4466C276.078 54.8039 275.908 54.4239 275.803 54.432Z" fill="#263238"/>
<path d="M263.899 36.9576C264.138 37.3052 265.225 37.0748 266.49 37.1799C267.755 37.285 268.81 37.6165 269.089 37.3052C269.215 37.1516 269.089 36.8161 268.637 36.4685C268.035 36.0325 267.321 35.7798 266.579 35.7409C265.842 35.6798 265.103 35.8358 264.453 36.1896C263.98 36.4766 263.802 36.7919 263.899 36.9576Z" fill="#263238"/>
<path d="M278.548 48.1141C278.536 48.4545 278.393 48.7771 278.149 49.0145C277.905 49.2519 277.579 49.3855 277.238 49.3874C277.07 49.3945 276.902 49.3678 276.745 49.3091C276.587 49.2504 276.443 49.1608 276.321 49.0456C276.198 48.9303 276.1 48.7918 276.032 48.6381C275.964 48.4844 275.927 48.3186 275.924 48.1505C275.935 47.8077 276.078 47.4824 276.324 47.2433C276.57 47.0042 276.899 46.87 277.242 46.8691C277.41 46.8632 277.578 46.8909 277.735 46.9506C277.892 47.0103 278.035 47.1008 278.157 47.2168C278.279 47.3328 278.376 47.4719 278.443 47.626C278.51 47.7801 278.546 47.9461 278.548 48.1141Z" fill="#263238"/>
<path d="M282.724 42.8148C282.554 42.9805 281.584 42.2084 280.169 42.1559C278.754 42.1033 277.687 42.7784 277.542 42.6005C277.469 42.5197 277.647 42.1963 278.112 41.9053C278.74 41.5035 279.477 41.3058 280.222 41.3394C280.956 41.3637 281.664 41.6213 282.243 42.075C282.671 42.4267 282.805 42.742 282.724 42.8148Z" fill="#263238"/>
<path d="M283.124 38.0692C282.833 38.3805 281.749 38.0046 280.44 37.9399C279.13 37.8752 278.014 38.0692 277.76 37.7216C277.655 37.5559 277.841 37.2406 278.338 36.9536C279.018 36.6105 279.777 36.4554 280.536 36.5045C281.296 36.5535 282.029 36.8049 282.659 37.2325C283.112 37.5761 283.249 37.9116 283.124 38.0692Z" fill="#263238"/>
<path d="M291.329 50.8628C291.329 50.0948 292.214 48.292 292.97 48.1747C294.991 47.8595 298.629 48.0211 298.658 53.1386C298.706 60.1396 291.669 58.7491 291.653 58.547C291.636 58.3449 291.325 53.5024 291.329 50.8628Z" fill="#FFBF9D"/>
<path d="M293.569 55.9762C293.597 55.9519 293.69 56.0611 293.896 56.154C294.189 56.2702 294.516 56.2702 294.809 56.154C295.545 55.8751 296.16 54.6989 296.184 53.4377C296.2 52.8365 296.08 52.2395 295.832 51.6915C295.765 51.4731 295.645 51.2744 295.484 51.1124C295.323 50.9505 295.125 50.8301 294.906 50.7617C294.766 50.7257 294.618 50.7399 294.487 50.802C294.357 50.864 294.252 50.9699 294.191 51.1013C294.098 51.2994 294.143 51.4368 294.106 51.4489C294.07 51.4611 293.957 51.3357 294.009 51.0447C294.046 50.8711 294.142 50.7155 294.28 50.6041C294.472 50.4572 294.715 50.3918 294.955 50.4222C295.243 50.4763 295.512 50.6036 295.737 50.792C295.961 50.9803 296.133 51.2233 296.236 51.4974C296.54 52.1011 296.69 52.7703 296.673 53.4458C296.641 54.8565 295.925 56.1823 294.915 56.4815C294.727 56.5381 294.53 56.5516 294.336 56.5208C294.143 56.49 293.959 56.4157 293.799 56.3036C293.581 56.146 293.544 55.9883 293.569 55.9762Z" fill="#FF9A6C"/>
<path d="M259.42 38.429C260.835 37.5438 261.741 36.3392 261.652 34.6738C262.589 34.9527 263.543 33.7482 264.077 32.9357C264.611 32.1232 265.29 31.723 265.253 30.7367C265.227 30.544 265.25 30.3477 265.322 30.1668C265.463 29.9 265.799 29.8111 266.086 29.7221C266.833 29.4809 267.507 29.0563 268.047 28.4871C268.587 27.9179 268.976 27.2224 269.178 26.4641C270.685 27.1256 272.332 27.4034 273.972 27.2726C274.337 27.8004 274.83 28.2271 275.405 28.5127C275.98 28.7982 276.618 28.9334 277.259 28.9056C277.9 28.8777 278.524 28.6877 279.071 28.3534C279.619 28.019 280.073 27.5512 280.391 26.9936C280.628 27.4205 280.953 27.7913 281.346 28.0808C281.739 28.3704 282.189 28.5717 282.667 28.6712C283.622 28.8633 284.599 28.9164 285.569 28.8288C285.389 29.778 285.557 30.7605 286.042 31.5959C286.528 32.4313 287.299 33.0634 288.213 33.3763C288.46 33.4531 288.747 33.5299 288.864 33.7805C288.898 33.9113 288.906 34.0476 288.887 34.1815C288.869 34.3154 288.823 34.4443 288.755 34.5606C288.621 34.9633 288.571 35.3886 288.606 35.8113C288.641 36.2339 288.76 36.6452 288.958 37.0206C289.155 37.396 289.426 37.7277 289.754 37.9961C290.082 38.2645 290.462 38.464 290.869 38.5826C290.603 38.8194 290.394 39.1132 290.258 39.4421C290.122 39.771 290.062 40.1264 290.083 40.4817C290.103 40.837 290.204 41.1831 290.377 41.494C290.55 41.805 290.792 42.0727 291.083 42.2772C291.338 42.4308 291.669 42.6127 291.629 42.9078C291.606 43.0196 291.553 43.123 291.475 43.2069C290.954 43.8981 290.436 44.658 290.371 45.519C290.307 46.38 290.893 47.3542 291.758 47.3946C291.514 47.5767 291.309 47.8064 291.157 48.0696C291.004 48.3329 290.906 48.6244 290.869 48.9266C290.869 49.537 291.475 50.1393 292.041 49.9371C292.283 49.8442 295.768 49.157 295.921 48.9508C297.902 46.2628 295.412 43.2918 295.218 39.957C294.954 36.6124 293.917 33.3747 292.19 30.4982C291.517 29.268 290.682 28.133 289.709 27.123C288.536 26.0381 287.245 25.0889 285.86 24.2935C284.09 23.1899 282.271 22.0945 280.242 21.6135C276.466 20.7242 272.562 22.0945 269.017 23.7235C267.654 24.2951 266.374 25.0484 265.213 25.9629C263.903 27.1552 262.818 28.572 262.007 30.1466C260.758 32.3738 259.72 34.7749 259.473 37.3134" fill="#263238"/>
<path d="M258.05 35.9794C258.134 35.7102 258.261 35.4563 258.426 35.2276C258.575 34.9931 258.785 34.7223 258.984 34.3747C259.21 33.9732 259.348 33.5281 259.388 33.069C259.426 32.4926 259.417 31.9139 259.359 31.339C259.283 30.6458 259.302 29.9453 259.416 29.2572C259.57 28.4677 259.883 27.7179 260.338 27.0542C260.587 26.6916 260.877 26.3593 261.203 26.0639C261.549 25.7668 261.918 25.4965 262.306 25.2555C262.71 25.0105 263.071 24.7005 263.373 24.3379C263.651 23.9301 263.875 23.4886 264.04 23.0242C264.894 20.9513 266.461 19.2523 268.458 18.2342C268.996 17.9643 269.561 17.7529 270.144 17.6036C270.747 17.4615 271.364 17.3922 271.983 17.3974C272.3 17.407 272.615 17.4326 272.929 17.4742C273.24 17.5228 273.548 17.5915 273.859 17.6481C274.476 17.7775 275.113 17.7775 275.73 17.6481C276.357 17.5228 276.971 17.3004 277.618 17.1387C278.936 16.7946 280.302 16.6716 281.66 16.7749C282.356 16.8421 283.044 16.9775 283.714 17.1792C285.093 17.5627 286.319 18.365 287.222 19.4751C287.307 19.5924 287.392 19.7096 287.481 19.8228L287.368 19.7783C289.407 19.3898 291.517 19.7977 293.265 20.9181C295.012 22.0384 296.264 23.786 296.762 25.8012L296.709 25.7324C297.553 26.1123 298.371 26.5457 299.159 27.03C299.931 27.5016 300.609 28.1114 301.16 28.8288C301.681 29.5379 301.995 30.3773 302.069 31.2541C302.155 32.0996 301.913 32.9457 301.394 33.6188V33.5015C302.337 34.4753 302.909 35.748 303.011 37.0991C303.126 38.3058 302.869 39.5187 302.275 40.5754C302.139 40.8177 301.983 41.0488 301.811 41.2666C301.638 41.4665 301.476 41.6756 301.326 41.8931C301.187 42.0982 301.101 42.3342 301.075 42.5803C301.061 42.8216 301.068 43.0637 301.095 43.3039C301.172 44.1906 301.145 45.0832 301.014 45.9636C300.917 46.6757 300.682 47.362 300.323 47.9847C300.052 48.4417 299.678 48.8292 299.232 49.1165C298.872 49.355 298.549 49.448 298.371 49.5774C298.279 49.6387 298.194 49.7091 298.116 49.7876C298.179 49.6932 298.262 49.6133 298.359 49.5531C298.532 49.4157 298.856 49.3146 299.203 49.0721C299.636 48.7825 299.996 48.3964 300.254 47.9443C300.602 47.3275 300.827 46.6495 300.917 45.9475C301.035 45.0752 301.054 44.1925 300.974 43.316C300.943 43.068 300.935 42.8177 300.95 42.5682C300.976 42.3008 301.067 42.044 301.216 41.8204C301.366 41.5989 301.528 41.3856 301.701 41.1817C301.863 40.9635 302.009 40.7339 302.138 40.4945C302.711 39.4601 302.953 38.2753 302.833 37.0991C302.734 35.79 302.179 34.5571 301.265 33.6147L301.208 33.5581L301.257 33.4975C301.747 32.8584 301.971 32.0547 301.883 31.2541C301.809 30.4149 301.506 29.6122 301.006 28.9339C300.467 28.2393 299.805 27.6489 299.054 27.1917C298.273 26.7145 297.463 26.2865 296.629 25.9103L296.584 25.8901V25.8375C296.092 23.8788 294.871 22.1817 293.17 21.0931C291.47 20.0044 289.417 19.6064 287.433 19.9804H287.364L287.319 19.9238C287.238 19.8106 287.154 19.7015 287.069 19.5883C286.195 18.4983 285.002 17.7083 283.657 17.3287C282.997 17.1386 282.32 17.014 281.636 16.9568C280.304 16.8531 278.964 16.972 277.671 17.3085C277.036 17.4662 276.413 17.6925 275.767 17.8178C275.445 17.8825 275.117 17.915 274.789 17.9148C274.464 17.9065 274.141 17.8713 273.822 17.8097C273.511 17.7532 273.204 17.6844 272.897 17.6359C272.592 17.5943 272.286 17.5687 271.979 17.5591C271.376 17.5515 270.775 17.618 270.189 17.7572C269.619 17.9011 269.066 18.1057 268.539 18.3676C266.572 19.3663 265.027 21.035 264.182 23.0727C264.01 23.5502 263.777 24.0038 263.491 24.4228C263.175 24.7959 262.801 25.1153 262.383 25.3687C261.997 25.608 261.63 25.8784 261.288 26.1771C260.97 26.4641 260.686 26.7869 260.443 27.1391C259.992 27.7848 259.679 28.5171 259.525 29.2896C259.406 29.966 259.381 30.6555 259.448 31.339C259.501 31.9199 259.501 32.5043 259.448 33.0852C259.408 33.5519 259.27 34.005 259.044 34.4151C258.834 34.7668 258.62 35.0295 258.466 35.2599C258.346 35.4292 258.239 35.6076 258.147 35.7935C258.078 35.9107 258.054 35.9794 258.05 35.9794Z" fill="#455A64"/>
<path d="M284.11 18.3393C284.11 18.3393 283.924 18.2342 283.585 18.0644C283.106 17.829 282.591 17.6773 282.061 17.6157C281.277 17.5177 280.481 17.6321 279.757 17.9472C278.869 18.3372 278.128 18.9998 277.643 19.8389C277.495 20.0943 277.377 20.3655 277.291 20.6474C277.246 20.7665 277.227 20.894 277.237 21.021C277.246 21.148 277.282 21.2715 277.343 21.383L277.513 21.6215L277.23 21.5407C276.502 21.3419 275.726 21.4332 275.064 21.7953C274.54 22.0895 274.124 22.5425 273.875 23.0889C273.708 23.4508 273.615 23.8424 273.6 24.2409C273.6 24.5198 273.6 24.6734 273.6 24.6774C273.6 24.6815 273.6 24.6411 273.568 24.5683C273.546 24.4605 273.534 24.3509 273.532 24.2409C273.519 23.7168 273.646 23.1989 273.902 22.741C274.157 22.2832 274.53 21.9022 274.983 21.6377C275.684 21.2401 276.513 21.1341 277.291 21.3426L277.178 21.5003C277.096 21.3646 277.047 21.2123 277.033 21.0548C277.019 20.8973 277.041 20.7386 277.097 20.5908C277.186 20.2969 277.309 20.0147 277.465 19.75C277.967 18.874 278.74 18.1846 279.668 17.7855C280.428 17.451 281.267 17.3362 282.089 17.454C282.632 17.528 283.156 17.705 283.633 17.9755C283.763 18.0475 283.887 18.1285 284.005 18.218C284.074 18.2988 284.11 18.3312 284.11 18.3393Z" fill="#455A64"/>
<path d="M295.448 26.4035C295.448 26.4035 295.375 26.5045 295.206 26.6501C294.957 26.8621 294.686 27.0464 294.397 27.1998C293.968 27.4352 293.491 27.5732 293.003 27.604C292.377 27.6508 291.757 27.4619 291.264 27.0745L291.418 27.0502C291.353 27.1432 291.285 27.2402 291.212 27.3372C291.139 27.4342 291.054 27.5191 290.973 27.6121C290.488 28.112 289.887 28.4842 289.223 28.6954C288.686 28.8733 288.118 28.9434 287.554 28.9016C287.175 28.8722 286.803 28.7864 286.45 28.6469C286.32 28.6 286.198 28.5346 286.086 28.4529C286.564 28.6135 287.06 28.714 287.562 28.752C288.111 28.7738 288.659 28.693 289.179 28.5135C289.806 28.2993 290.373 27.9407 290.836 27.4666C290.913 27.3777 290.994 27.2968 291.062 27.2079L291.26 26.9371L291.329 26.84L291.414 26.9128C291.867 27.2707 292.435 27.4504 293.011 27.4181C293.478 27.3954 293.935 27.2742 294.353 27.0624C295.064 26.7147 295.428 26.3711 295.448 26.4035Z" fill="#455A64"/>
<path d="M299.135 32.9033C299.135 32.9033 299.135 32.9478 299.135 33.0327C299.101 33.1525 299.048 33.2658 298.977 33.3682C298.707 33.7511 298.303 34.0182 297.845 34.116C297.172 34.2365 296.479 34.1593 295.848 33.8937C295.473 33.7693 295.104 33.6235 294.745 33.4571C294.33 33.2855 293.988 32.9736 293.779 32.5759C293.779 32.5355 293.751 32.4951 293.734 32.4627L293.9 32.5113C293.275 33.0281 292.574 33.4465 291.822 33.7522C291.197 34.0002 290.516 34.0701 289.854 33.9543C289.409 33.8778 288.991 33.6869 288.641 33.4005C288.547 33.3229 288.461 33.2347 288.387 33.1378C288.338 33.0731 288.314 33.0367 288.322 33.0327C288.33 33.0287 288.443 33.154 288.69 33.3359C289.041 33.5859 289.447 33.7469 289.874 33.8048C290.509 33.8971 291.156 33.8175 291.75 33.5744C292.478 33.27 293.159 32.8615 293.771 32.3617L293.884 32.2728L293.936 32.4102L293.973 32.5072C294.161 32.8589 294.465 33.1346 294.834 33.2874C295.194 33.4612 295.565 33.5986 295.913 33.728C296.51 33.9899 297.168 34.0796 297.813 33.9867C298.243 33.9072 298.631 33.6781 298.908 33.3399C298.995 33.2006 299.071 33.0547 299.135 32.9033Z" fill="#455A64"/>
<path d="M306.685 7.9185C306.685 7.9185 306.564 7.9185 306.354 7.97913C306.048 8.06394 305.775 8.23856 305.57 8.48036C305.248 8.85401 305.061 9.32544 305.04 9.81833C305.031 10.4636 305.118 11.1067 305.299 11.7262L305.327 11.8394H305.21C304.343 11.8154 303.492 12.0736 302.785 12.5751C302.388 12.8517 302.061 13.2172 301.83 13.6425C301.599 14.0677 301.47 14.541 301.455 15.0247C301.433 15.4653 301.513 15.9052 301.689 16.3098C301.865 16.7144 302.132 17.0728 302.469 17.357L302.704 17.543H302.405C301.906 17.5431 301.412 17.6466 300.955 17.847C300.498 18.0473 300.087 18.3402 299.749 18.7071C299.21 19.297 298.891 20.0554 298.848 20.8535C298.815 21.379 298.895 21.9054 299.082 22.3976C299.211 22.7453 299.32 22.915 299.308 22.9272C299.273 22.8914 299.243 22.8506 299.219 22.8059C299.141 22.6852 299.074 22.5581 299.017 22.4259C298.801 21.928 298.699 21.388 298.718 20.8454C298.744 20.0098 299.063 19.2099 299.62 18.5858C299.971 18.1956 300.401 17.8832 300.88 17.6688C301.36 17.4544 301.879 17.3427 302.405 17.3409L302.344 17.5228C301.979 17.2194 301.69 16.8355 301.499 16.4013C301.309 15.967 301.221 15.4944 301.245 15.0206C301.25 14.492 301.389 13.9734 301.649 13.5129C301.903 13.0794 302.246 12.7047 302.655 12.4134C303.399 11.8917 304.294 11.6289 305.202 11.6656L305.113 11.7747C304.936 11.1371 304.859 10.4756 304.887 9.81429C304.918 9.29405 305.129 8.80098 305.485 8.41973C305.708 8.17247 306.004 8.00258 306.33 7.93466C306.413 7.91772 306.499 7.91093 306.584 7.91445C306.657 7.91041 306.685 7.91446 306.685 7.9185Z" fill="#455A64"/>
<path d="M319.148 23.1131C319.148 23.1131 319.111 23.1414 319.035 23.1818C318.958 23.2223 318.841 23.2829 318.683 23.3435C318.23 23.5154 317.755 23.6216 317.272 23.6588C316.529 23.7172 315.781 23.6265 315.073 23.392C314.162 23.0966 313.348 22.5603 312.717 21.8398H312.874C312.542 22.4106 312.086 22.9001 311.541 23.2728C310.995 23.6455 310.374 23.8919 309.721 23.9943C309.019 24.0896 308.304 23.9612 307.679 23.6275C307.053 23.2937 306.549 22.7715 306.237 22.1349H306.419C306.246 22.5972 305.955 23.0058 305.574 23.3193C305.233 23.6027 304.844 23.8231 304.426 23.9701C303.738 24.1929 303.011 24.2673 302.292 24.1883C301.829 24.1459 301.37 24.0703 300.917 23.962C300.755 23.9324 300.595 23.8892 300.44 23.8326C300.605 23.8424 300.769 23.8654 300.93 23.9014C301.383 23.9826 301.84 24.0393 302.3 24.0711C303 24.1271 303.704 24.0405 304.369 23.8165C304.789 23.679 305.173 23.4514 305.495 23.1497C305.816 22.8481 306.068 22.4796 306.233 22.0702L306.318 21.8358L306.415 22.0622C306.713 22.6557 307.19 23.1414 307.777 23.4515C308.365 23.7616 309.035 23.8807 309.693 23.7922C310.315 23.6933 310.907 23.4588 311.429 23.1053C311.95 22.7519 312.387 22.2881 312.708 21.7469L312.777 21.6296L312.866 21.7347C313.472 22.4336 314.254 22.9582 315.13 23.2546C315.814 23.4954 316.54 23.5984 317.264 23.5578C317.911 23.5057 318.546 23.3558 319.148 23.1131Z" fill="#455A64"/>
<path d="M311.787 33.3399C311.787 33.3399 311.787 33.3965 311.706 33.4693C311.593 33.5678 311.451 33.6285 311.302 33.6431C310.772 33.6863 310.24 33.5974 309.754 33.3844C309.02 33.0846 308.398 32.5632 307.975 31.8928C307.461 31.0616 307.279 30.0671 307.466 29.1077V29.0875L307.615 29.2007C306.745 29.6237 305.762 29.7582 304.81 29.5847C304.04 29.4437 303.313 29.1285 302.684 28.6631C302.264 28.3519 301.888 27.9863 301.564 27.5757C301.44 27.4293 301.336 27.2676 301.253 27.0947C301.695 27.6388 302.205 28.125 302.769 28.5418C303.388 28.9752 304.097 29.2652 304.842 29.3907C305.752 29.546 306.687 29.4146 307.518 29.0148L307.708 28.9178L307.672 29.128V29.1482C307.507 29.9728 307.629 30.8292 308.018 31.5749C308.407 32.3206 309.039 32.9107 309.81 33.2469C310.273 33.464 310.779 33.5719 311.29 33.5622C311.383 33.5599 311.475 33.539 311.561 33.5008C311.646 33.4627 311.723 33.408 311.787 33.3399Z" fill="#455A64"/>
<path d="M291.386 8.15698C291.149 8.84819 291.041 9.57711 291.067 10.3074C291.131 11.4648 291.613 12.5597 292.422 13.3897C293.231 14.2197 294.313 14.7287 295.469 14.8226H295.598L295.558 14.9479C295.147 16.2724 295.196 17.6965 295.695 18.9901C295.772 19.2063 295.867 19.4158 295.978 19.6166C296.014 19.6898 296.066 19.7538 296.13 19.8036C296.195 19.8534 296.27 19.8876 296.35 19.9036C296.4 19.91 296.45 19.9057 296.498 19.891C296.546 19.8764 296.591 19.8518 296.629 19.8187C296.677 19.7662 296.689 19.7257 296.697 19.7298C296.706 19.7338 296.697 19.7743 296.657 19.843C296.619 19.8881 296.57 19.9234 296.515 19.9459C296.46 19.9684 296.401 19.9774 296.342 19.9723C296.248 19.9627 296.159 19.9304 296.08 19.8783C296.002 19.8262 295.938 19.7558 295.893 19.6732C295.767 19.4726 295.659 19.2616 295.57 19.0426C295.02 17.725 294.947 16.2569 295.364 14.8913L295.452 15.0247C294.874 14.9826 294.307 14.8375 293.779 14.5962C292.944 14.2285 292.23 13.63 291.723 12.871C291.217 12.112 290.937 11.224 290.917 10.3115C290.897 9.76341 290.974 9.21613 291.143 8.6946C291.19 8.55631 291.245 8.42127 291.309 8.29038C291.328 8.24241 291.354 8.19747 291.386 8.15698Z" fill="#455A64"/>
<path d="M296.176 48.4374V47.3218L284.963 43.7283C280.965 42.0184 275.262 43.0088 271.915 45.0743L269.008 45.1511L269.037 45.1067C265.71 42.4833 260.103 41.9538 255.754 43.8496L255.859 44.3144C255.859 44.3427 255.887 44.4114 255.908 44.5084L256.005 44.9127C256.591 47.4916 257.282 50.2201 257.973 50.9517C258.438 51.4448 259.994 51.7157 261.28 51.8531C261.765 51.9097 262.209 51.942 262.529 51.9663C262.913 51.9905 266.32 52.2048 266.902 51.6793C267.484 51.1538 268.616 46.9499 268.923 45.6847L271.902 45.62C272.258 46.6185 272.865 51.0972 274.295 51.9986C275.726 52.9 282 52.6292 282.711 51.5944C283.217 50.8547 284.967 46.4608 285.363 45.0743L285.424 44.9531L296.176 48.4374ZM266.567 51.267C265.932 51.7682 259.145 51.4165 258.341 50.5677C257.662 49.8482 256.825 46.1698 256.51 44.7873V44.7308C260.39 43.2554 265.443 43.7243 268.337 45.9434C267.763 48.1262 266.931 50.9274 266.567 51.2549V51.267ZM282.295 51.267C281.85 51.9218 276.054 52.4554 274.578 51.5257C273.552 50.883 273.01 47.7543 272.557 45.9596C275.827 44.0032 281.418 43.1786 284.967 44.941C284.268 47.1231 283.374 49.2376 282.295 51.2589V51.267Z" fill="#263238"/>
<g opacity="0.3">
<path d="M273.144 46.3194C273.144 46.3194 273.754 50.7051 275.015 50.9072C276.276 51.1093 277.78 44.4842 277.78 44.4842C277.78 44.4842 273.944 45.2441 273.144 46.3194Z" fill="white"/>
</g>
<g opacity="0.3">
<path d="M256.995 44.9127C256.995 44.9127 257.605 49.8926 258.866 50.0948C260.127 50.2969 262.662 44.2295 262.662 44.2295C262.662 44.2295 257.795 43.8374 256.995 44.9127Z" fill="white"/>
</g>
<path d="M295.881 126.048C294.547 124.645 290.307 121.116 289.053 120.619C287.8 120.122 283.9 129.285 283.649 131.686C283.398 134.088 284.757 137.24 286.446 139.346C288.872 142.354 294.688 146.044 296.895 147.071C299.102 148.098 305.384 151.691 309.184 143.611C312.983 135.531 312.498 135.595 313.569 132.264C315.223 127.107 316.593 116.936 317.426 110.748C318.135 105.093 318.366 99.3879 318.117 93.6939C317.85 88.6856 316.443 84.1785 313.076 81.0782C310.247 78.471 300.804 101.317 300.804 101.52C300.804 101.722 296.455 125.999 296.455 125.999" fill="#455A64"/>
<path d="M264.655 96.5679C264.655 96.5679 263.75 95.0157 267.028 94.5468C270.306 94.0779 272.663 94.6074 273.398 94.9227C274.134 95.238 278.249 99.1145 278.572 99.8663C279.462 101.887 280.949 108.011 280.949 108.011L282.97 110.869L278.221 119.394C277.783 118.883 277.309 118.405 276.802 117.963C276.09 117.365 273.952 116.654 273.52 114.863C273.087 113.415 272.503 112.017 271.777 110.691C271.777 110.691 263.806 108.965 263.099 108.606C262.391 108.246 262.444 107.175 262.444 107.175C261.608 107.083 260.779 106.938 259.962 106.742C259.525 106.564 258.511 105.125 260.205 104.369C261.898 103.613 267.521 103.181 268.289 103.181C269.057 103.181 272.711 103.658 272.711 103.658C272.711 103.658 267.909 102.575 266.438 102.445C264.966 102.316 261.64 102.401 261.106 102.279C260.439 102.126 259.998 100.558 261.247 99.9876C262.759 99.2964 265.172 99.0821 265.722 99.0619C267.852 98.9851 272.962 99.7693 272.962 99.7693L271.118 97.7199C269.619 97.4472 268.102 97.2811 266.579 97.2227C265.886 97.2068 265.214 96.9782 264.655 96.5679Z" fill="#FFBF9D"/>
<path d="M276.025 116.969L289.385 136.962C289.385 136.962 295.044 130.053 295.448 125.025L295.699 122.555L280.743 108.003L276.025 116.969Z" fill="#FFBF9D"/>
<path d="M272.21 107.211C271.723 107.184 271.239 107.132 270.759 107.053C269.869 106.948 268.632 106.839 267.262 106.815C265.892 106.791 264.651 106.867 263.757 106.944C263.275 107.009 262.789 107.048 262.302 107.061C262.424 107.013 262.552 106.981 262.682 106.964C262.933 106.912 263.293 106.855 263.741 106.799C264.91 106.651 266.088 106.586 267.266 106.605C268.442 106.625 269.616 106.724 270.779 106.904C271.227 106.977 271.587 107.045 271.83 107.102C271.961 107.122 272.088 107.158 272.21 107.211Z" fill="#FF9A6C"/>
<path d="M304.244 124.415C304.07 124.324 303.905 124.217 303.751 124.095L302.458 123.166C301.37 122.357 299.875 121.262 298.233 120.029C297.481 119.428 296.668 118.906 295.808 118.473C295.431 118.302 295.038 118.167 294.636 118.068C294.286 117.974 293.927 117.914 293.565 117.89C293.043 117.846 292.521 117.968 292.073 118.238C291.762 118.436 291.624 118.598 291.608 118.586C291.592 118.574 291.637 118.537 291.701 118.46C291.799 118.352 291.909 118.254 292.029 118.169C292.481 117.858 293.025 117.707 293.573 117.741C293.945 117.757 294.315 117.81 294.676 117.899C295.093 117.993 295.499 118.128 295.889 118.303C296.761 118.733 297.584 119.258 298.343 119.867C299.988 121.104 301.467 122.228 302.53 123.052L303.787 124.039C303.952 124.149 304.105 124.275 304.244 124.415Z" fill="#263238"/>
<path d="M310.687 124.455C310.659 124.483 310.19 123.938 309.325 123.19C308.812 122.752 308.272 122.347 307.708 121.977C306.343 121.072 304.842 120.389 303.262 119.956C302.615 119.78 301.957 119.645 301.293 119.552C300.153 119.39 299.438 119.394 299.438 119.354C299.605 119.325 299.774 119.315 299.943 119.325C300.14 119.314 300.337 119.314 300.533 119.325C300.76 119.325 301.023 119.346 301.31 119.386C301.991 119.461 302.667 119.585 303.331 119.758C304.134 119.975 304.919 120.255 305.679 120.595C306.434 120.943 307.161 121.348 307.854 121.807C308.415 122.191 308.949 122.613 309.45 123.073C309.669 123.263 309.855 123.457 310.008 123.618C310.15 123.757 310.285 123.902 310.413 124.055C310.519 124.177 310.611 124.312 310.687 124.455Z" fill="#263238"/>
<path d="M308.428 81.2197C308.285 81.3901 308.129 81.5495 307.963 81.6966C307.805 81.8422 307.619 82.0241 307.413 82.2504C307.207 82.4768 306.956 82.7112 306.714 83.0104C306.471 83.3095 306.188 83.6126 305.905 83.9724C305.622 84.3322 305.352 84.7202 305.06 85.1325C303.837 86.9561 302.909 88.9615 302.312 91.0745C302.186 91.5636 302.057 92.0244 301.976 92.4691C301.895 92.9137 301.811 93.322 301.754 93.6817C301.697 94.0415 301.661 94.4053 301.629 94.7085C301.596 95.0116 301.572 95.2703 301.56 95.4846C301.557 95.7081 301.537 95.9311 301.499 96.1515C301.474 95.9288 301.467 95.7044 301.479 95.4805C301.479 95.2663 301.479 95.0035 301.511 94.6963C301.544 94.3891 301.548 94.0455 301.604 93.6615C301.661 93.2775 301.709 92.8531 301.802 92.4166C301.895 91.98 302.005 91.503 302.126 91.0058C302.708 88.8645 303.647 86.8365 304.903 85.0072C305.198 84.603 305.477 84.1988 305.768 83.8511C306.059 83.5035 306.33 83.1761 306.576 82.8931C306.823 82.6102 307.086 82.3636 307.304 82.1494C307.487 81.963 307.68 81.7863 307.882 81.6198C308.052 81.4714 308.235 81.3376 308.428 81.2197Z" fill="#263238"/>
<path d="M295.881 126.048C294.547 124.645 290.307 121.116 289.053 120.619C287.8 120.122 283.9 129.285 283.649 131.686C283.398 134.088 284.757 137.24 286.446 139.346C288.872 142.354 294.688 146.044 296.895 147.071C299.102 148.098 305.384 151.691 309.184 143.611C312.983 135.531 312.498 135.595 313.569 132.264C315.223 127.107 316.593 116.936 317.426 110.748C318.135 105.093 318.366 99.3879 318.117 93.6939C317.85 88.6856 316.443 84.1785 313.076 81.0782C310.247 78.471 300.804 101.317 300.804 101.52C300.804 101.722 296.455 125.999 296.455 125.999" fill="#455A64"/>
<path d="M264.655 96.5679C264.655 96.5679 263.75 95.0157 267.028 94.5468C270.306 94.0779 272.663 94.6074 273.398 94.9227C274.134 95.238 278.249 99.1145 278.572 99.8663C279.462 101.887 280.949 108.011 280.949 108.011L282.97 110.869L278.221 119.394C277.783 118.883 277.309 118.405 276.802 117.963C276.09 117.365 273.952 116.654 273.52 114.863C273.087 113.415 272.503 112.017 271.777 110.691C271.777 110.691 263.806 108.965 263.099 108.606C262.391 108.246 262.444 107.175 262.444 107.175C261.608 107.083 260.779 106.938 259.962 106.742C259.525 106.564 258.511 105.125 260.205 104.369C261.898 103.613 267.521 103.181 268.289 103.181C269.057 103.181 272.711 103.658 272.711 103.658C272.711 103.658 267.909 102.575 266.438 102.445C264.966 102.316 261.64 102.401 261.106 102.279C260.439 102.126 259.998 100.558 261.247 99.9876C262.759 99.2964 265.172 99.0821 265.722 99.0619C267.852 98.9851 272.962 99.7693 272.962 99.7693L271.118 97.7199C269.619 97.4472 268.102 97.2811 266.579 97.2227C265.886 97.2068 265.214 96.9782 264.655 96.5679Z" fill="#FFBF9D"/>
<path d="M276.025 116.969L289.385 136.962C289.385 136.962 295.044 130.053 295.448 125.025L295.699 122.555L280.743 108.003L276.025 116.969Z" fill="#FFBF9D"/>
<path d="M272.21 107.211C271.723 107.184 271.239 107.132 270.759 107.053C269.869 106.948 268.632 106.839 267.262 106.815C265.892 106.791 264.651 106.867 263.757 106.944C263.275 107.009 262.789 107.048 262.302 107.061C262.424 107.013 262.552 106.981 262.682 106.964C262.933 106.912 263.293 106.855 263.741 106.799C264.91 106.651 266.088 106.586 267.266 106.605C268.442 106.625 269.616 106.724 270.779 106.904C271.227 106.977 271.587 107.045 271.83 107.102C271.961 107.122 272.088 107.158 272.21 107.211Z" fill="#FF9A6C"/>
<path d="M304.244 124.415C304.07 124.324 303.905 124.217 303.751 124.095L302.458 123.166C301.37 122.357 299.875 121.262 298.233 120.029C297.481 119.428 296.668 118.906 295.808 118.473C295.431 118.302 295.038 118.167 294.636 118.068C294.286 117.974 293.927 117.914 293.565 117.89C293.043 117.846 292.521 117.968 292.073 118.238C291.762 118.436 291.624 118.598 291.608 118.586C291.592 118.574 291.637 118.537 291.701 118.46C291.799 118.352 291.909 118.254 292.029 118.169C292.481 117.858 293.025 117.707 293.573 117.741C293.945 117.757 294.315 117.81 294.676 117.899C295.093 117.993 295.499 118.128 295.889 118.303C296.761 118.733 297.584 119.258 298.343 119.867C299.988 121.104 301.467 122.228 302.53 123.052L303.787 124.039C303.952 124.149 304.105 124.275 304.244 124.415Z" fill="#263238"/>
<path d="M300.804 101.532C300.808 101.64 300.801 101.748 300.784 101.855C300.76 102.089 300.724 102.397 300.683 102.785C300.582 103.613 300.441 104.778 300.279 106.2L298.836 117.458C298.719 118.343 298.605 119.208 298.496 120.037L298.395 119.92C302.235 119.92 305.578 120.882 307.692 122.058C308.532 122.502 309.308 123.057 310 123.707C310.188 123.881 310.364 124.066 310.53 124.261C310.592 124.324 310.648 124.393 310.696 124.467C310.696 124.467 310.441 124.204 309.948 123.764C309.243 123.142 308.464 122.609 307.628 122.179C305.518 121.047 302.203 120.13 298.395 120.126H298.258V120.009C298.367 119.18 298.48 118.315 298.593 117.43C299.179 113.048 299.709 109.078 300.097 106.184C300.299 104.761 300.461 103.601 300.578 102.777C300.635 102.372 300.683 102.081 300.72 101.851C300.737 101.742 300.765 101.635 300.804 101.532Z" fill="#263238"/>
<path d="M308.428 81.2197C308.285 81.3901 308.129 81.5495 307.963 81.6966C307.805 81.8422 307.619 82.0241 307.413 82.2504C307.207 82.4768 306.956 82.7112 306.714 83.0104C306.471 83.3095 306.188 83.6126 305.905 83.9724C305.622 84.3322 305.352 84.7202 305.06 85.1325C303.837 86.9561 302.909 88.9615 302.312 91.0745C302.186 91.5636 302.057 92.0244 301.976 92.4691C301.895 92.9137 301.811 93.322 301.754 93.6817C301.697 94.0415 301.661 94.4053 301.629 94.7085C301.596 95.0116 301.572 95.2703 301.56 95.4846C301.557 95.7081 301.537 95.9311 301.499 96.1515C301.474 95.9288 301.467 95.7044 301.479 95.4805C301.479 95.2663 301.479 95.0035 301.511 94.6963C301.544 94.3891 301.548 94.0455 301.604 93.6615C301.661 93.2775 301.709 92.8531 301.802 92.4166C301.895 91.98 302.005 91.503 302.126 91.0058C302.708 88.8645 303.647 86.8365 304.903 85.0072C305.198 84.603 305.477 84.1988 305.768 83.8511C306.059 83.5035 306.33 83.1761 306.576 82.8931C306.823 82.6102 307.086 82.3636 307.304 82.1494C307.487 81.963 307.68 81.7863 307.882 81.6198C308.052 81.4714 308.235 81.3376 308.428 81.2197Z" fill="#263238"/>
<path d="M238.202 111.754C238.202 111.754 234.779 103.29 235.442 100.436C235.483 100.266 235.581 100.114 235.718 100.006C235.856 99.8976 236.026 99.8384 236.202 99.838C236.343 99.8362 236.482 99.8729 236.603 99.9441C236.725 100.015 236.825 100.118 236.893 100.242L241.339 108.816C241.339 108.816 241.929 107.247 243.211 106.698C244.569 106.196 245.952 105.763 247.354 105.4L251.372 105.901C251.528 105.92 251.675 105.982 251.798 106.08C251.92 106.178 252.013 106.308 252.066 106.455C252.119 106.603 252.13 106.763 252.097 106.916C252.064 107.069 251.99 107.211 251.881 107.324C251.223 107.941 250.358 108.291 249.456 108.306C246.541 108.549 245.782 109.22 245.782 109.22L244.326 111.726C244.326 111.726 247.398 109.624 248.369 109.543C249.124 109.483 253.308 109.394 255.123 109.357C255.459 109.347 255.789 109.444 256.066 109.633C256.342 109.823 256.552 110.096 256.663 110.412C256.853 110.99 256.72 111.625 255.426 111.969C255.426 111.969 256.845 112.704 254.917 113.666C253.741 114.24 252.526 114.726 251.279 115.122L248.53 116.977L243.926 120.211L238.514 116.496C238.514 116.496 236.586 114.451 237.786 112.741C237.964 112.43 238.104 112.099 238.202 111.754Z" fill="#FFBF9D"/>
<path d="M251.619 114.544C251.619 114.544 254.198 116.742 254.764 118.117C255.33 119.491 255.815 120.886 254.929 124.2C254.044 127.515 246.631 124.2 246.631 124.2C246.425 122.842 244.767 121.209 242.916 119.536L249.836 114.422L251.619 114.544Z" fill="#FFBF9D"/>
<path d="M242.071 107.643C241.957 107.88 241.822 108.106 241.667 108.319C241.396 108.723 241.04 109.301 240.652 109.935C239.88 111.221 239.226 112.248 239.169 112.211C239.255 111.958 239.372 111.716 239.517 111.492C239.751 111.059 240.082 110.469 240.471 109.826C241.218 108.537 242.015 107.595 242.071 107.643Z" fill="#FF9A6C"/>
<path d="M255.527 111.912C255.396 111.952 255.26 111.974 255.123 111.977L253.999 112.07C253.05 112.142 251.732 112.215 250.289 112.3C248.801 112.3 247.799 113.286 247.055 113.856C246.672 114.206 246.267 114.53 245.842 114.826C245.923 114.714 246.017 114.611 246.121 114.519C246.311 114.333 246.59 114.063 246.93 113.743C247.344 113.362 247.787 113.013 248.255 112.7C248.538 112.513 248.845 112.366 249.169 112.264C249.518 112.172 249.876 112.114 250.236 112.09C251.691 112.005 253.001 111.952 253.955 111.92C254.428 111.92 254.816 111.896 255.083 111.896C255.231 111.881 255.381 111.887 255.527 111.912Z" fill="#FF9A6C"/>
<path d="M244.496 111.775C244.533 111.823 244.294 112.058 244.052 112.389C243.809 112.721 243.647 113.02 243.599 112.999C243.55 112.979 243.599 112.623 243.882 112.264C244.165 111.904 244.448 111.726 244.496 111.775Z" fill="#FF9A6C"/>
<path d="M254.667 113.877C254.451 114.023 254.216 114.137 253.967 114.216C253.527 114.394 252.904 114.62 252.221 114.855C250.855 115.332 249.796 115.837 249.768 115.784C250.501 115.293 251.304 114.913 252.148 114.657C252.836 114.41 253.466 114.216 253.919 114.075C254.159 113.978 254.41 113.911 254.667 113.877Z" fill="#FF9A6C"/>
</g>
<defs>
<filter id="filter0_d_141_365" x="207" y="0" width="119.077" height="164.766" filterUnits="userSpaceOnUse" color-interpolation-filters="sRGB">
<feFlood flood-opacity="0" result="BackgroundImageFix"/>
<feColorMatrix in="SourceAlpha" type="matrix" values="0 0 0 0 0 0 0 0 0 0 0 0 0 0 0 0 0 0 127 0" result="hardAlpha"/>
<feOffset/>
<feGaussianBlur stdDeviation="2"/>
<feComposite in2="hardAlpha" operator="out"/>
<feColorMatrix type="matrix" values="0 0 0 0 0 0 0 0 0 0 0 0 0 0 0 0 0 0 0.3 0"/>
<feBlend mode="normal" in2="BackgroundImageFix" result="effect1_dropShadow_141_365"/>
<feBlend mode="normal" in="SourceGraphic" in2="effect1_dropShadow_141_365" result="shape"/>
</filter>
<clipPath id="clip0_141_365">
<rect y="20.766" width="335" height="140" rx="20" fill="white"/>
</clipPath>
</defs>
</svg>
