<svg width="335" height="165" viewBox="0 0 335 165" fill="none" xmlns="http://www.w3.org/2000/svg">
<g clip-path="url(#clip0_352_7649)">
<rect y="21" width="335" height="140" rx="20" fill="#FFBF23"/>
<circle cx="249.5" cy="91.5" r="102.5" fill="#FCCA50"/>
<path d="M18 130C17.4477 130 17 130.448 17 131C17 131.552 17.4477 132 18 132V130ZM41.7071 131.707C42.0976 131.317 42.0976 130.683 41.7071 130.293L35.3431 123.929C34.9526 123.538 34.3195 123.538 33.9289 123.929C33.5384 124.319 33.5384 124.953 33.9289 125.343L39.5858 131L33.9289 136.657C33.5384 137.047 33.5384 137.681 33.9289 138.071C34.3195 138.462 34.9526 138.462 35.3431 138.071L41.7071 131.707ZM18 132H41V130H18V132Z" fill="black"/>
<path d="M19.168 60V48.8H26.224V50.368H20.896V53.584H25.776V55.152H20.896V58.432H26.304V60H19.168ZM28.1535 60V52.112H29.7695V53.296H30.0255C30.1748 52.976 30.4415 52.6773 30.8255 52.4C31.2095 52.1227 31.7802 51.984 32.5375 51.984C33.1348 51.984 33.6628 52.1173 34.1215 52.384C34.5908 52.6507 34.9588 53.0293 35.2255 53.52C35.4922 54 35.6255 54.5813 35.6255 55.264V60H33.9775V55.392C33.9775 54.7093 33.8068 54.208 33.4655 53.888C33.1242 53.5573 32.6548 53.392 32.0575 53.392C31.3748 53.392 30.8255 53.616 30.4095 54.064C30.0042 54.512 29.8015 55.1627 29.8015 56.016V60H28.1535ZM37.6133 56.096V55.856C37.6133 55.024 37.7786 54.3147 38.1093 53.728C38.4506 53.1413 38.8986 52.688 39.4533 52.368C40.0079 52.048 40.6159 51.888 41.2773 51.888C42.0453 51.888 42.6319 52.032 43.0373 52.32C43.4533 52.608 43.7573 52.9173 43.9493 53.248H44.2053V52.112H45.8053V61.616C45.8053 62.096 45.6613 62.48 45.3733 62.768C45.0959 63.056 44.7119 63.2 44.2213 63.2H38.9093V61.76H43.7093C44.0186 61.76 44.1733 61.6 44.1733 61.28V58.768H43.9173C43.7999 58.96 43.6346 59.1573 43.4213 59.36C43.2079 59.5627 42.9253 59.728 42.5733 59.856C42.2319 59.984 41.7999 60.048 41.2773 60.048C40.6159 60.048 40.0026 59.8933 39.4373 59.584C38.8826 59.264 38.4399 58.8107 38.1093 58.224C37.7786 57.6267 37.6133 56.9173 37.6133 56.096ZM41.7253 58.608C42.4399 58.608 43.0266 58.384 43.4853 57.936C43.9546 57.4773 44.1893 56.848 44.1893 56.048V55.904C44.1893 55.0827 43.9599 54.4533 43.5013 54.016C43.0426 53.568 42.4506 53.344 41.7253 53.344C41.0213 53.344 40.4346 53.568 39.9653 54.016C39.5066 54.4533 39.2773 55.0827 39.2773 55.904V56.048C39.2773 56.848 39.5066 57.4773 39.9653 57.936C40.4346 58.384 41.0213 58.608 41.7253 58.608ZM50.6796 60.224C50.1143 60.224 49.6076 60.128 49.1596 59.936C48.7223 59.744 48.3703 59.4613 48.1036 59.088C47.8476 58.7147 47.7196 58.2613 47.7196 57.728C47.7196 57.184 47.8476 56.736 48.1036 56.384C48.3703 56.0213 48.7276 55.7493 49.1756 55.568C49.6343 55.3867 50.1516 55.296 50.7276 55.296H53.1276V54.784C53.1276 54.3253 52.989 53.9573 52.7116 53.68C52.4343 53.4027 52.0076 53.264 51.4316 53.264C50.8663 53.264 50.4343 53.3973 50.1356 53.664C49.837 53.9307 49.6396 54.2773 49.5436 54.704L48.0076 54.208C48.1356 53.7813 48.3383 53.3973 48.6156 53.056C48.9036 52.704 49.2823 52.4213 49.7516 52.208C50.221 51.9947 50.7863 51.888 51.4476 51.888C52.4716 51.888 53.277 52.1493 53.8636 52.672C54.4503 53.1947 54.7436 53.936 54.7436 54.896V58.144C54.7436 58.464 54.893 58.624 55.1916 58.624H55.8636V60H54.6316C54.2583 60 53.9543 59.904 53.7196 59.712C53.485 59.52 53.3676 59.2587 53.3676 58.928V58.88H53.1276C53.0423 59.04 52.9143 59.2267 52.7436 59.44C52.573 59.6533 52.3223 59.84 51.9916 60C51.661 60.1493 51.2236 60.224 50.6796 60.224ZM50.9196 58.864C51.581 58.864 52.1143 58.6773 52.5196 58.304C52.925 57.92 53.1276 57.3973 53.1276 56.736V56.576H50.8236C50.3863 56.576 50.0343 56.672 49.7676 56.864C49.501 57.0453 49.3676 57.3173 49.3676 57.68C49.3676 58.0427 49.5063 58.3307 49.7836 58.544C50.061 58.7573 50.4396 58.864 50.9196 58.864ZM56.8945 56.096V55.856C56.8945 55.024 57.0598 54.3147 57.3905 53.728C57.7318 53.1413 58.1798 52.688 58.7345 52.368C59.2892 52.048 59.8972 51.888 60.5585 51.888C61.3265 51.888 61.9132 52.032 62.3185 52.32C62.7345 52.608 63.0385 52.9173 63.2305 53.248H63.4865V52.112H65.0865V61.616C65.0865 62.096 64.9425 62.48 64.6545 62.768C64.3772 63.056 63.9932 63.2 63.5025 63.2H58.1905V61.76H62.9905C63.2998 61.76 63.4545 61.6 63.4545 61.28V58.768H63.1985C63.0812 58.96 62.9158 59.1573 62.7025 59.36C62.4892 59.5627 62.2065 59.728 61.8545 59.856C61.5132 59.984 61.0812 60.048 60.5585 60.048C59.8972 60.048 59.2838 59.8933 58.7185 59.584C58.1638 59.264 57.7212 58.8107 57.3905 58.224C57.0598 57.6267 56.8945 56.9173 56.8945 56.096ZM61.0065 58.608C61.7212 58.608 62.3078 58.384 62.7665 57.936C63.2358 57.4773 63.4705 56.848 63.4705 56.048V55.904C63.4705 55.0827 63.2412 54.4533 62.7825 54.016C62.3238 53.568 61.7318 53.344 61.0065 53.344C60.3025 53.344 59.7158 53.568 59.2465 54.016C58.7878 54.4533 58.5585 55.0827 58.5585 55.904V56.048C58.5585 56.848 58.7878 57.4773 59.2465 57.936C59.7158 58.384 60.3025 58.608 61.0065 58.608ZM71.1289 60.224C70.3289 60.224 69.6302 60.0587 69.0329 59.728C68.4355 59.3867 67.9662 58.912 67.6249 58.304C67.2942 57.6853 67.1289 56.9707 67.1289 56.16V55.968C67.1289 55.1467 67.2942 54.432 67.6249 53.824C67.9555 53.2053 68.4142 52.7307 69.0009 52.4C69.5982 52.0587 70.2862 51.888 71.0649 51.888C71.8222 51.888 72.4835 52.0587 73.0489 52.4C73.6249 52.7307 74.0729 53.1947 74.3929 53.792C74.7129 54.3893 74.8729 55.088 74.8729 55.888V56.512H68.8089C68.8302 57.2053 69.0595 57.76 69.4969 58.176C69.9449 58.5813 70.4995 58.784 71.1609 58.784C71.7795 58.784 72.2435 58.6453 72.5529 58.368C72.8729 58.0907 73.1182 57.7707 73.2889 57.408L74.6489 58.112C74.4995 58.4107 74.2809 58.7253 73.9929 59.056C73.7155 59.3867 73.3475 59.664 72.8889 59.888C72.4302 60.112 71.8435 60.224 71.1289 60.224ZM68.8249 55.248H73.1929C73.1502 54.6507 72.9369 54.1867 72.5529 53.856C72.1689 53.5147 71.6675 53.344 71.0489 53.344C70.4302 53.344 69.9235 53.5147 69.5289 53.856C69.1449 54.1867 68.9102 54.6507 68.8249 55.248ZM80.9348 60V52.112H82.5828V60H80.9348ZM81.7668 51.04C81.4468 51.04 81.1748 50.9387 80.9508 50.736C80.7374 50.5227 80.6308 50.2507 80.6308 49.92C80.6308 49.5893 80.7374 49.3227 80.9508 49.12C81.1748 48.9067 81.4468 48.8 81.7668 48.8C82.0974 48.8 82.3694 48.9067 82.5828 49.12C82.7961 49.3227 82.9028 49.5893 82.9028 49.92C82.9028 50.2507 82.7961 50.5227 82.5828 50.736C82.3694 50.9387 82.0974 51.04 81.7668 51.04ZM85.0285 60V52.112H86.6445V53.296H86.9005C87.0498 52.976 87.3165 52.6773 87.7005 52.4C88.0845 52.1227 88.6552 51.984 89.4125 51.984C90.0098 51.984 90.5378 52.1173 90.9965 52.384C91.4658 52.6507 91.8338 53.0293 92.1005 53.52C92.3672 54 92.5005 54.5813 92.5005 55.264V60H90.8525V55.392C90.8525 54.7093 90.6818 54.208 90.3405 53.888C89.9992 53.5573 89.5298 53.392 88.9325 53.392C88.2498 53.392 87.7005 53.616 87.2845 54.064C86.8792 54.512 86.6765 55.1627 86.6765 56.016V60H85.0285ZM98.9504 60V48.8H100.598V60H98.9504ZM106.66 60.224C105.86 60.224 105.161 60.0587 104.564 59.728C103.967 59.3867 103.497 58.912 103.156 58.304C102.825 57.6853 102.66 56.9707 102.66 56.16V55.968C102.66 55.1467 102.825 54.432 103.156 53.824C103.487 53.2053 103.945 52.7307 104.532 52.4C105.129 52.0587 105.817 51.888 106.596 51.888C107.353 51.888 108.015 52.0587 108.58 52.4C109.156 52.7307 109.604 53.1947 109.924 53.792C110.244 54.3893 110.404 55.088 110.404 55.888V56.512H104.34C104.361 57.2053 104.591 57.76 105.028 58.176C105.476 58.5813 106.031 58.784 106.692 58.784C107.311 58.784 107.775 58.6453 108.084 58.368C108.404 58.0907 108.649 57.7707 108.82 57.408L110.18 58.112C110.031 58.4107 109.812 58.7253 109.524 59.056C109.247 59.3867 108.879 59.664 108.42 59.888C107.961 60.112 107.375 60.224 106.66 60.224ZM104.356 55.248H108.724C108.681 54.6507 108.468 54.1867 108.084 53.856C107.7 53.5147 107.199 53.344 106.58 53.344C105.961 53.344 105.455 53.5147 105.06 53.856C104.676 54.1867 104.441 54.6507 104.356 55.248ZM114.836 60.224C114.271 60.224 113.764 60.128 113.316 59.936C112.879 59.744 112.527 59.4613 112.26 59.088C112.004 58.7147 111.876 58.2613 111.876 57.728C111.876 57.184 112.004 56.736 112.26 56.384C112.527 56.0213 112.884 55.7493 113.332 55.568C113.791 55.3867 114.308 55.296 114.884 55.296H117.284V54.784C117.284 54.3253 117.145 53.9573 116.868 53.68C116.591 53.4027 116.164 53.264 115.588 53.264C115.023 53.264 114.591 53.3973 114.292 53.664C113.993 53.9307 113.796 54.2773 113.7 54.704L112.164 54.208C112.292 53.7813 112.495 53.3973 112.772 53.056C113.06 52.704 113.439 52.4213 113.908 52.208C114.377 51.9947 114.943 51.888 115.604 51.888C116.628 51.888 117.433 52.1493 118.02 52.672C118.607 53.1947 118.9 53.936 118.9 54.896V58.144C118.9 58.464 119.049 58.624 119.348 58.624H120.02V60H118.788C118.415 60 118.111 59.904 117.876 59.712C117.641 59.52 117.524 59.2587 117.524 58.928V58.88H117.284C117.199 59.04 117.071 59.2267 116.9 59.44C116.729 59.6533 116.479 59.84 116.148 60C115.817 60.1493 115.38 60.224 114.836 60.224ZM115.076 58.864C115.737 58.864 116.271 58.6773 116.676 58.304C117.081 57.92 117.284 57.3973 117.284 56.736V56.576H114.98C114.543 56.576 114.191 56.672 113.924 56.864C113.657 57.0453 113.524 57.3173 113.524 57.68C113.524 58.0427 113.663 58.3307 113.94 58.544C114.217 58.7573 114.596 58.864 115.076 58.864ZM121.622 60V52.112H123.238V53.04H123.494C123.622 52.7093 123.825 52.4693 124.102 52.32C124.39 52.16 124.742 52.08 125.158 52.08H126.102V53.568H125.094C124.561 53.568 124.124 53.7173 123.782 54.016C123.441 54.304 123.27 54.752 123.27 55.36V60H121.622ZM127.81 60V52.112H129.426V53.296H129.682C129.831 52.976 130.098 52.6773 130.482 52.4C130.866 52.1227 131.436 51.984 132.194 51.984C132.791 51.984 133.319 52.1173 133.778 52.384C134.247 52.6507 134.615 53.0293 134.882 53.52C135.148 54 135.282 54.5813 135.282 55.264V60H133.634V55.392C133.634 54.7093 133.463 54.208 133.122 53.888C132.78 53.5573 132.311 53.392 131.714 53.392C131.031 53.392 130.482 53.616 130.066 54.064C129.66 54.512 129.458 55.1627 129.458 56.016V60H127.81ZM137.654 60V52.112H139.302V60H137.654ZM138.486 51.04C138.166 51.04 137.894 50.9387 137.67 50.736C137.456 50.5227 137.35 50.2507 137.35 49.92C137.35 49.5893 137.456 49.3227 137.67 49.12C137.894 48.9067 138.166 48.8 138.486 48.8C138.816 48.8 139.088 48.9067 139.302 49.12C139.515 49.3227 139.622 49.5893 139.622 49.92C139.622 50.2507 139.515 50.5227 139.302 50.736C139.088 50.9387 138.816 51.04 138.486 51.04ZM141.747 60V52.112H143.363V53.296H143.619C143.769 52.976 144.035 52.6773 144.419 52.4C144.803 52.1227 145.374 51.984 146.131 51.984C146.729 51.984 147.257 52.1173 147.715 52.384C148.185 52.6507 148.553 53.0293 148.819 53.52C149.086 54 149.219 54.5813 149.219 55.264V60H147.571V55.392C147.571 54.7093 147.401 54.208 147.059 53.888C146.718 53.5573 146.249 53.392 145.651 53.392C144.969 53.392 144.419 53.616 144.003 54.064C143.598 54.512 143.395 55.1627 143.395 56.016V60H141.747ZM151.207 56.096V55.856C151.207 55.024 151.372 54.3147 151.703 53.728C152.044 53.1413 152.492 52.688 153.047 52.368C153.602 52.048 154.21 51.888 154.871 51.888C155.639 51.888 156.226 52.032 156.631 52.32C157.047 52.608 157.351 52.9173 157.543 53.248H157.799V52.112H159.399V61.616C159.399 62.096 159.255 62.48 158.967 62.768C158.69 63.056 158.306 63.2 157.815 63.2H152.503V61.76H157.303C157.612 61.76 157.767 61.6 157.767 61.28V58.768H157.511C157.394 58.96 157.228 59.1573 157.015 59.36C156.802 59.5627 156.519 59.728 156.167 59.856C155.826 59.984 155.394 60.048 154.871 60.048C154.21 60.048 153.596 59.8933 153.031 59.584C152.476 59.264 152.034 58.8107 151.703 58.224C151.372 57.6267 151.207 56.9173 151.207 56.096ZM155.319 58.608C156.034 58.608 156.62 58.384 157.079 57.936C157.548 57.4773 157.783 56.848 157.783 56.048V55.904C157.783 55.0827 157.554 54.4533 157.095 54.016C156.636 53.568 156.044 53.344 155.319 53.344C154.615 53.344 154.028 53.568 153.559 54.016C153.1 54.4533 152.871 55.0827 152.871 55.904V56.048C152.871 56.848 153.1 57.4773 153.559 57.936C154.028 58.384 154.615 58.608 155.319 58.608ZM21.664 80.224C21.0987 80.224 20.592 80.128 20.144 79.936C19.7067 79.744 19.3547 79.4613 19.088 79.088C18.832 78.7147 18.704 78.2613 18.704 77.728C18.704 77.184 18.832 76.736 19.088 76.384C19.3547 76.0213 19.712 75.7493 20.16 75.568C20.6187 75.3867 21.136 75.296 21.712 75.296H24.112V74.784C24.112 74.3253 23.9733 73.9573 23.696 73.68C23.4187 73.4027 22.992 73.264 22.416 73.264C21.8507 73.264 21.4187 73.3973 21.12 73.664C20.8213 73.9307 20.624 74.2773 20.528 74.704L18.992 74.208C19.12 73.7813 19.3227 73.3973 19.6 73.056C19.888 72.704 20.2667 72.4213 20.736 72.208C21.2053 71.9947 21.7707 71.888 22.432 71.888C23.456 71.888 24.2613 72.1493 24.848 72.672C25.4347 73.1947 25.728 73.936 25.728 74.896V78.144C25.728 78.464 25.8773 78.624 26.176 78.624H26.848V80H25.616C25.2427 80 24.9387 79.904 24.704 79.712C24.4693 79.52 24.352 79.2587 24.352 78.928V78.88H24.112C24.0267 79.04 23.8987 79.2267 23.728 79.44C23.5573 79.6533 23.3067 79.84 22.976 80C22.6453 80.1493 22.208 80.224 21.664 80.224ZM21.904 78.864C22.5653 78.864 23.0987 78.6773 23.504 78.304C23.9093 77.92 24.112 77.3973 24.112 76.736V76.576H21.808C21.3707 76.576 21.0187 76.672 20.752 76.864C20.4853 77.0453 20.352 77.3173 20.352 77.68C20.352 78.0427 20.4907 78.3307 20.768 78.544C21.0453 78.7573 21.424 78.864 21.904 78.864ZM31.9269 80.224C31.1695 80.224 30.4815 80.064 29.8629 79.744C29.2549 79.424 28.7695 78.96 28.4069 78.352C28.0549 77.744 27.8789 77.0133 27.8789 76.16V75.952C27.8789 75.0987 28.0549 74.3733 28.4069 73.776C28.7695 73.168 29.2549 72.704 29.8629 72.384C30.4815 72.0533 31.1695 71.888 31.9269 71.888C32.6842 71.888 33.3295 72.0267 33.8629 72.304C34.3962 72.5813 34.8229 72.9493 35.1429 73.408C35.4735 73.8667 35.6869 74.3733 35.7829 74.928L34.1829 75.264C34.1295 74.912 34.0175 74.592 33.8469 74.304C33.6762 74.016 33.4362 73.7867 33.1269 73.616C32.8175 73.4453 32.4282 73.36 31.9589 73.36C31.5002 73.36 31.0842 73.4667 30.7109 73.68C30.3482 73.8827 30.0602 74.1813 29.8469 74.576C29.6335 74.96 29.5269 75.4293 29.5269 75.984V76.128C29.5269 76.6827 29.6335 77.1573 29.8469 77.552C30.0602 77.9467 30.3482 78.2453 30.7109 78.448C31.0842 78.6507 31.5002 78.752 31.9589 78.752C32.6522 78.752 33.1802 78.576 33.5429 78.224C33.9055 77.8613 34.1349 77.4027 34.2309 76.848L35.8309 77.216C35.7029 77.76 35.4735 78.2613 35.1429 78.72C34.8229 79.1787 34.3962 79.5467 33.8629 79.824C33.3295 80.0907 32.6842 80.224 31.9269 80.224ZM40.3948 80C39.9148 80 39.5308 79.856 39.2428 79.568C38.9654 79.28 38.8268 78.896 38.8268 78.416V73.504H36.6508V72.112H38.8268V69.504H40.4748V72.112H42.8268V73.504H40.4748V78.128C40.4748 78.448 40.6241 78.608 40.9227 78.608H42.5708V80H40.3948ZM44.7629 80V72.112H46.4109V80H44.7629ZM45.5949 71.04C45.2749 71.04 45.0029 70.9387 44.7789 70.736C44.5655 70.5227 44.4589 70.2507 44.4589 69.92C44.4589 69.5893 44.5655 69.3227 44.7789 69.12C45.0029 68.9067 45.2749 68.8 45.5949 68.8C45.9255 68.8 46.1975 68.9067 46.4109 69.12C46.6242 69.3227 46.7309 69.5893 46.7309 69.92C46.7309 70.2507 46.6242 70.5227 46.4109 70.736C46.1975 70.9387 45.9255 71.04 45.5949 71.04ZM50.6806 80L48.0246 72.112H49.7686L51.8646 78.784H52.1206L54.2166 72.112H55.9606L53.3046 80H50.6806ZM57.5598 80V72.112H59.2078V80H57.5598ZM58.3918 71.04C58.0718 71.04 57.7998 70.9387 57.5758 70.736C57.3624 70.5227 57.2558 70.2507 57.2558 69.92C57.2558 69.5893 57.3624 69.3227 57.5758 69.12C57.7998 68.9067 58.0718 68.8 58.3918 68.8C58.7224 68.8 58.9944 68.9067 59.2078 69.12C59.4211 69.3227 59.5278 69.5893 59.5278 69.92C59.5278 70.2507 59.4211 70.5227 59.2078 70.736C58.9944 70.9387 58.7224 71.04 58.3918 71.04ZM64.6135 80C64.1335 80 63.7495 79.856 63.4615 79.568C63.1842 79.28 63.0455 78.896 63.0455 78.416V73.504H60.8695V72.112H63.0455V69.504H64.6935V72.112H67.0455V73.504H64.6935V78.128C64.6935 78.448 64.8428 78.608 65.1415 78.608H66.7895V80H64.6135ZM68.9816 80V72.112H70.6296V80H68.9816ZM69.8136 71.04C69.4936 71.04 69.2216 70.9387 68.9976 70.736C68.7843 70.5227 68.6776 70.2507 68.6776 69.92C68.6776 69.5893 68.7843 69.3227 68.9976 69.12C69.2216 68.9067 69.4936 68.8 69.8136 68.8C70.1443 68.8 70.4163 68.9067 70.6296 69.12C70.843 69.3227 70.9496 69.5893 70.9496 69.92C70.9496 70.2507 70.843 70.5227 70.6296 70.736C70.4163 70.9387 70.1443 71.04 69.8136 71.04ZM76.6914 80.224C75.8914 80.224 75.1927 80.0587 74.5954 79.728C73.998 79.3867 73.5287 78.912 73.1874 78.304C72.8567 77.6853 72.6914 76.9707 72.6914 76.16V75.968C72.6914 75.1467 72.8567 74.432 73.1874 73.824C73.518 73.2053 73.9767 72.7307 74.5634 72.4C75.1607 72.0587 75.8487 71.888 76.6274 71.888C77.3847 71.888 78.046 72.0587 78.6114 72.4C79.1874 72.7307 79.6354 73.1947 79.9554 73.792C80.2754 74.3893 80.4354 75.088 80.4354 75.888V76.512H74.3714C74.3927 77.2053 74.622 77.76 75.0594 78.176C75.5074 78.5813 76.062 78.784 76.7234 78.784C77.342 78.784 77.806 78.6453 78.1154 78.368C78.4354 78.0907 78.6807 77.7707 78.8514 77.408L80.2114 78.112C80.062 78.4107 79.8434 78.7253 79.5554 79.056C79.278 79.3867 78.91 79.664 78.4514 79.888C77.9927 80.112 77.406 80.224 76.6914 80.224ZM74.3874 75.248H78.7554C78.7127 74.6507 78.4994 74.1867 78.1154 73.856C77.7314 73.5147 77.23 73.344 76.6114 73.344C75.9927 73.344 75.486 73.5147 75.0914 73.856C74.7074 74.1867 74.4727 74.6507 74.3874 75.248ZM85.6511 80.224C84.6485 80.224 83.8165 80 83.1551 79.552C82.4938 79.104 82.0885 78.4267 81.9391 77.52L83.4751 77.152C83.5605 77.5893 83.7045 77.936 83.9071 78.192C84.1098 78.448 84.3605 78.6293 84.6591 78.736C84.9685 78.8427 85.2991 78.896 85.6511 78.896C86.1738 78.896 86.5738 78.7947 86.8511 78.592C87.1391 78.3893 87.2831 78.128 87.2831 77.808C87.2831 77.488 87.1498 77.2533 86.8831 77.104C86.6165 76.9547 86.2218 76.832 85.6991 76.736L85.1551 76.64C84.6218 76.544 84.1365 76.4053 83.6991 76.224C83.2618 76.0427 82.9151 75.792 82.6591 75.472C82.4031 75.152 82.2751 74.7413 82.2751 74.24C82.2751 73.4933 82.5525 72.9173 83.1071 72.512C83.6618 72.096 84.3978 71.888 85.3151 71.888C86.2005 71.888 86.9258 72.0907 87.4911 72.496C88.0671 72.8907 88.4405 73.4293 88.6111 74.112L87.0751 74.544C86.9791 74.064 86.7765 73.728 86.4671 73.536C86.1578 73.3333 85.7738 73.232 85.3151 73.232C84.8671 73.232 84.5151 73.3173 84.2591 73.488C84.0031 73.648 83.8751 73.8773 83.8751 74.176C83.8751 74.496 83.9978 74.7307 84.2431 74.88C84.4991 75.0293 84.8405 75.1413 85.2671 75.216L85.8271 75.312C86.3925 75.408 86.9098 75.5413 87.3791 75.712C87.8485 75.8827 88.2165 76.128 88.4831 76.448C88.7605 76.768 88.8991 77.1947 88.8991 77.728C88.8991 78.5173 88.6058 79.1307 88.0191 79.568C87.4325 80.0053 86.6431 80.224 85.6511 80.224ZM97.8635 80C97.3835 80 96.9995 79.856 96.7115 79.568C96.4342 79.28 96.2955 78.896 96.2955 78.416V73.504H94.1195V72.112H96.2955V69.504H97.9435V72.112H100.296V73.504H97.9435V78.128C97.9435 78.448 98.0928 78.608 98.3915 78.608H100.04V80H97.8635ZM105.646 80.224C104.857 80.224 104.153 80.064 103.534 79.744C102.926 79.4133 102.446 78.944 102.094 78.336C101.742 77.728 101.566 77.008 101.566 76.176V75.936C101.566 75.104 101.742 74.3893 102.094 73.792C102.446 73.184 102.926 72.7147 103.534 72.384C104.153 72.0533 104.857 71.888 105.646 71.888C106.436 71.888 107.14 72.0533 107.758 72.384C108.377 72.7147 108.862 73.184 109.214 73.792C109.566 74.3893 109.742 75.104 109.742 75.936V76.176C109.742 77.008 109.566 77.728 109.214 78.336C108.862 78.944 108.377 79.4133 107.758 79.744C107.14 80.064 106.436 80.224 105.646 80.224ZM105.646 78.752C106.372 78.752 106.958 78.5227 107.406 78.064C107.865 77.5947 108.094 76.9493 108.094 76.128V75.984C108.094 75.1627 107.87 74.5227 107.422 74.064C106.974 73.5947 106.382 73.36 105.646 73.36C104.932 73.36 104.345 73.5947 103.886 74.064C103.438 74.5227 103.214 75.1627 103.214 75.984V76.128C103.214 76.9493 103.438 77.5947 103.886 78.064C104.345 78.5227 104.932 78.752 105.646 78.752ZM115.872 80V72.112H117.52V80H115.872ZM116.704 71.04C116.384 71.04 116.112 70.9387 115.888 70.736C115.675 70.5227 115.568 70.2507 115.568 69.92C115.568 69.5893 115.675 69.3227 115.888 69.12C116.112 68.9067 116.384 68.8 116.704 68.8C117.035 68.8 117.307 68.9067 117.52 69.12C117.734 69.3227 117.84 69.5893 117.84 69.92C117.84 70.2507 117.734 70.5227 117.52 70.736C117.307 70.9387 117.035 71.04 116.704 71.04ZM119.966 80V72.112H121.582V73.04H121.838C121.987 72.7627 122.227 72.5173 122.558 72.304C122.889 72.0907 123.337 71.984 123.902 71.984C124.489 71.984 124.958 72.1067 125.31 72.352C125.673 72.5867 125.945 72.8907 126.126 73.264H126.382C126.563 72.9013 126.825 72.5973 127.166 72.352C127.518 72.1067 128.014 71.984 128.654 71.984C129.166 71.984 129.619 72.0907 130.014 72.304C130.409 72.5067 130.723 72.816 130.958 73.232C131.193 73.6373 131.31 74.144 131.31 74.752V80H129.662V74.88C129.662 74.4 129.529 74.032 129.262 73.776C129.006 73.5093 128.638 73.376 128.158 73.376C127.646 73.376 127.235 73.5413 126.926 73.872C126.617 74.2027 126.462 74.6773 126.462 75.296V80H124.814V74.88C124.814 74.4 124.681 74.032 124.414 73.776C124.158 73.5093 123.79 73.376 123.31 73.376C122.798 73.376 122.387 73.5413 122.078 73.872C121.769 74.2027 121.614 74.6773 121.614 75.296V80H119.966ZM133.685 83.2V72.112H135.301V73.248H135.557C135.759 72.896 136.063 72.5813 136.469 72.304C136.885 72.0267 137.477 71.888 138.245 71.888C138.906 71.888 139.509 72.048 140.053 72.368C140.607 72.688 141.05 73.152 141.381 73.76C141.722 74.3573 141.893 75.0827 141.893 75.936V76.176C141.893 77.0293 141.727 77.76 141.397 78.368C141.066 78.9653 140.623 79.424 140.069 79.744C139.514 80.064 138.906 80.224 138.245 80.224C137.733 80.224 137.301 80.16 136.949 80.032C136.597 79.904 136.314 79.744 136.101 79.552C135.887 79.3493 135.717 79.1413 135.589 78.928H135.333V83.2H133.685ZM137.765 78.784C138.49 78.784 139.082 78.5547 139.541 78.096C139.999 77.6373 140.229 76.9813 140.229 76.128V75.984C140.229 75.1413 139.994 74.4907 139.525 74.032C139.066 73.5733 138.479 73.344 137.765 73.344C137.061 73.344 136.474 73.5733 136.005 74.032C135.546 74.4907 135.317 75.1413 135.317 75.984V76.128C135.317 76.9813 135.546 77.6373 136.005 78.096C136.474 78.5547 137.061 78.784 137.765 78.784ZM143.935 80V72.112H145.551V73.04H145.807C145.935 72.7093 146.137 72.4693 146.415 72.32C146.703 72.16 147.055 72.08 147.471 72.08H148.415V73.568H147.407C146.873 73.568 146.436 73.7173 146.095 74.016C145.753 74.304 145.583 74.752 145.583 75.36V80H143.935ZM153.537 80.224C152.748 80.224 152.044 80.064 151.425 79.744C150.817 79.4133 150.337 78.944 149.985 78.336C149.633 77.728 149.457 77.008 149.457 76.176V75.936C149.457 75.104 149.633 74.3893 149.985 73.792C150.337 73.184 150.817 72.7147 151.425 72.384C152.044 72.0533 152.748 71.888 153.537 71.888C154.326 71.888 155.03 72.0533 155.649 72.384C156.268 72.7147 156.753 73.184 157.105 73.792C157.457 74.3893 157.633 75.104 157.633 75.936V76.176C157.633 77.008 157.457 77.728 157.105 78.336C156.753 78.944 156.268 79.4133 155.649 79.744C155.03 80.064 154.326 80.224 153.537 80.224ZM153.537 78.752C154.262 78.752 154.849 78.5227 155.297 78.064C155.756 77.5947 155.985 76.9493 155.985 76.128V75.984C155.985 75.1627 155.761 74.5227 155.313 74.064C154.865 73.5947 154.273 73.36 153.537 73.36C152.822 73.36 152.236 73.5947 151.777 74.064C151.329 74.5227 151.105 75.1627 151.105 75.984V76.128C151.105 76.9493 151.329 77.5947 151.777 78.064C152.236 78.5227 152.822 78.752 153.537 78.752ZM161.228 80L158.572 72.112H160.316L162.411 78.784H162.668L164.764 72.112H166.508L163.852 80H161.228ZM171.441 80.224C170.641 80.224 169.943 80.0587 169.345 79.728C168.748 79.3867 168.279 78.912 167.937 78.304C167.607 77.6853 167.441 76.9707 167.441 76.16V75.968C167.441 75.1467 167.607 74.432 167.937 73.824C168.268 73.2053 168.727 72.7307 169.313 72.4C169.911 72.0587 170.599 71.888 171.377 71.888C172.135 71.888 172.796 72.0587 173.361 72.4C173.937 72.7307 174.385 73.1947 174.705 73.792C175.025 74.3893 175.185 75.088 175.185 75.888V76.512H169.121C169.143 77.2053 169.372 77.76 169.809 78.176C170.257 78.5813 170.812 78.784 171.473 78.784C172.092 78.784 172.556 78.6453 172.865 78.368C173.185 78.0907 173.431 77.7707 173.601 77.408L174.961 78.112C174.812 78.4107 174.593 78.7253 174.305 79.056C174.028 79.3867 173.66 79.664 173.201 79.888C172.743 80.112 172.156 80.224 171.441 80.224ZM169.137 75.248H173.505C173.463 74.6507 173.249 74.1867 172.865 73.856C172.481 73.5147 171.98 73.344 171.361 73.344C170.743 73.344 170.236 73.5147 169.841 73.856C169.457 74.1867 169.223 74.6507 169.137 75.248ZM20.128 103.2V101.76H24.528C24.8267 101.76 24.976 101.6 24.976 101.28V98.848H24.72C24.624 99.0613 24.4747 99.2693 24.272 99.472C24.08 99.664 23.8187 99.824 23.488 99.952C23.1573 100.08 22.7413 100.144 22.24 100.144C21.6427 100.144 21.1093 100.011 20.64 99.744C20.1707 99.4773 19.8027 99.0987 19.536 98.608C19.2693 98.1173 19.136 97.536 19.136 96.864V92.112H20.784V96.736C20.784 97.4187 20.9547 97.9253 21.296 98.256C21.6373 98.576 22.112 98.736 22.72 98.736C23.392 98.736 23.9307 98.512 24.336 98.064C24.752 97.616 24.96 96.9653 24.96 96.112V92.112H26.608V101.616C26.608 102.096 26.464 102.48 26.176 102.768C25.8987 103.056 25.5147 103.2 25.024 103.2H20.128ZM32.7401 100.224C31.9508 100.224 31.2468 100.064 30.6281 99.744C30.0201 99.4133 29.5401 98.944 29.1881 98.336C28.8361 97.728 28.6601 97.008 28.6601 96.176V95.936C28.6601 95.104 28.8361 94.3893 29.1881 93.792C29.5401 93.184 30.0201 92.7147 30.6281 92.384C31.2468 92.0533 31.9508 91.888 32.7401 91.888C33.5295 91.888 34.2335 92.0533 34.8521 92.384C35.4708 92.7147 35.9561 93.184 36.3081 93.792C36.6601 94.3893 36.8361 95.104 36.8361 95.936V96.176C36.8361 97.008 36.6601 97.728 36.3081 98.336C35.9561 98.944 35.4708 99.4133 34.8521 99.744C34.2335 100.064 33.5295 100.224 32.7401 100.224ZM32.7401 98.752C33.4655 98.752 34.0521 98.5227 34.5001 98.064C34.9588 97.5947 35.1881 96.9493 35.1881 96.128V95.984C35.1881 95.1627 34.9641 94.5227 34.5161 94.064C34.0681 93.5947 33.4761 93.36 32.7401 93.36C32.0255 93.36 31.4388 93.5947 30.9801 94.064C30.5321 94.5227 30.3081 95.1627 30.3081 95.984V96.128C30.3081 96.9493 30.5321 97.5947 30.9801 98.064C31.4388 98.5227 32.0255 98.752 32.7401 98.752ZM41.9119 100.144C41.3145 100.144 40.7812 100.011 40.3119 99.744C39.8425 99.4773 39.4745 99.0987 39.2079 98.608C38.9412 98.1173 38.8079 97.5307 38.8079 96.848V92.112H40.4559V96.736C40.4559 97.4187 40.6265 97.9253 40.9679 98.256C41.3092 98.576 41.7839 98.736 42.3919 98.736C43.0639 98.736 43.6025 98.512 44.0079 98.064C44.4239 97.6053 44.6319 96.9493 44.6319 96.096V92.112H46.2799V100H44.6639V98.816H44.4079C44.2585 99.136 43.9919 99.44 43.6079 99.728C43.2239 100.005 42.6585 100.144 41.9119 100.144ZM48.716 100V92.112H50.332V93.04H50.588C50.716 92.7093 50.9187 92.4693 51.196 92.32C51.484 92.16 51.836 92.08 52.252 92.08H53.196V93.568H52.188C51.6547 93.568 51.2173 93.7173 50.876 94.016C50.5347 94.304 50.364 94.752 50.364 95.36V100H48.716ZM58.9816 100V92.112H60.5976V93.04H60.8536C60.9816 92.7093 61.1843 92.4693 61.4616 92.32C61.7496 92.16 62.1016 92.08 62.5176 92.08H63.4616V93.568H62.4536C61.9203 93.568 61.483 93.7173 61.1416 94.016C60.8003 94.304 60.6296 94.752 60.6296 95.36V100H58.9816ZM68.5039 100.224C67.7039 100.224 67.0052 100.059 66.4079 99.728C65.8105 99.3867 65.3412 98.912 64.9999 98.304C64.6692 97.6853 64.5039 96.9707 64.5039 96.16V95.968C64.5039 95.1467 64.6692 94.432 64.9999 93.824C65.3305 93.2053 65.7892 92.7307 66.3759 92.4C66.9732 92.0587 67.6612 91.888 68.4399 91.888C69.1972 91.888 69.8585 92.0587 70.4239 92.4C70.9999 92.7307 71.4479 93.1947 71.7679 93.792C72.0879 94.3893 72.2479 95.088 72.2479 95.888V96.512H66.1839C66.2052 97.2053 66.4345 97.76 66.8719 98.176C67.3199 98.5813 67.8745 98.784 68.5359 98.784C69.1545 98.784 69.6185 98.6453 69.9279 98.368C70.2479 98.0907 70.4932 97.7707 70.6639 97.408L72.0239 98.112C71.8745 98.4107 71.6559 98.7253 71.3679 99.056C71.0905 99.3867 70.7225 99.664 70.2639 99.888C69.8052 100.112 69.2185 100.224 68.5039 100.224ZM66.1999 95.248H70.5679C70.5252 94.6507 70.3119 94.1867 69.9279 93.856C69.5439 93.5147 69.0425 93.344 68.4239 93.344C67.8052 93.344 67.2985 93.5147 66.9039 93.856C66.5199 94.1867 66.2852 94.6507 66.1999 95.248ZM76.6796 100.224C76.1143 100.224 75.6076 100.128 75.1596 99.936C74.7223 99.744 74.3703 99.4613 74.1036 99.088C73.8476 98.7147 73.7196 98.2613 73.7196 97.728C73.7196 97.184 73.8476 96.736 74.1036 96.384C74.3703 96.0213 74.7276 95.7493 75.1756 95.568C75.6343 95.3867 76.1516 95.296 76.7276 95.296H79.1276V94.784C79.1276 94.3253 78.989 93.9573 78.7116 93.68C78.4343 93.4027 78.0076 93.264 77.4316 93.264C76.8663 93.264 76.4343 93.3973 76.1356 93.664C75.837 93.9307 75.6396 94.2773 75.5436 94.704L74.0076 94.208C74.1356 93.7813 74.3383 93.3973 74.6156 93.056C74.9036 92.704 75.2823 92.4213 75.7516 92.208C76.221 91.9947 76.7863 91.888 77.4476 91.888C78.4716 91.888 79.277 92.1493 79.8636 92.672C80.4503 93.1947 80.7436 93.936 80.7436 94.896V98.144C80.7436 98.464 80.893 98.624 81.1916 98.624H81.8636V100H80.6316C80.2583 100 79.9543 99.904 79.7196 99.712C79.485 99.52 79.3676 99.2587 79.3676 98.928V98.88H79.1276C79.0423 99.04 78.9143 99.2267 78.7436 99.44C78.573 99.6533 78.3223 99.84 77.9916 100C77.661 100.149 77.2236 100.224 76.6796 100.224ZM76.9196 98.864C77.581 98.864 78.1143 98.6773 78.5196 98.304C78.925 97.92 79.1276 97.3973 79.1276 96.736V96.576H76.8236C76.3863 96.576 76.0343 96.672 75.7676 96.864C75.501 97.0453 75.3676 97.3173 75.3676 97.68C75.3676 98.0427 75.5063 98.3307 75.7836 98.544C76.061 98.7573 76.4396 98.864 76.9196 98.864ZM86.5425 100.224C85.8918 100.224 85.2892 100.064 84.7345 99.744C84.1798 99.424 83.7318 98.9653 83.3905 98.368C83.0598 97.76 82.8945 97.0293 82.8945 96.176V95.936C82.8945 95.0933 83.0598 94.368 83.3905 93.76C83.7212 93.152 84.1638 92.688 84.7185 92.368C85.2732 92.048 85.8812 91.888 86.5425 91.888C87.0545 91.888 87.4812 91.952 87.8225 92.08C88.1745 92.208 88.4625 92.3733 88.6865 92.576C88.9105 92.768 89.0812 92.9707 89.1985 93.184H89.4545V88.8H91.1025V100H89.4865V98.88H89.2305C89.0278 99.2213 88.7185 99.5307 88.3025 99.808C87.8972 100.085 87.3105 100.224 86.5425 100.224ZM87.0065 98.784C87.7212 98.784 88.3078 98.5547 88.7665 98.096C89.2358 97.6373 89.4705 96.9813 89.4705 96.128V95.984C89.4705 95.1413 89.2412 94.4907 88.7825 94.032C88.3238 93.5733 87.7318 93.344 87.0065 93.344C86.3025 93.344 85.7158 93.5733 85.2465 94.032C84.7878 94.4907 84.5585 95.1413 84.5585 95.984V96.128C84.5585 96.9813 84.7878 97.6373 85.2465 98.096C85.7158 98.5547 86.3025 98.784 87.0065 98.784ZM93.5285 100V92.112H95.1765V100H93.5285ZM94.3605 91.04C94.0405 91.04 93.7685 90.9387 93.5445 90.736C93.3312 90.5227 93.2245 90.2507 93.2245 89.92C93.2245 89.5893 93.3312 89.3227 93.5445 89.12C93.7685 88.9067 94.0405 88.8 94.3605 88.8C94.6912 88.8 94.9632 88.9067 95.1765 89.12C95.3898 89.3227 95.4965 89.5893 95.4965 89.92C95.4965 90.2507 95.3898 90.5227 95.1765 90.736C94.9632 90.9387 94.6912 91.04 94.3605 91.04ZM97.6223 100V92.112H99.2383V93.296H99.4943C99.6436 92.976 99.9103 92.6773 100.294 92.4C100.678 92.1227 101.249 91.984 102.006 91.984C102.604 91.984 103.132 92.1173 103.59 92.384C104.06 92.6507 104.428 93.0293 104.694 93.52C104.961 94 105.094 94.5813 105.094 95.264V100H103.446V95.392C103.446 94.7093 103.276 94.208 102.934 93.888C102.593 93.5573 102.124 93.392 101.526 93.392C100.844 93.392 100.294 93.616 99.8783 94.064C99.4729 94.512 99.2703 95.1627 99.2703 96.016V100H97.6223ZM107.082 96.096V95.856C107.082 95.024 107.247 94.3147 107.578 93.728C107.919 93.1413 108.367 92.688 108.922 92.368C109.477 92.048 110.085 91.888 110.746 91.888C111.514 91.888 112.101 92.032 112.506 92.32C112.922 92.608 113.226 92.9173 113.418 93.248H113.674V92.112H115.274V101.616C115.274 102.096 115.13 102.48 114.842 102.768C114.565 103.056 114.181 103.2 113.69 103.2H108.378V101.76H113.178C113.487 101.76 113.642 101.6 113.642 101.28V98.768H113.386C113.269 98.96 113.103 99.1573 112.89 99.36C112.677 99.5627 112.394 99.728 112.042 99.856C111.701 99.984 111.269 100.048 110.746 100.048C110.085 100.048 109.471 99.8933 108.906 99.584C108.351 99.264 107.909 98.8107 107.578 98.224C107.247 97.6267 107.082 96.9173 107.082 96.096ZM111.194 98.608C111.909 98.608 112.495 98.384 112.954 97.936C113.423 97.4773 113.658 96.848 113.658 96.048V95.904C113.658 95.0827 113.429 94.4533 112.97 94.016C112.511 93.568 111.919 93.344 111.194 93.344C110.49 93.344 109.903 93.568 109.434 94.016C108.975 94.4533 108.746 95.0827 108.746 95.904V96.048C108.746 96.848 108.975 97.4773 109.434 97.936C109.903 98.384 110.49 98.608 111.194 98.608ZM125.011 100.224C124.008 100.224 123.176 100 122.515 99.552C121.853 99.104 121.448 98.4267 121.299 97.52L122.835 97.152C122.92 97.5893 123.064 97.936 123.267 98.192C123.469 98.448 123.72 98.6293 124.019 98.736C124.328 98.8427 124.659 98.896 125.011 98.896C125.533 98.896 125.933 98.7947 126.211 98.592C126.499 98.3893 126.643 98.128 126.643 97.808C126.643 97.488 126.509 97.2533 126.243 97.104C125.976 96.9547 125.581 96.832 125.059 96.736L124.515 96.64C123.981 96.544 123.496 96.4053 123.059 96.224C122.621 96.0427 122.275 95.792 122.019 95.472C121.763 95.152 121.635 94.7413 121.635 94.24C121.635 93.4933 121.912 92.9173 122.467 92.512C123.021 92.096 123.757 91.888 124.674 91.888C125.56 91.888 126.285 92.0907 126.851 92.496C127.427 92.8907 127.8 93.4293 127.971 94.112L126.435 94.544C126.339 94.064 126.136 93.728 125.827 93.536C125.517 93.3333 125.133 93.232 124.674 93.232C124.227 93.232 123.875 93.3173 123.619 93.488C123.363 93.648 123.235 93.8773 123.235 94.176C123.235 94.496 123.357 94.7307 123.603 94.88C123.859 95.0293 124.2 95.1413 124.627 95.216L125.187 95.312C125.752 95.408 126.269 95.5413 126.739 95.712C127.208 95.8827 127.576 96.128 127.843 96.448C128.12 96.768 128.259 97.1947 128.259 97.728C128.259 98.5173 127.965 99.1307 127.379 99.568C126.792 100.005 126.003 100.224 125.011 100.224ZM130.185 100V88.8H131.833V95.184H132.089L135.193 92.112H137.385L133.401 95.936L137.513 100H135.337L132.089 96.72H131.833V100H130.185ZM138.997 100V92.112H140.645V100H138.997ZM139.829 91.04C139.509 91.04 139.237 90.9387 139.013 90.736C138.8 90.5227 138.693 90.2507 138.693 89.92C138.693 89.5893 138.8 89.3227 139.013 89.12C139.237 88.9067 139.509 88.8 139.829 88.8C140.16 88.8 140.432 88.9067 140.645 89.12C140.859 89.3227 140.965 89.5893 140.965 89.92C140.965 90.2507 140.859 90.5227 140.645 90.736C140.432 90.9387 140.16 91.04 139.829 91.04ZM143.091 100V88.8H144.739V100H143.091ZM147.185 100V88.8H148.833V100H147.185ZM154.511 100.224C153.508 100.224 152.676 100 152.015 99.552C151.353 99.104 150.948 98.4267 150.799 97.52L152.335 97.152C152.42 97.5893 152.564 97.936 152.767 98.192C152.969 98.448 153.22 98.6293 153.519 98.736C153.828 98.8427 154.159 98.896 154.511 98.896C155.033 98.896 155.433 98.7947 155.711 98.592C155.999 98.3893 156.143 98.128 156.143 97.808C156.143 97.488 156.009 97.2533 155.743 97.104C155.476 96.9547 155.081 96.832 154.559 96.736L154.015 96.64C153.481 96.544 152.996 96.4053 152.559 96.224C152.121 96.0427 151.775 95.792 151.519 95.472C151.263 95.152 151.135 94.7413 151.135 94.24C151.135 93.4933 151.412 92.9173 151.967 92.512C152.521 92.096 153.257 91.888 154.174 91.888C155.06 91.888 155.785 92.0907 156.351 92.496C156.927 92.8907 157.3 93.4293 157.471 94.112L155.935 94.544C155.839 94.064 155.636 93.728 155.327 93.536C155.017 93.3333 154.633 93.232 154.174 93.232C153.727 93.232 153.375 93.3173 153.119 93.488C152.863 93.648 152.735 93.8773 152.735 94.176C152.735 94.496 152.857 94.7307 153.103 94.88C153.359 95.0293 153.7 95.1413 154.127 95.216L154.687 95.312C155.252 95.408 155.769 95.5413 156.239 95.712C156.708 95.8827 157.076 96.128 157.343 96.448C157.62 96.768 157.759 97.1947 157.759 97.728C157.759 98.5173 157.465 99.1307 156.879 99.568C156.292 100.005 155.503 100.224 154.511 100.224ZM160.677 100.224C160.303 100.224 159.989 100.101 159.733 99.856C159.487 99.6107 159.365 99.296 159.365 98.912C159.365 98.528 159.487 98.2187 159.733 97.984C159.989 97.7387 160.303 97.616 160.677 97.616C161.05 97.616 161.359 97.7387 161.605 97.984C161.861 98.2293 161.989 98.5387 161.989 98.912C161.989 99.296 161.861 99.6107 161.605 99.856C161.359 100.101 161.05 100.224 160.677 100.224Z" fill="black"/>
</g>
<g filter="url(#filter0_d_352_7649)">
<path d="M245.863 160.996H304.297L298.856 144.981L254.076 147.305L245.863 160.996Z" fill="#263238"/>
<path d="M256.744 147.632L290.893 146.359L303.019 78.4503L292.061 73.7331C292.061 73.7331 287.514 76.2837 279.09 76.3241C270.823 76.3645 270.969 73.5552 270.969 73.5552L263.721 81.3607C263.721 81.3607 254.8 106.742 254.667 107.255C254.533 107.768 256.744 147.632 256.744 147.632Z" fill="white"/>
<path d="M296.237 75.4631C296.237 75.4631 313.056 78.9394 313.214 81.7406C313.372 84.5419 306.019 101.911 305.877 102.356C305.736 102.8 299.252 127.636 299.252 127.636L308.953 161H278.718C278.718 161 280.876 129.523 283.302 114.98C285.727 100.436 286.305 95.5771 287.239 89.8129C287.611 87.5048 289.49 79.5862 290.658 74.7517C290.989 73.3888 291.05 71.9743 290.836 70.5882L292.271 71.1339L296.237 75.4631Z" fill="#455A64"/>
<path d="M243.615 118.048C243.454 118.29 240.382 129.443 239.876 132.672C239.448 135.413 238.769 139.867 241.675 143.99C244.582 148.113 247.585 147.628 250.487 146.577C253.389 145.526 256.55 139.467 257.108 135.991C257.666 132.515 254.384 117.227 254.384 117.227L243.615 118.048Z" fill="#455A64"/>
<path d="M271.001 71.3926L267.258 76.6758C267.258 76.6758 254.776 78.2926 251.898 80.3865C249.02 82.4803 243.219 120.263 243.219 120.263L254.832 126.73L245.859 161H257.108C257.108 161 259.897 146.557 259.643 136.185C259.388 125.813 261.187 112.336 264.493 102.368C267.8 92.3999 270.961 75.164 270.961 75.164L271.001 71.3926Z" fill="#455A64"/>
<g opacity="0.3">
<path d="M304.988 148.384L284.87 137.195C285.727 141.808 288.435 146.23 292.396 148.744C294.391 149.999 296.62 150.836 298.948 151.203C301.276 151.569 303.654 151.459 305.938 150.878C305.614 150.046 305.298 149.214 304.988 148.384Z" fill="black"/>
</g>
<path d="M245.378 127.082C245.378 127.118 244.901 127.195 244.189 127.486C243.259 127.885 242.441 128.507 241.808 129.297C241.188 130.096 240.772 131.034 240.596 132.03C240.462 132.794 240.503 133.283 240.462 133.287C240.426 133.176 240.41 133.06 240.414 132.943C240.394 132.63 240.407 132.316 240.45 132.005C240.585 130.968 240.998 129.987 241.647 129.167C242.295 128.347 243.155 127.719 244.133 127.349C244.425 127.234 244.729 127.149 245.038 127.094C245.15 127.07 245.265 127.066 245.378 127.082Z" fill="#263238"/>
<path d="M247.73 142.774C247.73 142.774 250.923 141.763 252.071 140.466C253.165 139.18 253.898 137.628 254.198 135.967C254.343 134.043 255.067 123.937 255.067 123.937L246.651 123.383L241.461 133.295C241.461 133.295 240.054 136.933 242.928 140.809C244.763 143.295 247.73 142.774 247.73 142.774Z" fill="#FFBF9D"/>
<path d="M255.814 137.196C255.832 136.806 255.87 136.417 255.928 136.031C256.013 135.1 256 134.162 255.887 133.234C255.768 132.305 255.553 131.39 255.244 130.506C255.006 129.827 254.816 129.422 254.84 129.406C254.864 129.39 254.913 129.495 255.014 129.673C255.151 129.926 255.272 130.186 255.378 130.453C256.096 132.226 256.336 134.157 256.073 136.052C256.034 136.336 255.98 136.618 255.911 136.896C255.896 137.001 255.863 137.102 255.814 137.196Z" fill="#263238"/>
<path d="M255.499 137.39C255.515 137.551 255.515 137.713 255.499 137.875C255.494 138.064 255.478 138.253 255.451 138.441C255.418 138.659 255.394 138.909 255.33 139.18C255.204 139.824 255.02 140.454 254.78 141.064C254.483 141.808 254.114 142.521 253.68 143.194C253.235 143.861 252.728 144.483 252.165 145.054C251.701 145.516 251.196 145.935 250.657 146.307C250.454 146.454 250.242 146.589 250.022 146.711C249.864 146.814 249.697 146.904 249.525 146.982C249.385 147.063 249.235 147.128 249.08 147.176C249.08 147.139 249.683 146.84 250.572 146.189C251.089 145.804 251.575 145.38 252.027 144.92C252.573 144.351 253.066 143.734 253.502 143.077C253.93 142.41 254.298 141.706 254.602 140.975C254.844 140.378 255.039 139.763 255.184 139.136C255.431 138.077 255.455 137.385 255.499 137.39Z" fill="#263238"/>
<path d="M217.24 72.1687C215.833 72.3737 214.562 73.1209 213.699 74.2505L232.499 100.929L255.972 98.2409L255.592 74.2383C255.592 74.2383 254 71.9262 252.456 72.1849C251.837 72.29 231.982 75.3904 230.223 80.2491C230.223 80.2491 230.43 77.7672 228.772 76.5262C227.115 75.2853 217.24 72.1687 217.24 72.1687Z" fill="white"/>
<path d="M217.24 72.1687L217.515 72.2455L218.323 72.4961C219.027 72.7184 220.073 73.0499 221.415 73.5026C222.758 73.9553 224.407 74.5212 226.298 75.265C226.771 75.455 227.256 75.6692 227.754 75.8835C228.28 76.0977 228.764 76.4058 229.181 76.793C230.013 77.6539 230.349 78.9515 230.3 80.249L230.163 80.2167C230.589 79.3353 231.265 78.5987 232.107 78.0986C232.97 77.5359 233.882 77.0515 234.832 76.6515C236.904 75.7801 239.035 75.0575 241.21 74.4889C243.49 73.8624 245.903 73.3086 248.429 72.8074C249.691 72.5567 250.984 72.3182 252.298 72.104C252.644 72.0339 253.003 72.0576 253.337 72.1727C253.663 72.2951 253.97 72.4654 254.246 72.678C254.794 73.1038 255.276 73.6077 255.677 74.1736L255.697 74.1979V74.2302C255.794 80.4188 255.904 87.1652 256.017 94.1704C256.041 95.5366 256.062 96.8908 256.081 98.2328V98.3257H255.984L232.511 101.006H232.455L232.422 100.961L213.671 74.2787V74.2585V74.2383C214.03 73.7342 214.488 73.308 215.017 72.9852C215.399 72.75 215.805 72.5575 216.229 72.4112C216.478 72.3214 216.734 72.2511 216.993 72.201C217.081 72.1849 217.171 72.1768 217.26 72.1768C217.172 72.1871 217.084 72.2019 216.997 72.2212C216.74 72.2769 216.487 72.3526 216.241 72.4476C215.831 72.6 215.438 72.7966 215.069 73.0337C214.551 73.3561 214.103 73.7795 213.751 74.2787V74.2383L232.6 100.876L232.511 100.836L255.96 98.1277L255.867 98.2368C255.846 96.8894 255.824 95.542 255.802 94.1946C255.693 87.1895 255.588 80.4511 255.491 74.2504L255.511 74.307C255.12 73.7586 254.652 73.2699 254.121 72.8559C253.862 72.6553 253.574 72.4945 253.268 72.3789C252.965 72.2738 252.64 72.2529 252.326 72.3182C251.012 72.5284 249.723 72.7669 248.462 73.0135C245.939 73.5107 243.526 74.0604 241.251 74.6789C239.084 75.2426 236.959 75.9571 234.892 76.8172C233.949 77.2112 233.042 77.6888 232.184 78.2441C231.367 78.7252 230.71 79.4348 230.292 80.2854L230.139 80.6613V80.2571C230.191 79 229.868 77.7227 229.071 76.9021C228.666 76.523 228.195 76.2216 227.681 76.0128C227.192 75.7824 226.707 75.5803 226.238 75.3863C224.354 74.6344 222.709 74.0604 221.387 73.5956L218.307 72.5527L217.499 72.2859C217.329 72.2051 217.24 72.1687 217.24 72.1687Z" fill="#263238"/>
<path d="M228.776 104.644L211.173 74.7315C211.09 74.5924 211.053 74.4308 211.068 74.2697C211.082 74.1085 211.147 73.9561 211.253 73.8341C211.359 73.7152 211.499 73.6317 211.653 73.5948C211.808 73.558 211.97 73.5695 212.118 73.6279L225.995 79.1577C226.262 79.2623 226.5 79.4285 226.691 79.6427C226.888 79.8629 227.03 80.127 227.105 80.4131C227.181 80.6992 227.187 80.999 227.123 81.2879L226.917 82.2136L231.768 83.4545L231.873 83.1837C232.066 82.687 232.368 82.2399 232.757 81.8755C233.146 81.511 233.612 81.2384 234.12 81.0777L256.477 73.9554C256.941 73.8064 257.442 73.8266 257.892 74.0123C258.342 74.1981 258.712 74.5374 258.935 74.9699L274.813 105.577L274.275 107.021L249.036 113.003H244.589L228.776 104.644Z" fill="#263238"/>
<path d="M228.776 104.644L229.055 104.781L229.864 105.185L232.976 106.802L244.634 112.926H244.602H249.024L274.259 106.924L274.19 106.984C274.348 106.54 274.526 106.038 274.708 105.537V105.61L266.502 89.7806C265.068 87.0022 263.601 84.1727 262.1 81.292L259.857 76.9183L259.287 75.8148L259 75.261C258.915 75.0769 258.814 74.901 258.697 74.7355C258.457 74.4175 258.125 74.1802 257.747 74.0553C257.368 73.9303 256.961 73.9237 256.579 74.0362L243.373 78.2401L237.022 80.2612C235.984 80.5967 234.933 80.912 233.93 81.2556C233.447 81.454 233.014 81.7565 232.661 82.1414C232.308 82.5264 232.044 82.9844 231.889 83.4828L231.865 83.5677L231.772 83.5435L226.921 82.3025L226.828 82.2782L226.848 82.1853L227.014 81.4456C227.081 81.2147 227.107 80.9739 227.091 80.7341C227.071 80.4995 227.004 80.2713 226.894 80.063C226.785 79.8547 226.634 79.6705 226.452 79.5215C226.264 79.3731 226.052 79.2583 225.826 79.1819L225.142 78.9111L223.78 78.3654L218.485 76.2513L213.432 74.2302L212.219 73.7452C212.134 73.6977 212.04 73.6687 211.943 73.6601C211.846 73.6514 211.748 73.6633 211.656 73.6949C211.563 73.7266 211.479 73.7772 211.407 73.8437C211.336 73.9102 211.279 73.9909 211.241 74.0807C211.203 74.1687 211.184 74.2637 211.184 74.3596C211.184 74.4555 211.203 74.5504 211.241 74.6385L211.557 75.1842L212.195 76.2715C215.579 82.0317 218.554 87.1046 221.015 91.3045L226.763 101.123L228.283 103.742L228.687 104.421C228.772 104.571 228.813 104.652 228.813 104.652C228.813 104.652 228.764 104.579 228.675 104.429C228.586 104.28 228.449 104.058 228.271 103.767L226.711 101.159C225.365 98.8836 223.4 95.5609 220.918 91.3732L212.054 76.3483L211.411 75.261C211.302 75.0751 211.197 74.9012 211.084 74.7032C211.032 74.5949 211.004 74.4771 211 74.3572C210.997 74.2373 211.019 74.1181 211.065 74.0072C211.11 73.8963 211.179 73.7963 211.266 73.7136C211.353 73.6308 211.456 73.5672 211.569 73.5269C211.798 73.451 212.048 73.4684 212.264 73.5754L213.477 74.0645L218.533 76.0856L223.833 78.1956L225.191 78.7373L225.878 79.0081C226.123 79.0911 226.351 79.2155 226.553 79.3759C226.757 79.5421 226.925 79.7478 227.047 79.9804C227.169 80.2131 227.243 80.4681 227.265 80.7301C227.283 80.9902 227.255 81.2515 227.184 81.5021L227.022 82.2419L226.949 82.1246L231.8 83.3616L231.683 83.4222C231.848 82.8987 232.127 82.4179 232.498 82.0135C232.87 81.6092 233.325 81.2911 233.833 81.0818C234.864 80.726 235.895 80.4148 236.938 80.0793L243.292 78.0582L256.498 73.8503C256.922 73.7257 257.373 73.7333 257.793 73.8719C258.213 74.0106 258.58 74.2737 258.846 74.6264C258.97 74.8004 259.077 74.9859 259.166 75.1802L259.453 75.7339L260.027 76.8374C260.784 78.3034 261.537 79.76 262.286 81.2071L266.688 89.6957L274.878 105.533V105.569V105.606L274.36 107.053V107.101H274.308L249.052 113.084H244.606L232.964 106.899L229.872 105.246L229.063 104.818L228.776 104.644Z" fill="#263238"/>
<g opacity="0.3">
<path d="M241.178 109.446L229.641 103.928L213.711 77.6782L227.782 83.1352L227.487 83.8911L215.635 79.2911L230.207 103.302L241.526 108.714L241.178 109.446Z" fill="black"/>
</g>
<g opacity="0.3">
<path d="M250.499 111.063L235.983 84.8612L257.375 77.9895L271.316 104.999L250.499 111.063ZM237.16 85.3301L250.883 110.105L270.14 104.47L256.962 78.9596L237.16 85.3301Z" fill="black"/>
</g>
<path d="M247.916 112.704C247.868 112.732 244.226 106.236 239.783 98.1519C235.341 90.0675 231.788 83.5313 231.836 83.503C231.885 83.4747 235.527 89.9705 239.969 98.0549C244.411 106.139 247.969 112.68 247.916 112.704Z" fill="#263238"/>
<path d="M226.917 82.2055C226.987 82.3002 227.049 82.4002 227.103 82.5046L227.604 83.3737C228.037 84.1336 228.647 85.2371 229.399 86.6074C230.899 89.34 232.936 93.1396 235.163 97.3476L240.859 108.12L242.593 111.382C242.787 111.754 242.94 112.053 243.057 112.271C243.117 112.373 243.167 112.48 243.207 112.591C243.137 112.496 243.075 112.396 243.021 112.292L242.52 111.422C242.087 110.663 241.477 109.559 240.725 108.189C239.225 105.452 237.188 101.652 234.961 97.4446L229.253 86.6721L227.519 83.4141C227.325 83.0422 227.172 82.7431 227.054 82.5248C226.999 82.4229 226.953 82.316 226.917 82.2055Z" fill="#263238"/>
<path d="M229.645 82.6905C229.634 82.2791 229.694 81.8687 229.823 81.4779C229.883 81.0699 230.012 80.6749 230.203 80.3097C230.214 80.7211 230.154 81.1314 230.025 81.5224C229.965 81.9303 229.837 82.3253 229.645 82.6905Z" fill="#263238"/>
<g opacity="0.3">
<path d="M232.325 90.779L240.899 106.661L243.882 107.089L235.357 91.3287L232.325 90.779Z" fill="black"/>
</g>
<g opacity="0.3">
<path d="M229.278 86.5387L234.027 87.4886L235.07 89.2187L230.203 88.2567L229.354 86.7974" fill="black"/>
</g>
<g opacity="0.3">
<path d="M246.218 86.5145L245.382 84.5783L250.697 82.6906L251.623 84.6025L246.218 86.5145Z" fill="black"/>
</g>
<g opacity="0.3">
<path d="M245.863 96.3411L242.916 90.779L257.965 85.2291L260.621 90.779L245.863 96.3411Z" fill="black"/>
</g>
<path d="M294.248 7.32383C294.834 6.77035 295.541 6.36036 296.312 6.12611C297.084 5.89185 297.899 5.83969 298.694 5.97374C299.337 6.08692 300.032 6.31733 300.61 6.01012C300.984 5.73009 301.309 5.38998 301.572 5.00362C301.824 4.75289 302.124 4.55554 302.453 4.42339C302.783 4.29125 303.136 4.22703 303.491 4.23457C303.846 4.24212 304.196 4.32129 304.52 4.46732C304.844 4.61336 305.135 4.82326 305.376 5.08446C305.569 5.38056 305.811 5.64165 306.091 5.85652C307.304 6.58007 308.828 4.28006 310.053 5.01574C309.472 5.20421 308.963 5.56521 308.594 6.05054C308.417 6.2981 308.328 6.5978 308.341 6.90184C308.354 7.20588 308.468 7.49675 308.666 7.72805C309.798 8.82349 311.852 6.59624 313.113 7.51786C313.796 8.01909 313.836 9.22771 314.649 9.4662C314.974 9.51499 315.305 9.50678 315.627 9.44194C316.179 9.42943 316.715 9.62698 317.127 9.99466C317.539 10.3623 317.796 10.8727 317.846 11.4226C317.895 12.3645 317.369 13.4841 318.04 14.143C318.444 14.5472 319.119 14.523 319.701 14.4623C319.646 15.3254 319.394 16.1645 318.966 16.916C319.689 17.4195 320.189 18.1838 320.361 19.0484C320.533 19.9129 320.363 20.8104 319.887 21.5524C320.64 22.1265 321.273 22.8419 321.751 23.6583C322.175 24.4991 322.232 25.5986 321.642 26.3343C321.489 26.485 321.359 26.6581 321.258 26.8476C321.181 27.0686 321.168 27.3069 321.221 27.5348C321.359 28.42 321.702 29.2891 321.626 30.1824C321.549 31.0758 320.845 32.0216 319.956 31.9044C319.75 31.8761 319.524 31.7953 319.346 31.9044C319.281 31.9525 319.227 32.013 319.187 32.0825C319.147 32.152 319.121 32.2289 319.111 32.3086C319.019 32.9462 319.03 33.5945 319.144 34.2287C319.256 34.8698 319.122 35.5297 318.768 36.076C318.363 36.5812 317.478 36.7187 317.102 36.1972L317.721 39.2208C317.842 39.819 317.931 40.5426 317.478 40.9549C316.884 41.4965 315.886 40.9994 315.494 40.3001C315.101 39.6008 315.021 38.7559 314.608 38.0688C314.414 37.8057 314.246 37.5241 314.107 37.228C314.022 36.9814 314.002 36.6944 313.812 36.5206C313.428 36.1689 312.781 36.6985 312.81 37.2199C312.838 37.7414 313.234 38.1496 313.541 38.57C313.848 38.9904 314.083 39.5765 313.796 40.0131C313.658 40.2233 313.42 40.3526 313.286 40.5668C312.826 41.3025 313.901 42.0948 313.99 42.9598C314.059 43.5985 313.565 44.1482 313.088 44.5767C312.506 45.1022 311.415 45.4943 311.1 44.7788C311.041 44.5119 310.996 44.2421 310.966 43.9704C310.835 43.6791 310.635 43.424 310.384 43.2266C309.822 42.6619 309.437 41.9455 309.277 41.1651C309.899 42.014 310.542 43.1256 310.024 44.0391C309.769 44.3971 309.461 44.7146 309.111 44.9809C308.484 45.5711 308.076 46.3593 307.458 46.9576C306.839 47.5558 305.841 47.9398 305.117 47.483C305.23 47.9062 305.196 48.3553 305.021 48.7567C304.846 49.1582 304.54 49.4885 304.153 49.6935C303.766 49.8985 303.321 49.9663 302.89 49.8856C302.46 49.805 302.069 49.5807 301.782 49.2495C301.651 49.0499 301.479 48.8804 301.277 48.7523C301.03 48.6833 300.768 48.6833 300.521 48.7523C299.755 48.8425 298.979 48.7201 298.279 48.3985C297.578 48.077 296.979 47.5686 296.548 46.9293L297.328 46.6948C295.828 46.424 294.264 46.1289 293.051 45.2073C291.839 44.2857 291.107 42.5354 291.839 41.1893C292.15 40.6073 292.724 40.0211 292.51 39.3987C292.36 38.9661 291.891 38.7519 291.471 38.5902L286.175 36.4317C285.319 36.084 284.417 35.7 283.871 34.9522C283.326 34.2044 283.334 32.9756 284.13 32.5027C283.751 31.6454 283.137 30.9126 282.36 30.3886C281.491 29.8106 280.456 29.5155 279.562 28.9738C278.669 28.4322 277.873 27.4984 277.99 26.4596C278.107 25.4207 279.583 24.681 280.266 25.4773C280.197 23.8968 277.404 23.6664 277.242 22.094C277.109 20.8207 278.758 20.2427 279.639 19.3089C279.49 18.8603 279.057 18.5571 278.896 18.0963C278.552 17.1666 279.542 16.3015 280.456 15.9216C281.369 15.5416 282.477 15.1616 282.744 14.2077C283.01 13.2537 282.222 12.0694 282.788 11.2326C282.955 11.0055 283.2 10.8492 283.476 10.7945C283.753 10.7399 284.039 10.7909 284.28 10.9376C285.088 9.16303 288.427 10.691 289.502 9.06198C289.594 8.93681 289.643 8.78481 289.64 8.62946C289.62 8.49654 289.565 8.37114 289.482 8.26567C289.114 7.75231 288.52 7.45723 288.039 7.05301C287.558 6.64879 287.17 5.97374 287.425 5.39167C287.679 4.80959 288.799 4.88639 288.754 5.52102C288.927 5.3985 289.126 5.31707 289.335 5.28295C289.544 5.24883 289.758 5.26292 289.961 5.32415C290.163 5.38537 290.349 5.4921 290.505 5.63621C290.66 5.78031 290.78 5.95798 290.856 6.15564C291.317 5.65037 292.174 5.69887 292.744 6.07479C293.29 6.50527 293.725 7.05953 294.013 7.69167" fill="#263238"/>
<path d="M301.851 27.7329C301.354 25.1176 299.49 22.9631 297.405 21.2977C296.573 20.5474 295.569 20.0142 294.482 19.7455C293.383 19.5434 292.117 19.8991 291.535 20.8531L291.641 22.7165C291.329 25.6673 293.548 28.2099 294.567 30.9949C295.012 32.2076 295.375 33.6587 296.532 34.2004C297.167 34.4544 297.874 34.4645 298.516 34.2287C301.059 33.4243 302.348 30.3482 301.851 27.7329Z" fill="#455A64"/>
<path d="M301.778 41.4076C302.607 40.2864 303.016 38.9096 302.933 37.5178C302.85 36.1259 302.281 34.8073 301.326 33.7921C302.429 32.438 302.057 30.328 300.966 28.9657C299.875 27.6035 298.241 26.8113 296.665 26.0594C295.836 22.0536 291.378 19.1877 287.392 20.1174C285.351 17.0534 280.945 16.5279 277.396 17.5223C276.549 17.8303 275.663 18.0154 274.764 18.072C274.107 18.015 273.454 17.9178 272.808 17.781C269.218 17.2596 265.621 19.7536 264.186 23.0884C263.995 23.6364 263.733 24.1569 263.406 24.6366C262.933 25.2348 262.221 25.5824 261.615 26.0392C260.959 26.5414 260.419 27.1789 260.031 27.9085C259.643 28.6381 259.417 29.4426 259.368 30.2673C259.295 31.6619 259.727 33.1494 259.125 34.4106C258.822 35.0452 258.284 35.5505 258.05 36.2134C257.363 38.1254 259.473 40.106 259.056 42.0948C258.972 42.499 258.786 42.879 258.652 43.2751C258.415 44.0983 258.482 44.9796 258.842 45.757C259.121 46.3472 259.574 46.8929 259.606 47.5477C259.567 48.0414 259.464 48.5278 259.299 48.9948C259.044 50.1832 261.567 54.7954 262.585 55.4623L293.306 56.0485C294.469 55.7982 295.526 55.1929 296.331 54.316C297.135 53.4391 297.648 52.334 297.797 51.1534C297.786 50.757 297.889 50.3659 298.092 50.0256C298.334 49.7907 298.621 49.6077 298.937 49.488C300.925 48.4491 301.192 45.7328 301.006 43.4974C300.961 43.1856 300.971 42.8682 301.035 42.5597C301.202 42.1291 301.455 41.7371 301.778 41.4076Z" fill="#263238"/>
<path d="M293.023 41.3672C293.168 35.9304 289.826 29.6448 284.453 26.9366C281.066 25.2267 278.39 25.1903 276.624 24.964C274.108 24.6938 271.57 25.1972 269.348 26.407C267.65 26.787 261.389 32.4056 261.005 38.566C260.576 45.4094 260.326 53.7848 261.138 58.8901C262.775 69.1573 270.645 70.4589 270.645 70.4589L270.29 78.5958L276.025 89.2349L290.796 74.1939L293.023 41.3672Z" fill="#FFBF9D"/>
<path d="M276.507 57.3419C276.459 56.8162 276.219 56.3267 275.832 55.9676C275.481 55.632 275.03 55.4209 274.548 55.3668C274.066 55.3127 273.58 55.4187 273.164 55.6685C272.729 55.9668 272.381 56.3757 272.156 56.8532C271.932 57.3307 271.839 57.8594 271.886 58.3848C272.093 58.7076 272.366 58.9827 272.688 59.1918C273.009 59.4009 273.371 59.5392 273.75 59.5975C273.871 59.5975 273.992 59.6258 274.114 59.6298C274.718 59.6574 275.31 59.4585 275.775 59.072C276.02 58.8576 276.213 58.5905 276.339 58.2909C276.466 57.9913 276.523 57.6668 276.507 57.3419Z" fill="#FF9A6C"/>
<path d="M263.313 47.7458C263.309 48.0894 263.441 48.4207 263.679 48.6685C263.917 48.9164 264.243 49.0611 264.586 49.0716C264.754 49.0848 264.922 49.0643 265.081 49.0113C265.241 48.9584 265.388 48.874 265.514 48.7632C265.64 48.6525 265.743 48.5175 265.816 48.3664C265.889 48.2152 265.932 48.0509 265.94 47.8832C265.945 47.54 265.814 47.2087 265.577 46.9608C265.339 46.7128 265.014 46.5679 264.671 46.5574C264.503 46.5442 264.335 46.5647 264.175 46.6176C264.016 46.6705 263.868 46.7548 263.742 46.8655C263.615 46.9763 263.512 47.1112 263.438 47.2624C263.365 47.4135 263.322 47.5779 263.313 47.7458Z" fill="#263238"/>
<path d="M263.333 42.5031C263.499 42.6769 264.497 41.9372 265.912 41.9372C267.327 41.9372 268.37 42.6486 268.523 42.4748C268.596 42.398 268.43 42.0908 267.978 41.7593C267.364 41.3344 266.634 41.1099 265.888 41.1166C265.152 41.1159 264.434 41.3479 263.838 41.7795C263.402 42.115 263.256 42.4263 263.333 42.5031Z" fill="#263238"/>
<path d="M271.632 53.6878C271.632 53.607 270.759 53.4574 269.332 53.2836C268.968 53.2472 268.625 53.1745 268.564 52.9279C268.533 52.5544 268.617 52.1803 268.806 51.8567L269.874 49.0999C271.357 45.175 272.432 41.9493 272.275 41.8887C272.117 41.828 270.783 44.9648 269.3 48.8897C268.944 49.8558 268.6 50.7774 268.277 51.6627C268.049 52.0987 267.983 52.6015 268.091 53.0815C268.143 53.2092 268.224 53.3233 268.327 53.415C268.43 53.5068 268.552 53.5738 268.685 53.611C268.886 53.6635 269.092 53.692 269.3 53.6959C270.735 53.7646 271.628 53.7687 271.632 53.6878Z" fill="#263238"/>
<path d="M270.662 70.4589C275.494 70.5277 280.251 69.2559 284.405 66.7845C284.405 66.7845 280.767 74.1615 270.496 73.2076L270.662 70.4589Z" fill="#FF9A6C"/>
<path d="M275.803 54.666C275.573 54.666 275.569 56.1899 274.255 57.2853C272.942 58.3808 271.3 58.207 271.288 58.4252C271.288 58.5182 271.656 58.7203 272.347 58.7405C273.248 58.7543 274.125 58.4478 274.821 57.8755C275.496 57.33 275.931 56.5424 276.034 55.6806C276.078 55.0379 275.909 54.6579 275.803 54.666Z" fill="#263238"/>
<path d="M263.899 37.1916C264.138 37.5392 265.225 37.3088 266.49 37.4139C267.755 37.519 268.81 37.8505 269.089 37.5392C269.215 37.3856 269.089 37.0501 268.637 36.7025C268.035 36.2665 267.321 36.0138 266.579 35.9749C265.842 35.9138 265.103 36.0698 264.453 36.4236C263.98 36.7106 263.802 37.0259 263.899 37.1916Z" fill="#263238"/>
<path d="M278.548 48.3481C278.536 48.6884 278.394 49.0111 278.15 49.2485C277.905 49.4858 277.579 49.6195 277.238 49.6214C277.07 49.6284 276.903 49.6018 276.745 49.5431C276.588 49.4844 276.443 49.3948 276.321 49.2795C276.199 49.1643 276.1 49.0257 276.032 48.872C275.964 48.7183 275.928 48.5525 275.925 48.3845C275.935 48.0416 276.078 47.7163 276.324 47.4772C276.57 47.2381 276.899 47.104 277.242 47.1031C277.41 47.0971 277.578 47.1248 277.735 47.1845C277.892 47.2442 278.036 47.3347 278.157 47.4507C278.279 47.5667 278.376 47.7059 278.443 47.86C278.51 48.0141 278.546 48.18 278.548 48.3481Z" fill="#263238"/>
<path d="M282.724 43.0488C282.554 43.2145 281.584 42.4424 280.169 42.3899C278.754 42.3373 277.687 43.0124 277.542 42.8345C277.469 42.7537 277.647 42.4303 278.112 42.1393C278.74 41.7375 279.477 41.5398 280.222 41.5734C280.956 41.5977 281.664 41.8553 282.243 42.309C282.671 42.6607 282.805 42.976 282.724 43.0488Z" fill="#263238"/>
<path d="M283.124 38.3032C282.833 38.6145 281.749 38.2385 280.44 38.1739C279.13 38.1092 278.014 38.3032 277.76 37.9556C277.655 37.7899 277.841 37.4746 278.338 37.1876C279.018 36.8445 279.777 36.6894 280.536 36.7384C281.296 36.7875 282.029 37.0389 282.659 37.4665C283.112 37.8101 283.249 38.1456 283.124 38.3032Z" fill="#263238"/>
<path d="M291.329 51.0967C291.329 50.3287 292.214 48.5259 292.97 48.4087C294.991 48.0934 298.629 48.2551 298.658 53.3725C298.706 60.3736 291.669 58.9831 291.653 58.781C291.636 58.5789 291.325 53.7363 291.329 51.0967Z" fill="#FFBF9D"/>
<path d="M293.569 56.2101C293.597 56.1859 293.69 56.295 293.896 56.388C294.189 56.5042 294.516 56.5042 294.809 56.388C295.545 56.1091 296.16 54.9328 296.184 53.6716C296.2 53.0705 296.08 52.4734 295.832 51.9254C295.765 51.707 295.645 51.5083 295.484 51.3464C295.323 51.1844 295.125 51.0641 294.906 50.9957C294.766 50.9597 294.618 50.9739 294.487 51.0359C294.357 51.098 294.252 51.2039 294.191 51.3352C294.098 51.5333 294.143 51.6707 294.106 51.6829C294.07 51.695 293.957 51.5697 294.009 51.2787C294.046 51.105 294.142 50.9494 294.28 50.8381C294.472 50.6911 294.715 50.6258 294.955 50.6562C295.243 50.7102 295.512 50.8376 295.737 51.0259C295.961 51.2142 296.133 51.4572 296.236 51.7314C296.54 52.335 296.69 53.0042 296.673 53.6797C296.641 55.0904 295.925 56.4163 294.915 56.7154C294.727 56.7721 294.53 56.7855 294.336 56.7547C294.143 56.7239 293.959 56.6497 293.799 56.5375C293.581 56.3799 293.544 56.2223 293.569 56.2101Z" fill="#FF9A6C"/>
<path d="M259.42 38.663C260.835 37.7778 261.74 36.5732 261.651 34.9078C262.589 35.1867 263.543 33.9821 264.077 33.1697C264.61 32.3572 265.289 31.957 265.253 30.9707C265.227 30.778 265.25 30.5817 265.322 30.4007C265.463 30.134 265.799 30.045 266.086 29.9561C266.832 29.7149 267.507 29.2903 268.047 28.7211C268.587 28.1519 268.976 27.4564 269.178 26.6981C270.685 27.3596 272.332 27.6374 273.972 27.5065C274.337 28.0344 274.83 28.4611 275.405 28.7466C275.98 29.0322 276.617 29.1674 277.259 29.1395C277.9 29.1117 278.523 28.9217 279.071 28.5873C279.619 28.253 280.073 27.7852 280.391 27.2276C280.627 27.6545 280.953 28.0253 281.346 28.3148C281.739 28.6043 282.189 28.8057 282.667 28.9051C283.622 29.0973 284.599 29.1504 285.569 29.0628C285.389 30.012 285.557 30.9945 286.042 31.8299C286.528 32.6652 287.299 33.2974 288.213 33.6102C288.459 33.687 288.746 33.7639 288.864 34.0145C288.898 34.1453 288.906 34.2816 288.887 34.4155C288.868 34.5494 288.823 34.6782 288.754 34.7946C288.621 35.1973 288.571 35.6226 288.605 36.0452C288.64 36.4679 288.76 36.8792 288.957 37.2546C289.155 37.6299 289.426 37.9617 289.754 38.2301C290.082 38.4985 290.461 38.6979 290.868 38.8166C290.603 39.0534 290.394 39.3472 290.258 39.6761C290.122 40.0049 290.062 40.3603 290.082 40.7157C290.103 41.071 290.204 41.4171 290.377 41.728C290.55 42.0389 290.791 42.3067 291.083 42.5112C291.337 42.6648 291.669 42.8467 291.628 43.1417C291.605 43.2536 291.552 43.357 291.475 43.4409C290.953 44.1321 290.436 44.892 290.371 45.753C290.307 46.614 290.893 47.5882 291.758 47.6286C291.514 47.8107 291.309 48.0403 291.156 48.3036C291.004 48.5669 290.906 48.8584 290.868 49.1606C290.868 49.7709 291.475 50.3732 292.041 50.1711C292.283 50.0781 295.768 49.391 295.921 49.1848C297.902 46.4968 295.412 43.5258 295.218 40.1909C294.953 36.8464 293.917 33.6087 292.19 30.7322C291.516 29.502 290.682 28.3669 289.708 27.357C288.536 26.2721 287.245 25.3229 285.86 24.5274C284.09 23.4239 282.271 22.3285 280.242 21.8475C276.466 20.9582 272.561 22.3285 269.016 23.9575C267.653 24.5291 266.374 25.2824 265.213 26.1969C263.903 27.3892 262.818 28.806 262.007 30.3805C260.758 32.6078 259.719 35.0089 259.473 37.5473" fill="#263238"/>
<path d="M258.05 36.2134C258.134 35.9442 258.261 35.6903 258.426 35.4615C258.575 35.2271 258.785 34.9563 258.984 34.6086C259.21 34.2072 259.348 33.7621 259.388 33.303C259.426 32.7265 259.417 32.1479 259.359 31.573C259.283 30.8797 259.302 30.1792 259.416 29.4912C259.57 28.7017 259.883 27.9519 260.338 27.2882C260.587 26.9256 260.877 26.5933 261.203 26.2979C261.549 26.0007 261.918 25.7305 262.306 25.4895C262.71 25.2445 263.071 24.9345 263.373 24.5719C263.651 24.1641 263.875 23.7226 264.04 23.2582C264.894 21.1853 266.461 19.4862 268.458 18.4682C268.996 18.1983 269.561 17.9869 270.144 17.8376C270.747 17.6954 271.364 17.6262 271.983 17.6314C272.3 17.6409 272.615 17.6666 272.929 17.7082C273.24 17.7567 273.548 17.8254 273.859 17.882C274.476 18.0114 275.113 18.0114 275.73 17.882C276.357 17.7567 276.971 17.5344 277.618 17.3727C278.936 17.0285 280.302 16.9056 281.66 17.0089C282.356 17.0761 283.044 17.2115 283.714 17.4131C285.093 17.7967 286.319 18.599 287.222 19.7091C287.307 19.8263 287.392 19.9436 287.481 20.0567L287.368 20.0123C289.407 19.6238 291.517 20.0317 293.265 21.1521C295.012 22.2724 296.264 24.02 296.762 26.0351L296.709 25.9664C297.553 26.3463 298.371 26.7797 299.159 27.264C299.931 27.7356 300.609 28.3454 301.16 29.0627C301.681 29.7719 301.995 30.6113 302.069 31.4881C302.155 32.3336 301.913 33.1797 301.394 33.8528V33.7355C302.337 34.7092 302.909 35.9819 303.011 37.3331C303.126 38.5397 302.869 39.7527 302.275 40.8094C302.139 41.0516 301.983 41.2828 301.811 41.5006C301.638 41.7005 301.476 41.9096 301.326 42.1271C301.187 42.3322 301.101 42.5682 301.075 42.8143C301.061 43.0556 301.068 43.2977 301.095 43.5378C301.172 44.4246 301.145 45.3172 301.014 46.1976C300.917 46.9096 300.682 47.596 300.323 48.2187C300.052 48.6756 299.678 49.0631 299.232 49.3505C298.872 49.589 298.549 49.682 298.371 49.8113C298.279 49.8727 298.194 49.9431 298.116 50.0215C298.179 49.9272 298.262 49.8473 298.359 49.7871C298.532 49.6497 298.856 49.5486 299.203 49.3061C299.636 49.0165 299.996 48.6304 300.254 48.1783C300.602 47.5615 300.827 46.8835 300.917 46.1814C301.035 45.3092 301.054 44.4265 300.974 43.55C300.943 43.3019 300.935 43.0517 300.95 42.8022C300.976 42.5348 301.067 42.278 301.216 42.0544C301.366 41.8328 301.528 41.6196 301.701 41.4157C301.863 41.1975 302.009 40.9678 302.138 40.7285C302.711 39.6941 302.953 38.5093 302.833 37.3331C302.734 36.024 302.179 34.7911 301.265 33.8487L301.208 33.7921L301.257 33.7315C301.747 33.0924 301.971 32.2887 301.883 31.4881C301.809 30.6488 301.506 29.8461 301.006 29.1678C300.467 28.4733 299.805 27.8829 299.054 27.4257C298.273 26.9484 297.463 26.5205 296.629 26.1443L296.584 26.1241V26.0715C296.092 24.1128 294.871 22.4157 293.17 21.327C291.47 20.2384 289.417 19.8404 287.433 20.2144H287.364L287.319 20.1578C287.238 20.0446 287.154 19.9355 287.069 19.8223C286.195 18.7323 285.002 17.9423 283.657 17.5627C282.997 17.3726 282.32 17.248 281.636 17.1908C280.304 17.0871 278.964 17.2059 277.671 17.5425C277.036 17.7001 276.413 17.9265 275.767 18.0518C275.445 18.1165 275.117 18.149 274.789 18.1488C274.464 18.1405 274.141 18.1053 273.822 18.0437C273.511 17.9871 273.204 17.9184 272.897 17.8699C272.592 17.8283 272.286 17.8026 271.979 17.7931C271.376 17.7854 270.775 17.852 270.189 17.9912C269.619 18.1351 269.066 18.3397 268.539 18.6015C266.572 19.6003 265.027 21.269 264.182 23.3067C264.01 23.7841 263.777 24.2378 263.491 24.6568C263.175 25.0299 262.801 25.3493 262.383 25.6026C261.997 25.842 261.63 26.1124 261.288 26.4111C260.97 26.6981 260.686 27.0209 260.443 27.3731C259.992 28.0188 259.679 28.751 259.525 29.5236C259.406 30.2 259.381 30.8895 259.448 31.573C259.501 32.1539 259.501 32.7383 259.448 33.3192C259.408 33.7859 259.27 34.2389 259.044 34.6491C258.834 35.0007 258.62 35.2635 258.466 35.4939C258.346 35.6632 258.239 35.8416 258.147 36.0275C258.078 36.1447 258.054 36.2134 258.05 36.2134Z" fill="#455A64"/>
<path d="M284.11 18.5733C284.11 18.5733 283.924 18.4681 283.584 18.2984C283.106 18.063 282.59 17.9113 282.06 17.8497C281.277 17.7516 280.481 17.8661 279.756 18.1812C278.869 18.5711 278.128 19.2337 277.642 20.0729C277.495 20.3283 277.377 20.5995 277.291 20.8813C277.246 21.0005 277.227 21.1279 277.236 21.2549C277.245 21.3819 277.282 21.5055 277.343 21.617L277.513 21.8555L277.23 21.7747C276.502 21.5759 275.725 21.6672 275.063 22.0293C274.54 22.3235 274.124 22.7765 273.875 23.3228C273.708 23.6848 273.614 24.0764 273.6 24.4749C273.6 24.7538 273.6 24.9074 273.6 24.9114C273.6 24.9155 273.6 24.875 273.568 24.8023C273.546 24.6945 273.534 24.5849 273.531 24.4749C273.518 23.9508 273.646 23.4329 273.901 22.975C274.157 22.5172 274.53 22.1361 274.983 21.8717C275.683 21.4741 276.512 21.3681 277.291 21.5766L277.177 21.7342C277.096 21.5986 277.047 21.4463 277.033 21.2888C277.019 21.1313 277.041 20.9726 277.097 20.8247C277.186 20.5309 277.309 20.2487 277.464 19.984C277.967 19.1079 278.74 18.4186 279.667 18.0195C280.428 17.685 281.267 17.5702 282.089 17.688C282.632 17.762 283.156 17.939 283.633 18.2094C283.762 18.2814 283.887 18.3625 284.005 18.452C284.073 18.5328 284.11 18.5652 284.11 18.5733Z" fill="#455A64"/>
<path d="M295.448 26.6375C295.448 26.6375 295.375 26.7385 295.206 26.884C294.957 27.0961 294.686 27.2804 294.397 27.4338C293.968 27.6692 293.491 27.8072 293.003 27.838C292.377 27.8847 291.757 27.6958 291.264 27.3085L291.418 27.2842C291.353 27.3772 291.285 27.4742 291.212 27.5712C291.139 27.6682 291.054 27.7531 290.973 27.8461C290.488 28.346 289.887 28.7181 289.223 28.9294C288.686 29.1073 288.118 29.1774 287.554 29.1355C287.175 29.1062 286.803 29.0204 286.45 28.8809C286.32 28.834 286.198 28.7686 286.086 28.6869C286.564 28.8475 287.06 28.9479 287.562 28.986C288.111 29.0078 288.659 28.9269 289.179 28.7475C289.806 28.5333 290.373 28.1747 290.836 27.7006C290.913 27.6116 290.994 27.5308 291.062 27.4419L291.26 27.171L291.329 27.074L291.414 27.1468C291.867 27.5047 292.435 27.6844 293.011 27.6521C293.478 27.6294 293.935 27.5082 294.353 27.2963C295.064 26.9487 295.428 26.6051 295.448 26.6375Z" fill="#455A64"/>
<path d="M299.135 33.1373C299.135 33.1373 299.135 33.1818 299.135 33.2666C299.101 33.3864 299.048 33.4998 298.977 33.6021C298.707 33.9851 298.303 34.2521 297.845 34.35C297.172 34.4704 296.479 34.3932 295.848 34.1276C295.473 34.0033 295.104 33.8575 294.745 33.6911C294.33 33.5194 293.988 33.2076 293.779 32.8099C293.779 32.7695 293.751 32.729 293.734 32.6967L293.9 32.7452C293.275 33.262 292.574 33.6805 291.822 33.9862C291.197 34.2341 290.516 34.3041 289.854 34.1883C289.409 34.1117 288.991 33.9209 288.641 33.6345C288.547 33.5568 288.461 33.4687 288.387 33.3717C288.338 33.3071 288.314 33.2707 288.322 33.2666C288.33 33.2626 288.443 33.3879 288.69 33.5698C289.041 33.8199 289.447 33.9808 289.874 34.0387C290.509 34.131 291.156 34.0514 291.75 33.8083C292.478 33.504 293.159 33.0955 293.771 32.5956L293.884 32.5067L293.936 32.6441L293.973 32.7412C294.161 33.0929 294.465 33.3686 294.834 33.5213C295.194 33.6951 295.565 33.8325 295.913 33.9619C296.51 34.2239 297.168 34.3135 297.813 34.2206C298.243 34.1412 298.631 33.9121 298.908 33.5739C298.995 33.4346 299.071 33.2886 299.135 33.1373Z" fill="#455A64"/>
<path d="M306.685 8.15248C306.685 8.15248 306.564 8.15247 306.354 8.21311C306.048 8.29792 305.775 8.47253 305.57 8.71434C305.248 9.08799 305.061 9.55942 305.04 10.0523C305.031 10.6976 305.118 11.3407 305.299 11.9602L305.327 12.0734H305.21C304.343 12.0494 303.492 12.3076 302.785 12.8091C302.388 13.0857 302.061 13.4512 301.83 13.8765C301.599 14.3017 301.47 14.775 301.455 15.2587C301.433 15.6993 301.513 16.1391 301.689 16.5437C301.865 16.9483 302.132 17.3068 302.469 17.591L302.704 17.7769H302.405C301.906 17.7771 301.412 17.8806 300.955 18.081C300.498 18.2813 300.087 18.5742 299.749 18.9411C299.21 19.531 298.891 20.2894 298.848 21.0875C298.815 21.613 298.895 22.1394 299.082 22.6316C299.211 22.9792 299.32 23.149 299.308 23.1611C299.273 23.1254 299.243 23.0845 299.219 23.0399C299.141 22.9192 299.074 22.7921 299.017 22.6599C298.801 22.162 298.699 21.622 298.718 21.0794C298.744 20.2438 299.063 19.4439 299.62 18.8198C299.971 18.4296 300.401 18.1172 300.88 17.9028C301.36 17.6884 301.879 17.5767 302.405 17.5748L302.344 17.7567C301.979 17.4534 301.69 17.0695 301.499 16.6352C301.309 16.201 301.221 15.7284 301.245 15.2546C301.25 14.726 301.389 14.2074 301.649 13.7469C301.903 13.3134 302.246 12.9387 302.655 12.6474C303.399 12.1256 304.294 11.8629 305.202 11.8996L305.113 12.0087C304.936 11.371 304.859 10.7096 304.887 10.0483C304.918 9.52803 305.129 9.03496 305.485 8.65371C305.708 8.40644 306.004 8.23656 306.33 8.16864C306.413 8.15169 306.499 8.14491 306.584 8.14843C306.657 8.14439 306.685 8.14843 306.685 8.15248Z" fill="#455A64"/>
<path d="M319.148 23.3471C319.148 23.3471 319.112 23.3754 319.035 23.4158C318.958 23.4562 318.841 23.5169 318.683 23.5775C318.23 23.7494 317.755 23.8556 317.272 23.8928C316.529 23.9512 315.781 23.8605 315.073 23.626C314.162 23.3306 313.348 22.7942 312.717 22.0738H312.874C312.542 22.6446 312.086 23.1341 311.541 23.5068C310.996 23.8794 310.374 24.1259 309.722 24.2283C309.019 24.3235 308.304 24.1952 307.679 23.8614C307.054 23.5277 306.549 23.0055 306.237 22.3689H306.419C306.247 22.8312 305.955 23.2398 305.574 23.5533C305.233 23.8367 304.845 24.057 304.426 24.204C303.738 24.4269 303.011 24.5013 302.292 24.4223C301.829 24.3799 301.37 24.3043 300.918 24.196C300.755 24.1664 300.596 24.1231 300.441 24.0666C300.605 24.0764 300.769 24.0993 300.93 24.1353C301.383 24.2166 301.841 24.2733 302.3 24.3051C303 24.3611 303.704 24.2745 304.37 24.0504C304.789 23.913 305.173 23.6854 305.495 23.3837C305.817 23.0821 306.069 22.7136 306.233 22.3042L306.318 22.0698L306.415 22.2961C306.714 22.8897 307.19 23.3754 307.777 23.6855C308.365 23.9956 309.035 24.1147 309.693 24.0262C310.315 23.9273 310.908 23.6928 311.429 23.3393C311.95 22.9859 312.387 22.5221 312.709 21.9808L312.777 21.8636L312.866 21.9687C313.472 22.6676 314.254 23.1922 315.13 23.4886C315.814 23.7294 316.54 23.8324 317.264 23.7917C317.911 23.7397 318.546 23.5898 319.148 23.3471Z" fill="#455A64"/>
<path d="M311.787 33.5739C311.787 33.5739 311.787 33.6305 311.706 33.7032C311.593 33.8017 311.451 33.8625 311.302 33.877C310.772 33.9203 310.24 33.8314 309.754 33.6183C309.02 33.3186 308.398 32.7971 307.975 32.1268C307.461 31.2955 307.279 30.3011 307.466 29.3417V29.3215L307.615 29.4347C306.745 29.8577 305.762 29.9922 304.81 29.8187C304.04 29.6777 303.313 29.3624 302.684 28.897C302.264 28.5859 301.888 28.2202 301.564 27.8097C301.44 27.6632 301.336 27.5016 301.253 27.3287C301.695 27.8727 302.205 28.3589 302.769 28.7758C303.388 29.2092 304.097 29.4991 304.842 29.6246C305.752 29.78 306.687 29.6486 307.518 29.2487L307.708 29.1517L307.672 29.3619V29.3821C307.507 30.2068 307.629 31.0632 308.018 31.8089C308.407 32.5546 309.039 33.1446 309.81 33.4809C310.273 33.6979 310.779 33.8058 311.29 33.7962C311.383 33.7938 311.475 33.773 311.561 33.7348C311.646 33.6966 311.723 33.6419 311.787 33.5739Z" fill="#455A64"/>
<path d="M291.386 8.39096C291.149 9.08217 291.04 9.81108 291.066 10.5414C291.131 11.6988 291.612 12.7937 292.422 13.6236C293.231 14.4536 294.313 14.9626 295.468 15.0565H295.598L295.557 15.1818C295.147 16.5064 295.196 17.9304 295.695 19.224C295.772 19.4403 295.866 19.6498 295.978 19.8506C296.013 19.9238 296.066 19.9878 296.13 20.0376C296.195 20.0873 296.27 20.1216 296.35 20.1376C296.399 20.1439 296.45 20.1397 296.498 20.125C296.546 20.1104 296.591 20.0857 296.629 20.0527C296.677 20.0001 296.689 19.9597 296.697 19.9638C296.705 19.9678 296.697 20.0082 296.657 20.0769C296.618 20.1221 296.57 20.1574 296.515 20.1799C296.46 20.2024 296.401 20.2114 296.342 20.2063C296.248 20.1967 296.158 20.1644 296.08 20.1123C296.002 20.0601 295.938 19.9897 295.893 19.9072C295.767 19.7066 295.659 19.4956 295.569 19.2766C295.02 17.959 294.947 16.4908 295.363 15.1253L295.452 15.2586C294.873 15.2166 294.307 15.0715 293.779 14.8302C292.943 14.4625 292.23 13.864 291.723 13.105C291.216 12.346 290.937 11.458 290.917 10.5455C290.897 9.99739 290.974 9.45011 291.143 8.92857C291.189 8.79029 291.245 8.65525 291.309 8.52435C291.328 8.47639 291.354 8.43145 291.386 8.39096Z" fill="#455A64"/>
<path d="M296.176 48.6715V47.5558L284.963 43.9623C280.965 42.2525 275.262 43.2428 271.915 45.3084L269.008 45.3852L269.037 45.3407C265.71 42.7173 260.103 42.1878 255.754 44.0836L255.859 44.5484C255.859 44.5767 255.887 44.6454 255.908 44.7424L256.005 45.1467C256.591 47.7256 257.282 50.4541 257.973 51.1857C258.438 51.6789 259.994 51.9497 261.28 52.0871C261.765 52.1437 262.209 52.176 262.529 52.2003C262.913 52.2246 266.32 52.4388 266.902 51.9133C267.484 51.3878 268.616 47.1839 268.923 45.9187L271.902 45.854C272.258 46.8525 272.865 51.3312 274.295 52.2326C275.726 53.134 282 52.8632 282.711 51.8284C283.217 51.0887 284.967 46.6948 285.363 45.3084L285.424 45.1871L296.176 48.6715ZM266.567 51.501C265.932 52.0022 259.145 51.6506 258.341 50.8017C257.662 50.0822 256.825 46.4038 256.51 45.0214V44.9648C260.39 43.4894 265.443 43.9583 268.337 46.1774C267.763 48.3602 266.931 51.1615 266.567 51.4889V51.501ZM282.295 51.501C281.85 52.1558 276.054 52.6894 274.578 51.7597C273.552 51.117 273.01 47.9883 272.557 46.1936C275.827 44.2372 281.418 43.4126 284.967 45.175C284.268 47.3571 283.374 49.4716 282.295 51.4929V51.501Z" fill="#263238"/>
<g opacity="0.3">
<path d="M273.143 46.5533C273.143 46.5533 273.754 50.9391 275.015 51.1412C276.276 51.3433 277.78 44.7182 277.78 44.7182C277.78 44.7182 273.944 45.4781 273.143 46.5533Z" fill="white"/>
</g>
<g opacity="0.3">
<path d="M256.995 45.1466C256.995 45.1466 257.605 50.1266 258.866 50.3287C260.128 50.5308 262.662 44.4635 262.662 44.4635C262.662 44.4635 257.795 44.0714 256.995 45.1466Z" fill="white"/>
</g>
<path d="M295.881 126.282C294.547 124.879 290.307 121.35 289.053 120.853C287.8 120.356 283.9 129.519 283.649 131.92C283.398 134.321 284.757 137.474 286.446 139.58C288.872 142.588 294.688 146.278 296.895 147.305C299.102 148.332 305.384 151.925 309.184 143.845C312.983 135.765 312.498 135.829 313.569 132.498C315.223 127.341 316.593 117.17 317.426 110.982C318.135 105.327 318.366 99.6218 318.117 93.9278C317.85 88.9196 316.443 84.4125 313.076 81.3121C310.247 78.7049 300.804 101.551 300.804 101.754C300.804 101.956 296.455 126.233 296.455 126.233" fill="#455A64"/>
<path d="M264.655 96.8019C264.655 96.8019 263.749 95.2496 267.028 94.7808C270.306 94.3119 272.662 94.8414 273.398 95.1567C274.134 95.472 278.249 99.3484 278.572 100.1C279.461 102.121 280.949 108.245 280.949 108.245L282.97 111.103L278.22 119.628C277.783 119.117 277.309 118.639 276.802 118.197C276.09 117.599 273.952 116.888 273.519 115.097C273.087 113.649 272.503 112.251 271.777 110.925C271.777 110.925 263.806 109.199 263.099 108.84C262.391 108.48 262.444 107.409 262.444 107.409C261.608 107.317 260.779 107.172 259.962 106.976C259.525 106.798 258.511 105.359 260.204 104.603C261.898 103.847 267.521 103.415 268.289 103.415C269.057 103.415 272.711 103.892 272.711 103.892C272.711 103.892 267.909 102.809 266.437 102.679C264.966 102.55 261.639 102.635 261.106 102.513C260.439 102.36 259.998 100.791 261.247 100.222C262.759 99.5303 265.172 99.3161 265.722 99.2959C267.852 99.2191 272.961 100.003 272.961 100.003L271.118 97.9539C269.619 97.6812 268.102 97.515 266.579 97.4567C265.886 97.4408 265.214 97.2122 264.655 96.8019Z" fill="#FFBF9D"/>
<path d="M276.025 117.203L289.385 137.195C289.385 137.195 295.044 130.287 295.448 125.259L295.699 122.789L280.743 108.237L276.025 117.203Z" fill="#FFBF9D"/>
<path d="M272.21 107.445C271.724 107.418 271.239 107.366 270.759 107.287C269.869 107.182 268.633 107.073 267.262 107.049C265.892 107.025 264.651 107.101 263.758 107.178C263.275 107.243 262.789 107.282 262.302 107.295C262.425 107.247 262.552 107.215 262.682 107.198C262.933 107.146 263.293 107.089 263.742 107.033C264.91 106.885 266.088 106.82 267.266 106.839C268.443 106.859 269.616 106.958 270.779 107.138C271.228 107.211 271.587 107.279 271.83 107.336C271.961 107.356 272.089 107.392 272.21 107.445Z" fill="#FF9A6C"/>
<path d="M304.244 124.649C304.07 124.558 303.905 124.451 303.751 124.329L302.458 123.399C301.37 122.591 299.875 121.496 298.233 120.263C297.481 119.662 296.668 119.14 295.808 118.706C295.431 118.536 295.038 118.401 294.636 118.302C294.286 118.208 293.927 118.148 293.565 118.124C293.043 118.08 292.521 118.202 292.073 118.472C291.762 118.67 291.624 118.832 291.608 118.82C291.592 118.808 291.637 118.771 291.701 118.694C291.799 118.586 291.909 118.488 292.029 118.403C292.481 118.092 293.025 117.941 293.573 117.975C293.945 117.991 294.315 118.044 294.676 118.133C295.093 118.227 295.499 118.362 295.889 118.537C296.761 118.967 297.584 119.492 298.343 120.101C299.988 121.338 301.467 122.462 302.53 123.286L303.787 124.273C303.952 124.383 304.105 124.509 304.244 124.649Z" fill="#263238"/>
<path d="M310.687 124.689C310.659 124.717 310.19 124.172 309.325 123.424C308.812 122.986 308.272 122.581 307.708 122.211C306.343 121.306 304.842 120.623 303.262 120.19C302.615 120.014 301.957 119.879 301.293 119.786C300.153 119.624 299.438 119.628 299.438 119.588C299.605 119.559 299.774 119.549 299.943 119.559C300.14 119.548 300.337 119.548 300.533 119.559C300.76 119.559 301.023 119.58 301.31 119.62C301.991 119.695 302.667 119.819 303.331 119.992C304.134 120.209 304.919 120.489 305.679 120.829C306.434 121.177 307.161 121.582 307.854 122.041C308.415 122.425 308.949 122.847 309.45 123.307C309.669 123.497 309.855 123.691 310.008 123.852C310.15 123.991 310.285 124.136 310.413 124.289C310.519 124.411 310.611 124.546 310.687 124.689Z" fill="#263238"/>
<path d="M308.428 81.4536C308.285 81.624 308.129 81.7835 307.963 81.9306C307.805 82.0761 307.619 82.258 307.413 82.4844C307.207 82.7108 306.956 82.9452 306.714 83.2443C306.471 83.5435 306.188 83.8466 305.905 84.2064C305.622 84.5661 305.352 84.9542 305.06 85.3665C303.837 87.1901 302.909 89.1955 302.312 91.3085C302.186 91.7976 302.057 92.2584 301.976 92.7031C301.895 93.1477 301.811 93.556 301.754 93.9157C301.697 94.2755 301.661 94.6393 301.629 94.9424C301.596 95.2456 301.572 95.5043 301.56 95.7186C301.557 95.9421 301.537 96.1651 301.499 96.3855C301.474 96.1628 301.467 95.9383 301.479 95.7145C301.479 95.5003 301.479 95.2375 301.511 94.9303C301.544 94.6231 301.548 94.2795 301.604 93.8955C301.661 93.5115 301.709 93.0871 301.802 92.6505C301.895 92.214 302.005 91.737 302.126 91.2398C302.708 89.0984 303.647 87.0705 304.903 85.2412C305.198 84.837 305.477 84.4327 305.768 84.0851C306.059 83.7375 306.33 83.4101 306.576 83.1271C306.823 82.8442 307.086 82.5976 307.304 82.3833C307.487 82.197 307.68 82.0202 307.882 81.8538C308.052 81.7054 308.235 81.5715 308.428 81.4536Z" fill="#263238"/>
<path d="M295.881 126.282C294.547 124.879 290.307 121.35 289.053 120.853C287.8 120.356 283.9 129.519 283.649 131.92C283.398 134.321 284.757 137.474 286.446 139.58C288.872 142.588 294.688 146.278 296.895 147.305C299.102 148.332 305.384 151.925 309.184 143.845C312.983 135.765 312.498 135.829 313.569 132.498C315.223 127.341 316.593 117.17 317.426 110.982C318.135 105.327 318.366 99.6218 318.117 93.9278C317.85 88.9196 316.443 84.4125 313.076 81.3121C310.247 78.7049 300.804 101.551 300.804 101.754C300.804 101.956 296.455 126.233 296.455 126.233" fill="#455A64"/>
<path d="M264.655 96.8019C264.655 96.8019 263.749 95.2496 267.028 94.7808C270.306 94.3119 272.662 94.8414 273.398 95.1567C274.134 95.472 278.249 99.3484 278.572 100.1C279.461 102.121 280.949 108.245 280.949 108.245L282.97 111.103L278.22 119.628C277.783 119.117 277.309 118.639 276.802 118.197C276.09 117.599 273.952 116.888 273.519 115.097C273.087 113.649 272.503 112.251 271.777 110.925C271.777 110.925 263.806 109.199 263.099 108.84C262.391 108.48 262.444 107.409 262.444 107.409C261.608 107.317 260.779 107.172 259.962 106.976C259.525 106.798 258.511 105.359 260.204 104.603C261.898 103.847 267.521 103.415 268.289 103.415C269.057 103.415 272.711 103.892 272.711 103.892C272.711 103.892 267.909 102.809 266.437 102.679C264.966 102.55 261.639 102.635 261.106 102.513C260.439 102.36 259.998 100.791 261.247 100.222C262.759 99.5303 265.172 99.3161 265.722 99.2959C267.852 99.2191 272.961 100.003 272.961 100.003L271.118 97.9539C269.619 97.6812 268.102 97.515 266.579 97.4567C265.886 97.4408 265.214 97.2122 264.655 96.8019Z" fill="#FFBF9D"/>
<path d="M276.025 117.203L289.385 137.195C289.385 137.195 295.044 130.287 295.448 125.259L295.699 122.789L280.743 108.237L276.025 117.203Z" fill="#FFBF9D"/>
<path d="M272.21 107.445C271.724 107.418 271.239 107.366 270.759 107.287C269.869 107.182 268.633 107.073 267.262 107.049C265.892 107.025 264.651 107.101 263.758 107.178C263.275 107.243 262.789 107.282 262.302 107.295C262.425 107.247 262.552 107.215 262.682 107.198C262.933 107.146 263.293 107.089 263.742 107.033C264.91 106.885 266.088 106.82 267.266 106.839C268.443 106.859 269.616 106.958 270.779 107.138C271.228 107.211 271.587 107.279 271.83 107.336C271.961 107.356 272.089 107.392 272.21 107.445Z" fill="#FF9A6C"/>
<path d="M304.244 124.649C304.07 124.558 303.905 124.451 303.751 124.329L302.458 123.399C301.37 122.591 299.875 121.496 298.233 120.263C297.481 119.662 296.668 119.14 295.808 118.706C295.431 118.536 295.038 118.401 294.636 118.302C294.286 118.208 293.927 118.148 293.565 118.124C293.043 118.08 292.521 118.202 292.073 118.472C291.762 118.67 291.624 118.832 291.608 118.82C291.592 118.808 291.637 118.771 291.701 118.694C291.799 118.586 291.909 118.488 292.029 118.403C292.481 118.092 293.025 117.941 293.573 117.975C293.945 117.991 294.315 118.044 294.676 118.133C295.093 118.227 295.499 118.362 295.889 118.537C296.761 118.967 297.584 119.492 298.343 120.101C299.988 121.338 301.467 122.462 302.53 123.286L303.787 124.273C303.952 124.383 304.105 124.509 304.244 124.649Z" fill="#263238"/>
<path d="M300.804 101.766C300.807 101.874 300.801 101.982 300.784 102.089C300.76 102.323 300.723 102.631 300.683 103.019C300.582 103.847 300.44 105.012 300.279 106.434L298.836 117.692C298.718 118.577 298.605 119.442 298.496 120.271L298.395 120.154C302.235 120.154 305.578 121.116 307.692 122.292C308.532 122.736 309.308 123.291 310 123.941C310.187 124.115 310.364 124.3 310.53 124.495C310.592 124.558 310.647 124.627 310.695 124.701C310.695 124.701 310.441 124.438 309.948 123.998C309.243 123.376 308.463 122.843 307.627 122.413C305.517 121.281 302.203 120.364 298.395 120.36H298.258V120.243C298.367 119.414 298.48 118.549 298.593 117.664C299.179 113.282 299.709 109.312 300.097 106.418C300.299 104.995 300.461 103.835 300.578 103.011C300.634 102.606 300.683 102.315 300.719 102.085C300.737 101.976 300.765 101.869 300.804 101.766Z" fill="#263238"/>
<path d="M308.428 81.4536C308.285 81.624 308.129 81.7835 307.963 81.9306C307.805 82.0761 307.619 82.258 307.413 82.4844C307.207 82.7108 306.956 82.9452 306.714 83.2443C306.471 83.5435 306.188 83.8466 305.905 84.2064C305.622 84.5661 305.352 84.9542 305.06 85.3665C303.837 87.1901 302.909 89.1955 302.312 91.3085C302.186 91.7976 302.057 92.2584 301.976 92.7031C301.895 93.1477 301.811 93.556 301.754 93.9157C301.697 94.2755 301.661 94.6393 301.629 94.9424C301.596 95.2456 301.572 95.5043 301.56 95.7186C301.557 95.9421 301.537 96.1651 301.499 96.3855C301.474 96.1628 301.467 95.9383 301.479 95.7145C301.479 95.5003 301.479 95.2375 301.511 94.9303C301.544 94.6231 301.548 94.2795 301.604 93.8955C301.661 93.5115 301.709 93.0871 301.802 92.6505C301.895 92.214 302.005 91.737 302.126 91.2398C302.708 89.0984 303.647 87.0705 304.903 85.2412C305.198 84.837 305.477 84.4327 305.768 84.0851C306.059 83.7375 306.33 83.4101 306.576 83.1271C306.823 82.8442 307.086 82.5976 307.304 82.3833C307.487 82.197 307.68 82.0202 307.882 81.8538C308.052 81.7054 308.235 81.5715 308.428 81.4536Z" fill="#263238"/>
<path d="M238.203 111.988C238.203 111.988 234.779 103.524 235.442 100.67C235.483 100.5 235.581 100.348 235.719 100.24C235.856 100.132 236.026 100.072 236.202 100.072C236.343 100.07 236.482 100.107 236.604 100.178C236.725 100.249 236.825 100.352 236.893 100.476L241.339 109.05C241.339 109.05 241.93 107.481 243.211 106.932C244.569 106.43 245.952 105.997 247.354 105.634L251.372 106.135C251.528 106.154 251.675 106.216 251.798 106.314C251.921 106.412 252.014 106.542 252.067 106.689C252.119 106.837 252.13 106.997 252.097 107.15C252.065 107.303 251.99 107.445 251.881 107.558C251.223 108.175 250.358 108.525 249.456 108.54C246.542 108.783 245.782 109.454 245.782 109.454L244.327 111.96C244.327 111.96 247.399 109.858 248.369 109.777C249.125 109.717 253.308 109.628 255.123 109.591C255.459 109.581 255.789 109.678 256.066 109.867C256.343 110.057 256.552 110.33 256.663 110.646C256.853 111.224 256.72 111.859 255.426 112.203C255.426 112.203 256.845 112.938 254.917 113.9C253.742 114.474 252.526 114.96 251.279 115.356L248.531 117.211L243.926 120.445L238.514 116.73C238.514 116.73 236.586 114.685 237.786 112.975C237.964 112.664 238.104 112.333 238.203 111.988Z" fill="#FFBF9D"/>
<path d="M251.619 114.777C251.619 114.777 254.198 116.976 254.764 118.351C255.33 119.725 255.815 121.12 254.929 124.434C254.044 127.749 246.631 124.434 246.631 124.434C246.425 123.076 244.767 121.443 242.916 119.77L249.836 114.656L251.619 114.777Z" fill="#FFBF9D"/>
<path d="M242.071 107.877C241.957 108.114 241.822 108.34 241.667 108.553C241.396 108.957 241.04 109.535 240.652 110.169C239.88 111.455 239.226 112.482 239.169 112.445C239.255 112.192 239.372 111.95 239.517 111.726C239.751 111.293 240.082 110.703 240.471 110.06C241.218 108.771 242.015 107.829 242.071 107.877Z" fill="#FF9A6C"/>
<path d="M255.528 112.146C255.397 112.186 255.261 112.208 255.123 112.211L254 112.304C253.05 112.376 251.732 112.449 250.289 112.534C248.801 112.534 247.799 113.52 247.055 114.09C246.673 114.44 246.267 114.764 245.843 115.06C245.924 114.948 246.017 114.845 246.121 114.753C246.311 114.567 246.59 114.296 246.93 113.977C247.344 113.596 247.787 113.247 248.256 112.934C248.538 112.746 248.846 112.6 249.169 112.498C249.519 112.406 249.876 112.348 250.236 112.324C251.692 112.239 253.001 112.186 253.955 112.154C254.428 112.154 254.816 112.13 255.083 112.13C255.231 112.115 255.381 112.12 255.528 112.146Z" fill="#FF9A6C"/>
<path d="M244.497 112.009C244.533 112.057 244.294 112.292 244.052 112.623C243.809 112.954 243.648 113.254 243.599 113.233C243.551 113.213 243.599 112.857 243.882 112.498C244.165 112.138 244.448 111.96 244.497 112.009Z" fill="#FF9A6C"/>
<path d="M254.666 114.111C254.451 114.257 254.215 114.371 253.967 114.45C253.527 114.628 252.904 114.854 252.221 115.089C250.855 115.566 249.796 116.071 249.767 116.018C250.501 115.527 251.303 115.147 252.148 114.891C252.835 114.644 253.466 114.45 253.919 114.309C254.159 114.212 254.41 114.145 254.666 114.111Z" fill="#FF9A6C"/>
</g>
<defs>
<filter id="filter0_d_352_7649" x="207" y="0.233978" width="119.077" height="164.766" filterUnits="userSpaceOnUse" color-interpolation-filters="sRGB">
<feFlood flood-opacity="0" result="BackgroundImageFix"/>
<feColorMatrix in="SourceAlpha" type="matrix" values="0 0 0 0 0 0 0 0 0 0 0 0 0 0 0 0 0 0 127 0" result="hardAlpha"/>
<feOffset/>
<feGaussianBlur stdDeviation="2"/>
<feComposite in2="hardAlpha" operator="out"/>
<feColorMatrix type="matrix" values="0 0 0 0 0 0 0 0 0 0 0 0 0 0 0 0 0 0 0.3 0"/>
<feBlend mode="normal" in2="BackgroundImageFix" result="effect1_dropShadow_352_7649"/>
<feBlend mode="normal" in="SourceGraphic" in2="effect1_dropShadow_352_7649" result="shape"/>
</filter>
<clipPath id="clip0_352_7649">
<rect y="21" width="335" height="140" rx="20" fill="white"/>
</clipPath>
</defs>
</svg>
