<svg width="36" height="51" viewBox="0 0 36 51" fill="none" xmlns="http://www.w3.org/2000/svg">
<path d="M30.6966 33.3732V45.9003C30.6966 46.5818 30.4259 47.2354 29.944 47.7173C29.4621 48.1992 28.8085 48.47 28.127 48.47H24.6965C24.0149 48.47 23.3613 48.1992 22.8794 47.7173C22.3975 47.2354 22.1268 46.5818 22.1268 45.9003V42.7268C22.1268 41.5921 21.676 40.5038 20.8737 39.7014C20.0713 38.8991 18.983 38.4483 17.8483 38.4483C16.7136 38.4483 15.6253 38.8991 14.823 39.7014C14.0206 40.5038 13.5698 41.5921 13.5698 42.7268V45.9003C13.5698 46.5818 13.2991 47.2354 12.8172 47.7173C12.3353 48.1992 11.6817 48.47 11.0002 48.47H7.56966C6.88815 48.47 6.23454 48.1992 5.75264 47.7173C5.27073 47.2354 5 46.5818 5 45.9003V33.3732C4.99976 32.7373 5.15684 32.1113 5.45724 31.5508C5.75764 30.9904 6.19202 30.513 6.72167 30.1611L15.7155 24.1738C16.3476 23.7539 17.0895 23.53 17.8483 23.53C18.6071 23.53 19.3491 23.7539 19.9811 24.1738L28.975 30.1611C29.5046 30.513 29.939 30.9904 30.2394 31.5508C30.5398 32.1113 30.6969 32.7373 30.6966 33.3732Z" fill="currentColor"/>
<path d="M0 0H36V2.5C36 3.88071 34.8807 5 33.5 5H2.5C1.11929 5 0 3.88071 0 2.5V0Z" fill="currentColor"/>
</svg>
