<svg width="29" height="22" viewBox="0 0 29 22" fill="none" xmlns="http://www.w3.org/2000/svg">
<path d="M4.40509 0.000152588C4.40432 0.000152588 4.40344 0.000152588 4.40267 0.000152588C4.13032 0.000152588 3.87415 0.106321 3.68072 0.299266C3.48516 0.494344 3.37744 0.754093 3.37744 1.03061V16.4822C3.37744 17.0488 3.84022 17.5109 4.40916 17.5124C6.80769 17.5181 10.8262 18.018 13.5984 20.9191V4.74854C13.5984 4.55647 13.5493 4.37603 13.4567 4.22672C11.1814 0.562505 6.80905 0.00577611 4.40509 0.000152588Z" fill="currentColor"/>
<path d="M25.4191 16.4822V1.03046C25.4191 0.75394 25.3114 0.494191 25.1158 0.299113C24.9224 0.106168 24.666 0 24.394 0C24.3931 0 24.3922 0 24.3914 0C21.9876 0.00572048 17.6152 0.562449 15.3398 4.22666C15.2472 4.37597 15.1982 4.55641 15.1982 4.74849V20.9189C17.9704 18.0179 21.9889 17.518 24.3875 17.5122C24.9563 17.5108 25.4191 17.0487 25.4191 16.4822Z" fill="currentColor"/>
<path d="M27.766 3.56351H27.0188V16.4822C27.0188 17.9289 25.8401 19.1086 24.3912 19.1122C22.3567 19.117 19.0022 19.5148 16.6265 21.7634C20.7353 20.7573 25.0668 21.4113 27.5353 21.9739C27.8436 22.0441 28.1621 21.9715 28.409 21.7747C28.6551 21.5784 28.7963 21.2849 28.7963 20.9699V4.59378C28.7964 4.0257 28.3341 3.56351 27.766 3.56351Z" fill="currentColor"/>
<path d="M1.77742 16.4822V3.56351H1.03027C0.462293 3.56351 0 4.0257 0 4.59378V20.9696C0 21.2847 0.14117 21.5781 0.387248 21.7744C0.634004 21.9711 0.952218 22.044 1.26093 21.9736C3.72946 21.4109 8.06103 20.757 12.1697 21.7631C9.79405 19.5146 6.43952 19.1169 4.40506 19.1121C2.95623 19.1086 1.77742 17.9289 1.77742 16.4822Z" fill="currentColor"/>
</svg>
