<svg width="12" height="20" viewBox="0 0 12 20" fill="currentColor" xmlns="http://www.w3.org/2000/svg">
<path d="M10.9483 18.9581C10.5499 19.3474 9.90553 19.3472 9.50677 18.9582C9.50677 18.9582 9.50677 18.9582 9.50676 18.9582L1.05152 10.7121L1.05134 10.7119C0.859501 10.5244 0.749999 10.2686 0.749999 10.0003L0.750138 10.0003C0.750285 9.73233 0.859866 9.4767 1.05214 9.28914C1.05215 9.28914 1.05215 9.28913 1.05216 9.28913L9.50609 1.04172L9.50611 1.0417C9.90507 0.65255 10.5488 0.653006 10.9475 1.04163L10.9476 1.0417C11.3499 1.43416 11.3499 2.07268 10.9476 2.46513L3.22258 10.0003L10.9482 17.5348L10.9482 17.5348C11.3506 17.9272 11.3506 18.5657 10.9483 18.9581ZM10.9483 18.9581C10.9483 18.9581 10.9484 18.9581 10.9484 18.9581L10.7737 18.7792L10.9482 18.9582C10.9483 18.9582 10.9483 18.9582 10.9483 18.9581Z" fill="currentColor" stroke="currentColor" stroke-width="0.5"/>
</svg>
