<?xml version="1.0" encoding="UTF-8" standalone="no"?>
<!-- Created with Inkscape (http://www.inkscape.org/) -->

<svg
   version="1.1"
   id="svg2"
   width="911.4267"
   height="911.4267"
   viewBox="0 0 911.4267 911.4267"
   sodipodi:docname="logo 5.eps"
   xmlns:inkscape="http://www.inkscape.org/namespaces/inkscape"
   xmlns:sodipodi="http://sodipodi.sourceforge.net/DTD/sodipodi-0.dtd"
   xmlns="http://www.w3.org/2000/svg"
   xmlns:svg="http://www.w3.org/2000/svg">
  <defs
     id="defs6" />
  <sodipodi:namedview
     id="namedview4"
     pagecolor="#ffffff"
     bordercolor="#000000"
     borderopacity="0.25"
     inkscape:showpageshadow="2"
     inkscape:pageopacity="0.0"
     inkscape:pagecheckerboard="0"
     inkscape:deskcolor="#d1d1d1" />
  <g
     id="g8"
     inkscape:groupmode="layer"
     inkscape:label="ink_ext_XXXXXX"
     transform="matrix(1.3333333,0,0,-1.3333333,0,911.42667)">
    <g
       id="g10"
       transform="scale(0.1)">
      <path
         d="M 5237.48,6717.68 H 1598.27 c -816.168,0 -1480.2,-664.01 -1480.2,-1480.21 V 1598.21 c 0,-816.159 664.032,-1480.151 1480.2,-1480.151 h 3639.21 c 816.17,0 1480.2,663.992 1480.2,1480.151 v 3639.26 c 0,816.2 -664.03,1480.21 -1480.2,1480.21"
         style="fill:#fab523;fill-opacity:1;fill-rule:nonzero;stroke:none"
         id="path12" />
      <path
         d="m 6717.68,1598.21 c 0,-816.159 -664.03,-1480.151 -1480.2,-1480.151 H 1598.27 c -816.168,0 -1480.2,663.992 -1480.2,1480.151 v 3639.26 c 0,816.2 664.032,1480.21 1480.2,1480.21 h 3639.21 c 816.17,0 1480.2,-664.01 1480.2,-1480.21 z M 5237.48,6835.74 H 1598.27 C 716.969,6835.74 0,6118.75 0,5237.47 V 1598.21 C 0,716.961 716.969,0 1598.27,0 h 3639.21 c 881.3,0 1598.27,716.961 1598.27,1598.21 v 3639.26 c 0,881.28 -716.97,1598.27 -1598.27,1598.27"
         style="fill:#040606;fill-opacity:1;fill-rule:nonzero;stroke:none"
         id="path14" />
      <path
         d="m 3417.85,5200.2 c -903.84,0 -1639.16,-735.35 -1639.16,-1639.18 0,-683.8 422.95,-1292.63 1058.27,-1532.84 V 1005.11 h 159.14 v 296.11 l 763.92,-188.6 v -107.51 h 159.15 v 995.45 c 672.97,215.49 1137.89,848.6 1137.89,1560.46 0,903.83 -735.39,1639.18 -1639.21,1639.18"
         style="fill:#040606;fill-opacity:1;fill-rule:nonzero;stroke:none"
         id="path16" />
      <path
         d="m 2996.1,1793.3 v 184.02 l 763.91,-228.55 v -184 L 2996.1,1793.3"
         style="fill:#ffffff;fill-opacity:1;fill-rule:nonzero;stroke:none"
         id="path18" />
      <path
         d="m 3818.19,2136.42 -58.18,-16.27 v -205.27 l -818.33,244.82 c -600.46,203.64 -1003.83,766.7 -1003.83,1401.32 0,816.1 663.92,1480.03 1480,1480.03 816.12,0 1480.06,-663.93 1480.06,-1480.03 0,-661.1 -444.02,-1246.93 -1079.72,-1424.6"
         style="fill:#ffffff;fill-opacity:1;fill-rule:nonzero;stroke:none"
         id="path20" />
      <path
         d="m 4478.55,3738.45 v 0.03 c -4.36,7.95 -4.67,10.41 -3.79,15.95 40.63,252.81 -42.27,441.79 -246.23,561.64 -6.83,4.01 -10.57,10.64 -16.57,22.05 -2.29,4.27 -4.56,8.57 -7.04,12.72 -126.78,209.03 -380.31,297.48 -589.95,205.77 -90.67,-39.7 -155.42,-104.06 -196.44,-195.7 -41.04,91.64 -105.8,156 -196.46,195.7 -209.39,91.65 -463.12,3.31 -589.84,-205.76 -2.54,-4.16 -4.87,-8.46 -7.15,-12.79 -6.01,-11.37 -9.74,-18 -16.53,-21.99 -203.99,-119.87 -286.88,-308.85 -246.22,-561.69 0.88,-5.49 0.51,-7.93 -3.84,-15.93 -89.67,-165.49 -89.87,-343.31 -0.66,-528.56 9.11,-18.97 14.71,-31.4 14.66,-47.45 -0.05,-246.58 199.5,-505.93 410.6,-533.69 2.95,-0.4 5.59,-2.88 12.64,-10.68 72.37,-80.4 179.4,-125.56 296.01,-125.56 6.38,0 12.75,0.11 19.17,0.41 120.13,5.07 232.7,56.44 307.62,139.04 74.95,-82.6 187.52,-134 307.66,-139.04 124.18,-5.21 238.77,40.38 315.12,125.13 7.04,7.82 9.69,10.3 12.7,10.7 211.15,27.76 410.65,287.11 410.55,533.69 0,15.83 5.54,28.48 14.65,47.45 89.22,185.25 89.01,363.07 -0.66,528.56"
         style="fill:#231f20;fill-opacity:1;fill-rule:nonzero;stroke:none"
         id="path22" />
      <path
         d="m 4280.65,3216.6 -4.77,-2.6 c -19.84,-10.68 -66.21,-35.68 -40.61,-88.39 26.88,-55.39 76.87,-32.49 98.17,-22.72 l 2.02,0.9 c -19.63,-138.44 -123.66,-278.63 -239.75,-330.83 9.69,50.37 11.86,96.23 -0.3,143.62 -7.74,29.8 -17.27,58.89 -28.3,86.4 -8.24,20.68 -19.79,43.02 -42.89,52.27 -10.31,4.15 -27.1,7 -48.54,-2.95 -16.79,-7.72 -28.03,-18.91 -33.32,-33.23 -8.96,-24.24 2.22,-48.52 10.42,-66.26 31.19,-67.63 33,-138.63 5.13,-199.91 -27.92,-61.44 -82.79,-106.88 -154.49,-127.96 -105.92,-31.02 -248.02,22.99 -310.66,114.41 v 17.82 l 4.76,14.19 h -4.76 v 511 c 30.94,-52.34 88.45,-78.24 149.92,-65.86 2.53,0.51 4.5,0.83 6.07,1.01 0.35,-1.76 0.76,-4.13 1.24,-7.31 7.66,-54.09 34.49,-100.81 77.59,-135.14 16.79,-13.36 31.56,-18.02 43.93,-18.02 22.07,0 36.69,14.74 42.02,21.22 11.91,14.47 26.52,44.19 -9.89,80.57 -48.29,48.21 -58.08,100.01 -30.77,163.09 27.45,63.41 86.09,104.26 148.1,102.88 l 7.78,-0.44 c 17.09,-1.06 68.63,-4.66 72.37,50.43 1.13,17.17 -3.12,31.4 -12.65,42.27 -16,18.24 -40.4,19.77 -63.36,21.22 -99.14,7.46 -204.88,-61.73 -253.78,-167.97 -12.75,-27.7 -28.65,-40.96 -53.15,-44.39 -9.79,-1.26 -20.16,-0.55 -34.41,23.43 -12.37,20.96 -27.51,28.28 -37.96,30.74 -9.58,2.31 -25.03,2.64 -42.43,-8.65 -3.03,-1.95 -6.86,-4.89 -10.62,-8.74 v 736.07 c 0,5.55 -1.96,10.47 -3.17,15.65 0.14,1.21 0.81,2.22 0.88,3.45 3.53,57.55 12.28,107.13 26.84,151.58 52.68,161.29 197.38,232.75 368.58,182.15 78.85,-23.35 147.35,-71.81 193.92,-137.01 -39.42,-5.54 -76.83,-21.73 -111.28,-48.15 -48.23,-36.94 -27.15,-76.27 -19.53,-87.52 12.48,-18.28 40.82,-44.66 90.91,-14.95 78.33,46.66 143.82,39.6 212.15,-23.1 97.08,-89.2 164.31,-311.4 48.59,-456.58 -10.93,-13.78 -25.08,-34.97 -21.6,-59.62 1.55,-10.96 7.46,-26.87 26.73,-40.54 33.2,-23.6 65.63,-14.58 96.03,26.83 l 0.32,0.47 c 18.34,-57.87 17.15,-117.37 13.41,-186.21 -5.07,-93.28 -49.21,-161.5 -134.89,-208.62"
         style="fill:#fab523;fill-opacity:1;fill-rule:nonzero;stroke:none"
         id="path24" />
      <path
         d="m 3348.06,2744.12 c -60.71,-94.42 -206.48,-150.71 -314.45,-119.18 -71.65,21.06 -126.5,66.49 -154.43,127.93 -27.87,61.29 -26.05,132.28 5.08,199.94 8.19,17.74 19.37,42.02 10.41,66.26 -5.28,14.32 -16.53,25.51 -33.31,33.23 -21.5,9.95 -38.28,7.1 -48.53,2.95 -23.11,-9.25 -34.67,-31.59 -42.9,-52.24 -11.03,-27.54 -20.57,-56.63 -28.28,-86.48 -12.18,-47.35 -10.01,-93.2 -0.32,-143.57 -116.09,52.2 -220.11,192.37 -239.7,330.81 l 1.97,-0.88 c 21.34,-9.74 71.28,-32.62 98.17,22.69 25.65,52.69 -20.67,77.68 -40.46,88.37 l -4.87,2.65 c -85.74,47.14 -129.87,115.37 -134.95,208.62 -3.63,66.51 -4.87,127.56 13.52,186.13 l 0.26,-0.36 c 30.36,-41.44 62.64,-50.54 95.99,-26.86 19.32,13.67 25.18,29.63 26.73,40.59 3.53,24.7 -10.67,45.84 -21.65,59.59 -115.63,145.19 -48.44,367.37 48.65,456.56 68.22,62.66 133.7,69.8 212.19,23.13 49.68,-29.77 78.33,-3.47 90.87,14.97 7.61,11.2 28.69,50.53 -19.49,87.47 -34.49,26.45 -71.9,42.64 -111.33,48.17 46.57,65.18 115.06,113.64 193.91,136.99 171.11,50.63 315.91,-20.86 368.58,-182.18 14.62,-44.47 23.37,-94.02 26.85,-151.55 0.37,-6.39 2.66,-12.06 4.59,-17.87 -0.01,-0.44 -0.24,-0.8 -0.24,-1.23 v -744.21 c -5.44,8.2 -12.39,13.75 -17.25,16.88 -17.42,11.32 -32.74,10.99 -42.43,8.65 -10.46,-2.46 -25.6,-9.78 -37.92,-30.69 -14.31,-24.07 -24.82,-24.77 -34.51,-23.48 -24.45,3.43 -40.36,16.69 -53.1,44.39 -48.9,106.24 -153.34,175.55 -258.92,167.63 -17.82,-1.11 -42.22,-2.64 -58.18,-20.9 -9.58,-10.91 -13.82,-25.13 -12.64,-42.25 3.74,-54.99 55.39,-51.57 72.33,-50.43 l 7.77,0.44 c 0.67,0.03 1.29,0.03 1.97,0.03 61.85,0 119.04,-40.18 146.19,-102.91 27.29,-63.05 17.51,-114.88 -30.82,-163.09 -36.43,-36.38 -21.81,-66.1 -9.9,-80.54 5.33,-6.51 19.94,-21.25 42.02,-21.25 12.38,0 27.14,4.66 43.92,18.02 43.11,34.33 69.94,81.05 77.6,135.11 0.47,3.21 0.88,5.58 1.26,7.34 1.54,-0.18 3.57,-0.5 6.1,-1.01 65.13,-12.95 126.2,16.4 155.52,75.21 0.44,0.89 0.59,1.62 0.99,2.48 V 2769.5 l -13.11,-0.95 10.25,-24.43"
         style="fill:#fab523;fill-opacity:1;fill-rule:nonzero;stroke:none"
         id="path26" />
      <path
         d="m 4004.13,4025.84 c -52.64,2.09 -64.05,-32.25 -66.42,-47.3 -3.12,-20.18 3.56,-33.95 9.68,-41.99 9.64,-12.56 24.76,-20.3 43.87,-22.43 52.13,-5.76 88.34,-30.75 101.92,-70.38 15.32,-44.7 -0.89,-100.42 -40.26,-138.68 -17.15,-16.57 -25.28,-32.9 -24.98,-49.89 0.21,-10.28 3.9,-25.54 20.11,-40.03 10.93,-9.83 22.53,-14.72 34.66,-14.72 15.68,0 32.32,8.21 49.74,24.66 47.86,45.3 78.94,117.22 79.09,183.23 v 0.03 c 0.26,116.71 -90.87,212.24 -207.41,217.5"
         style="fill:#231f20;fill-opacity:1;fill-rule:nonzero;stroke:none"
         id="path28" />
      <path
         d="m 3830.83,4130.32 c -48.75,11.35 -81.32,35.55 -91.84,68.12 -10.78,33.39 2.17,73.34 39.21,115.66 12.27,13.85 44.97,50.74 4.92,87.55 -41.7,38.5 -79.05,-1.58 -91.23,-14.74 -41.96,-44.96 -66.1,-100.47 -67.97,-156.24 v -0.96 c 0.31,-114.74 83.04,-205.3 192.51,-210.63 2.18,-0.11 4.25,-0.15 6.27,-0.15 44.29,0 57.71,24.44 61.03,45.43 3.73,23.62 -2.39,54.26 -52.9,65.96"
         style="fill:#231f20;fill-opacity:1;fill-rule:nonzero;stroke:none"
         id="path30" />
      <path
         d="m 2889.7,3936.58 c 6.12,8.02 12.8,21.86 9.63,41.96 -2.33,15.02 -12.37,49.7 -66.35,47.3 -116.56,-5.26 -207.74,-100.79 -207.49,-217.5 v -0.03 c 0.16,-66.02 31.25,-137.95 79.17,-183.21 17.35,-16.47 33.98,-24.71 49.68,-24.71 12.12,0 23.67,4.92 34.65,14.75 16.21,14.49 19.9,29.75 20.1,40.03 0.31,16.99 -7.82,33.32 -24.92,49.89 -39.42,38.26 -55.63,94 -40.29,138.71 13.61,39.63 49.78,64.59 101.89,70.35 19.12,2.13 34.29,9.89 43.93,22.46"
         style="fill:#231f20;fill-opacity:1;fill-rule:nonzero;stroke:none"
         id="path32" />
      <path
         d="m 3014.39,4018.93 c 1.98,0 4.1,0.04 6.23,0.15 109.45,5.33 192.19,95.89 192.5,210.63 v 0.96 c -1.87,55.82 -25.95,111.3 -67.92,156.27 -12.23,13.16 -49.63,53.07 -91.28,14.71 -39.99,-36.86 -7.3,-73.72 7.77,-90.74 34.18,-39.15 47.15,-79.1 36.37,-112.49 -10.46,-32.55 -43.1,-56.75 -91.85,-68.1 -50.52,-11.73 -56.62,-42.34 -52.89,-65.91 3.31,-21.04 16.73,-45.48 61.07,-45.48"
         style="fill:#231f20;fill-opacity:1;fill-rule:nonzero;stroke:none"
         id="path34" />
      <path
         d="m 1396.1,3277.21 h -366.05 v 106.1 h 366.05 v -106.1"
         style="fill:#040606;fill-opacity:1;fill-rule:nonzero;stroke:none"
         id="path36" />
      <path
         d="m 1550.93,4240.91 -324.94,168.55 48.85,94.18 324.95,-168.54 -48.86,-94.19"
         style="fill:#040606;fill-opacity:1;fill-rule:nonzero;stroke:none"
         id="path38" />
      <path
         d="m 2132.1,5025.1 -210.86,299.23 86.74,61.11 210.84,-299.23 -86.72,-61.11"
         style="fill:#040606;fill-opacity:1;fill-rule:nonzero;stroke:none"
         id="path40" />
      <path
         d="m 3009.05,5453.63 -49.39,362.71 105.13,14.31 49.39,-362.69 -105.13,-14.33"
         style="fill:#040606;fill-opacity:1;fill-rule:nonzero;stroke:none"
         id="path42" />
      <path
         d="m 5439.64,3277.21 h 366.06 v 106.1 h -366.06 v -106.1"
         style="fill:#040606;fill-opacity:1;fill-rule:nonzero;stroke:none"
         id="path44" />
      <path
         d="m 5284.81,4240.91 324.95,168.55 -48.86,94.18 -324.94,-168.54 48.85,-94.19"
         style="fill:#040606;fill-opacity:1;fill-rule:nonzero;stroke:none"
         id="path46" />
      <path
         d="m 4703.65,5025.1 210.85,299.23 -86.73,61.11 -210.85,-299.23 86.73,-61.11"
         style="fill:#040606;fill-opacity:1;fill-rule:nonzero;stroke:none"
         id="path48" />
      <path
         d="m 3826.69,5453.63 49.4,362.71 -105.13,14.31 -49.39,-362.69 105.12,-14.33"
         style="fill:#040606;fill-opacity:1;fill-rule:nonzero;stroke:none"
         id="path50" />
      <path
         d="m 2996.1,1443.85 v 183.34 l 763.92,-228.51 v -143.42 l -763.92,188.59"
         style="fill:#ffffff;fill-opacity:1;fill-rule:nonzero;stroke:none"
         id="path52" />
    </g>
  </g>
</svg>
