<svg width="667" height="667" viewBox="0 0 667 667" fill="none" xmlns="http://www.w3.org/2000/svg">
<path d="M166.795 215.573H53.468V51.3122H166.795V215.573Z" fill="#E1E1E1"/>
<path d="M161.119 215.573H47.792V51.3122H161.119V215.573Z" fill="#F5F5F5"/>
<path d="M147.039 197.784H61.872V69.1028H147.039V197.784Z" fill="white"/>
<mask id="mask0_321_6033" style="mask-type:luminance" maskUnits="userSpaceOnUse" x="0" y="0" width="667" height="667">
<path d="M0 0.000121117H666.667V666.667H0V0.000121117Z" fill="white"/>
</mask>
<g mask="url(#mask0_321_6033)">
<path d="M147.039 197.784C147.039 197.784 147.028 197.565 147.021 197.154C147.017 196.729 147.012 196.124 147.005 195.33C146.997 193.713 146.985 191.345 146.971 188.272C146.953 182.105 146.928 173.117 146.895 161.764C146.861 139.073 146.813 106.941 146.756 69.1023L147.039 69.3849C121.019 69.3929 92.1852 69.4023 61.8812 69.4103H61.8719L62.1799 69.1023C62.1559 117.646 62.1345 162.404 62.1172 197.784L61.8719 197.538C87.8079 197.592 109.068 197.637 123.863 197.668C131.261 197.694 137.041 197.716 140.988 197.729C142.951 197.741 144.453 197.752 145.484 197.757C146.503 197.766 147.039 197.784 147.039 197.784C147.039 197.784 146.537 197.801 145.536 197.81C144.516 197.816 143.028 197.825 141.087 197.838C137.151 197.852 131.391 197.873 124.015 197.9C109.184 197.93 87.8719 197.976 61.8719 198.029L61.6252 198.03V197.784C61.6092 162.404 61.5865 117.646 61.5639 69.1023V68.7943H61.8719H61.8812C92.1852 68.8036 121.019 68.8116 147.039 68.8196H147.321V69.1023C147.264 107.017 147.216 139.213 147.181 161.95C147.149 173.276 147.124 182.241 147.105 188.393C147.092 191.442 147.08 193.79 147.072 195.394C147.065 196.174 147.059 196.77 147.055 197.188C147.049 197.589 147.039 197.784 147.039 197.784Z" fill="#E1E1E1"/>
<path d="M161.436 51.3123C161.503 51.363 160.734 52.4857 159.416 54.247C158.1 56.007 156.231 58.4017 154.099 60.991C151.966 63.5817 149.974 65.8737 148.498 67.503C147.022 69.1323 146.068 70.103 146.004 70.0483C145.939 69.991 146.778 68.9203 148.167 67.219C149.686 65.375 151.556 63.1083 153.623 60.599C155.688 58.0897 157.556 55.8217 159.075 53.9777C160.478 52.287 161.368 51.259 161.436 51.3123Z" fill="#E1E1E1"/>
<path d="M147.472 197.369C151.701 204.096 156.696 210.341 162.327 215.946Z" fill="white"/>
<path d="M162.327 215.946C162.271 216.002 161.26 215.126 159.738 213.59C158.215 212.057 156.196 209.848 154.134 207.272C152.074 204.692 150.362 202.236 149.2 200.413C148.038 198.59 147.404 197.412 147.472 197.369C147.55 197.321 148.312 198.417 149.562 200.169C150.811 201.922 152.567 204.321 154.615 206.886C156.666 209.448 158.619 211.688 160.055 213.292C161.49 214.897 162.391 215.882 162.327 215.946Z" fill="#E1E1E1"/>
<path d="M47.7756 215.445L62.6196 197.13Z" fill="white"/>
<path d="M62.6193 197.13C62.7513 197.238 59.5353 201.424 55.4367 206.482C51.338 211.539 47.9073 215.551 47.7753 215.444C47.6433 215.338 50.858 211.151 54.958 206.092C59.0567 201.036 62.4873 197.023 62.6193 197.13Z" fill="#E1E1E1"/>
<path d="M47.7919 51.3124C47.9252 51.2071 51.1519 55.0631 54.9959 59.9244C58.8439 64.7884 61.8519 68.8151 61.7185 68.9217C61.5852 69.0271 58.3599 65.1711 54.5132 60.3071C50.6679 55.4457 47.6585 51.4177 47.7919 51.3124Z" fill="#E1E1E1"/>
<path d="M120.504 176.199H91.9867V95.2308H120.504V176.199Z" fill="#E1E1E1"/>
<path d="M609.399 145.876H518.761V51.3949H609.399V145.876Z" fill="#E1E1E1"/>
<path d="M603.261 145.876H512.624V51.3949H603.261V145.876Z" fill="#FAFAFA"/>
<path d="M512.653 145.848H603.233V51.4229H512.653V145.848ZM603.289 145.904H512.596V51.3669H603.289V145.904Z" fill="#E1E1E1"/>
<path d="M591.077 133.175H524.809V64.0961H591.077V133.175Z" fill="white"/>
<path d="M524.809 133.634C524.861 133.695 524.231 134.418 523.173 135.535C522.115 136.653 520.628 138.163 518.961 139.806C517.293 141.449 515.761 142.911 514.632 143.95C513.503 144.989 512.775 145.602 512.717 145.545C512.66 145.487 513.284 144.769 514.343 143.651C515.401 142.535 516.893 141.019 518.564 139.373C520.236 137.726 521.772 136.259 522.901 135.221C524.032 134.183 524.757 133.573 524.809 133.634Z" fill="#E1E1E1"/>
<path d="M591.078 133.464C591.139 133.412 591.862 134.042 592.979 135.1C594.096 136.159 595.606 137.646 597.25 139.312C598.891 140.98 600.355 142.512 601.392 143.642C602.432 144.771 603.046 145.499 602.988 145.556C602.931 145.614 602.212 144.988 601.095 143.931C599.979 142.872 598.463 141.38 596.816 139.708C595.17 138.036 593.703 136.5 592.664 135.371C591.626 134.242 591.015 133.518 591.078 133.464Z" fill="#E1E1E1"/>
<path d="M590.895 64.28C590.843 64.2186 591.474 63.496 592.531 62.3786C593.59 61.2613 595.077 59.7506 596.745 58.108C598.411 56.4653 599.943 55.0026 601.073 53.964C602.202 52.9253 602.93 52.312 602.987 52.3693C603.045 52.4266 602.421 53.1453 601.362 54.2626C600.303 55.3786 598.811 56.8946 597.141 58.5413C595.469 60.188 593.933 61.6533 592.803 62.6933C591.673 63.7306 590.949 64.3413 590.895 64.28Z" fill="#E1E1E1"/>
<path d="M524.627 64.4496C524.566 64.5016 523.843 63.8723 522.726 62.8136C521.608 61.755 520.099 60.2683 518.455 58.6016C516.814 56.9336 515.35 55.4016 514.312 54.2723C513.272 53.143 512.659 52.4136 512.716 52.3576C512.774 52.3003 513.492 52.9243 514.61 53.983C515.727 55.0416 517.242 56.5336 518.888 58.2056C520.536 59.8776 522.002 61.4136 523.04 62.543C524.079 63.6723 524.69 64.3963 524.627 64.4496Z" fill="#E1E1E1"/>
<path d="M590.895 133.174C590.891 133.17 590.886 133.057 590.881 132.84C590.878 132.604 590.873 132.285 590.867 131.874C590.861 131.008 590.85 129.762 590.837 128.146C590.821 124.873 590.799 120.113 590.77 114.066C590.739 101.968 590.694 84.7331 590.641 64.0957L590.895 64.3504C571.605 64.3624 548.949 64.3744 524.815 64.3891H524.81L525.102 64.0957C525.087 89.4504 525.073 113.17 525.061 133.174L524.81 132.924C544.611 132.976 561.099 133.021 572.659 133.052C578.435 133.08 582.979 133.102 586.101 133.117C587.643 133.13 588.83 133.14 589.657 133.146C590.047 133.152 590.351 133.157 590.577 133.161C590.783 133.165 590.891 133.17 590.895 133.174C590.901 133.178 590.803 133.184 590.603 133.189C590.385 133.193 590.091 133.197 589.711 133.202C588.897 133.209 587.726 133.22 586.203 133.232C583.095 133.248 578.571 133.269 572.821 133.298C561.222 133.329 544.678 133.373 524.81 133.426H524.557V133.174C524.545 113.17 524.531 89.4504 524.515 64.0957V63.8024H524.81H524.815C548.949 63.8157 571.605 63.8291 590.895 63.8397H591.151V64.0957C591.098 84.8011 591.053 102.092 591.022 114.23C590.993 120.252 590.971 124.993 590.955 128.252C590.942 129.848 590.931 131.077 590.925 131.932C590.919 132.33 590.914 132.638 590.911 132.868C590.906 133.076 590.901 133.18 590.895 133.174Z" fill="#E1E1E1"/>
<path d="M569 109.691H546.887V87.5788H569V109.691Z" fill="#ECECEC"/>
<path d="M471.561 599.791C469.057 597.644 463.473 590.843 467.779 582.93C469.358 580.03 472.71 578.596 475.746 577.318C478.781 576.04 481.971 574.93 484.481 572.792C489.218 568.763 490.525 562.068 493.669 556.694C497.278 550.523 504.015 545.899 511.133 546.223C519.282 546.594 526.081 553.251 529.161 560.84C532.243 568.43 532.35 576.858 532.414 585.054C532.449 589.587 532.249 594.696 528.921 597.758C525.853 600.579 521.234 600.614 517.075 600.486C502.229 600.03 487.382 599.574 472.534 599.118" fill="#F5F5F5"/>
<path d="M551.475 512.293H539.687L542.576 478.479H555.443L551.475 512.293ZM541.413 598.044H532.361L535.071 566.321H545.136L541.413 598.044ZM452.949 478.479C453.415 480.923 455.553 494.228 458.416 512.293H446.66L440.988 478.479H452.949ZM524.135 512.293L525.259 478.479H541.409L538.52 512.293H524.135ZM521.287 598.044L522.34 566.321H533.904L531.193 598.044H521.287ZM466.932 566.321C468.655 577.299 470.349 588.123 471.901 598.044H461.041L455.721 566.321H466.932ZM465.557 557.565H454.253L448.128 521.049H459.803C461.588 532.335 463.565 544.895 465.557 557.565ZM481.199 521.049L484.036 557.565H466.732C466.151 553.86 465.56 550.112 464.972 546.361C463.615 537.743 462.257 529.125 460.981 521.049H481.199ZM480.517 512.293H459.595C458.855 507.624 458.152 503.203 457.516 499.225C455.335 485.552 454.513 480.412 454.059 478.479H477.889L480.517 512.293ZM501.457 512.293H481.683L479.056 478.479H500.679L501.457 512.293ZM502.621 512.293L501.841 478.479H524.095L522.971 512.293H502.621ZM503.664 557.565L502.823 521.049H522.68L521.467 557.565H503.664ZM485.201 557.565L482.364 521.049H501.66L502.501 557.565H485.201ZM487.181 598.044H473.079C471.739 589.48 469.996 578.348 468.108 566.321H484.717L487.181 598.044ZM485.883 566.321H502.703L503.433 598.044H488.347L485.883 566.321ZM504.597 598.044L503.865 566.321H521.176L520.123 598.044H504.597ZM538.94 521.049H550.447L546.164 557.565H535.819L538.94 521.049ZM534.652 557.565H522.632L523.844 521.049H537.772L534.652 557.565ZM556.751 477.311H439.613L460.715 603.125C461.637 608.621 465.613 612.856 470.716 614.327C470.849 614.371 470.989 614.4 471.125 614.439C471.475 614.529 471.811 614.647 472.169 614.709C472.941 614.869 473.739 614.949 474.551 614.983C474.557 615.021 474.563 615.064 474.569 615.103L475.14 615.013H475.144H527.349C528.333 615.013 529.289 614.912 530.219 614.727C536.384 613.773 541.319 608.824 542.068 602.431L552.24 515.74L552.7 512.293H552.645L556.672 477.963L556.751 477.311Z" fill="#E1E1E1"/>
</g>
<mask id="mask1_321_6033" style="mask-type:luminance" maskUnits="userSpaceOnUse" x="0" y="0" width="667" height="667">
<path d="M0 0.000121117H666.667V666.667H0V0.000121117Z" fill="white"/>
</mask>
<g mask="url(#mask1_321_6033)">
<path d="M589.153 148.142L586.471 142.38C563.855 93.8025 516.921 60.8491 463.883 58.3771C457.065 58.0584 450.223 58.2331 443.413 58.9238C394.396 63.8984 348.736 95.5224 326.353 140C313.189 166.158 306.892 197.252 285.229 216.78C257.037 242.193 214.348 238.385 177.029 233.092C139.711 227.8 96.9812 224.098 68.8985 249.638C51.3119 265.632 43.5666 290.28 42.2132 314.145C38.6306 377.33 76.2132 438.321 128.805 472.373C181.397 506.425 246.664 516.146 308.941 510.577C396.184 502.776 482.556 464.47 539.382 396.869C596.208 329.269 619.509 231.206 589.153 148.142Z" fill="#F5F5F5"/>
<path d="M191.411 98.5005C191.411 130.532 165.443 156.5 133.411 156.5C101.38 156.5 75.4123 130.532 75.4123 98.5005C75.4123 66.4685 101.38 40.5005 133.411 40.5005C165.443 40.5005 191.411 66.4685 191.411 98.5005Z" fill="#F5F5F5"/>
</g>
<mask id="mask2_321_6033" style="mask-type:luminance" maskUnits="userSpaceOnUse" x="0" y="0" width="667" height="667">
<path d="M0 0.000121117H666.667V666.667H0V0.000121117Z" fill="white"/>
</mask>
<g mask="url(#mask2_321_6033)">
<path d="M616.604 615.898C616.604 616.09 487.978 616.244 329.348 616.244C170.661 616.244 42.0624 616.09 42.0624 615.898C42.0624 615.706 170.661 615.55 329.348 615.55C487.978 615.55 616.604 615.706 616.604 615.898Z" fill="#1A2E35"/>
</g>
<mask id="mask3_321_6033" style="mask-type:luminance" maskUnits="userSpaceOnUse" x="0" y="0" width="667" height="667">
<path d="M0 0.000121117H666.667V666.667H0V0.000121117Z" fill="white"/>
</mask>
<g mask="url(#mask3_321_6033)">
<path d="M473.688 616.168L137.82 615.99C127.435 615.984 119.019 607.562 119.024 597.176L119.288 98.8111C119.294 88.4245 127.716 80.0098 138.103 80.0165L473.971 80.1938C484.358 80.1978 492.772 88.6218 492.767 99.0085L492.503 597.371C492.498 607.758 484.074 616.174 473.688 616.168Z" fill="#375A64"/>
<path d="M480.045 564.843L130.121 564.659L130.357 117.055L480.282 117.239L480.045 564.843Z" fill="white"/>
<path d="M320.099 589.153C320.095 597.068 313.675 603.48 305.762 603.476C297.846 603.472 291.434 597.053 291.438 589.138C291.443 581.225 297.861 574.812 305.777 574.816C313.69 574.82 320.103 581.238 320.099 589.153Z" fill="#1A2E35"/>
<path d="M360.648 101.49L251.403 101.433C250.508 101.431 249.783 100.706 249.783 99.8113L249.784 97.1313C249.785 96.2367 250.511 95.5113 251.405 95.5113L360.651 95.5687C361.547 95.57 362.272 96.2953 362.271 97.19V99.87C362.269 100.765 361.544 101.49 360.648 101.49Z" fill="#1A2E35"/>
<path d="M480.265 149.216H130.357V117.055H480.265V149.216Z" fill="#E1E1E1"/>
<path d="M150.552 132.791C150.552 135.401 148.436 137.519 145.824 137.519C143.213 137.519 141.096 135.401 141.096 132.791C141.096 130.18 143.213 128.063 145.824 128.063C148.436 128.063 150.552 130.18 150.552 132.791Z" fill="white"/>
<path d="M165.826 132.791C165.826 135.401 163.709 137.519 161.098 137.519C158.488 137.519 156.37 135.401 156.37 132.791C156.37 130.18 158.488 128.063 161.098 128.063C163.709 128.063 165.826 130.18 165.826 132.791Z" fill="white"/>
<path d="M181.1 132.791C181.1 135.401 178.984 137.519 176.372 137.519C173.762 137.519 171.644 135.401 171.644 132.791C171.644 130.18 173.762 128.063 176.372 128.063C178.984 128.063 181.1 130.18 181.1 132.791Z" fill="white"/>
<path d="M480.244 188.621H130.356V149.216H480.244V188.621Z" fill="#F5F5F5"/>
<path d="M130.391 188.588H480.211V149.249H130.391V188.588ZM480.279 188.655H130.324V149.183H480.279V188.655Z" fill="#E1E1E1"/>
<path d="M214.22 171.764C214.22 171.956 199.967 172.112 182.387 172.112C164.803 172.112 150.552 171.956 150.552 171.764C150.552 171.572 164.803 171.417 182.387 171.417C199.967 171.417 214.22 171.572 214.22 171.764Z" fill="#E1E1E1"/>
<path d="M302.037 171.764C302.037 171.956 287.783 172.112 270.203 172.112C252.619 172.112 238.369 171.956 238.369 171.764C238.369 171.572 252.619 171.417 270.203 171.417C287.783 171.417 302.037 171.572 302.037 171.764Z" fill="#E1E1E1"/>
<path d="M397.201 190.371H305.921V149.216H397.201V190.371Z" fill="white"/>
<path d="M386.854 171.764C386.854 171.956 372.6 172.112 355.022 172.112C337.436 172.112 323.186 171.956 323.186 171.764C323.186 171.572 337.436 171.417 355.022 171.417C372.6 171.417 386.854 171.572 386.854 171.764Z" fill="#E1E1E1"/>
<path d="M480.227 221.924C480.227 222.116 401.899 222.27 305.301 222.27C208.667 222.27 130.357 222.116 130.357 221.924C130.357 221.732 208.667 221.577 305.301 221.577C401.899 221.577 480.227 221.732 480.227 221.924Z" fill="#E1E1E1"/>
<path d="M142.216 198.281C142.052 198.281 141.897 198.344 141.781 198.46C141.661 198.577 141.596 198.734 141.596 198.901V211.884C141.596 212.225 141.874 212.504 142.216 212.504H155.214C155.556 212.504 155.834 212.225 155.834 211.884V202.756C155.834 202.592 155.769 202.433 155.653 202.318L151.928 198.592C151.812 198.476 151.66 198.412 151.497 198.41L142.224 198.281H142.216ZM155.214 213.504H142.216C141.322 213.504 140.596 212.777 140.596 211.884V198.901C140.596 198.465 140.768 198.054 141.078 197.748C141.389 197.441 141.788 197.249 142.238 197.281L151.512 197.41C151.936 197.416 152.334 197.585 152.634 197.885L156.36 201.61C156.661 201.91 156.834 202.329 156.834 202.756V211.884C156.834 212.777 156.108 213.504 155.214 213.504Z" fill="#E1E1E1"/>
<path d="M145.465 212.504H151.937V207.967H145.465V212.504ZM152.937 213.504H144.465V206.967H152.937V213.504Z" fill="#E1E1E1"/>
<path d="M145.466 203.493H150.68V198.398L145.466 198.326V203.493ZM151.68 204.493H144.466V197.312L151.68 197.412V204.493Z" fill="#E1E1E1"/>
<path d="M187.782 209.784C187.862 209.784 187.942 209.802 188.014 209.841L192.293 212.09L191.475 207.326C191.447 207.165 191.502 206.998 191.619 206.884L195.081 203.51L190.297 202.816C190.134 202.792 189.994 202.69 189.921 202.542L187.782 198.208L185.643 202.542C185.57 202.69 185.43 202.792 185.267 202.816L180.483 203.51L183.945 206.884C184.062 206.998 184.117 207.165 184.089 207.326L183.271 212.09L187.55 209.841C187.622 209.802 187.702 209.784 187.782 209.784ZM192.957 213.505C192.877 213.505 192.797 213.485 192.725 213.448L187.782 210.849L182.839 213.448C182.671 213.534 182.466 213.521 182.314 213.409C182.159 213.297 182.083 213.108 182.115 212.92L183.059 207.417L179.061 203.52C178.925 203.388 178.875 203.189 178.934 203.008C178.993 202.826 179.149 202.694 179.338 202.668L184.863 201.864L187.334 196.857C187.503 196.516 188.061 196.516 188.23 196.857L190.701 201.864L196.226 202.668C196.415 202.694 196.571 202.826 196.63 203.008C196.689 203.189 196.639 203.388 196.503 203.52L192.505 207.417L193.449 212.92C193.481 213.108 193.405 213.297 193.25 213.409C193.163 213.473 193.059 213.505 192.957 213.505Z" fill="#E1E1E1"/>
<path d="M223.289 210.425C222.131 210.425 220.984 209.913 220.235 209.009C219.264 207.838 219.061 206.136 219.731 204.77C220.319 203.569 221.528 202.741 222.845 202.593C222.848 201.002 223.677 199.426 225.011 198.549C226.495 197.576 228.524 197.516 230.061 198.404C231.428 199.193 232.343 200.696 232.453 202.266C233.999 202.189 235.523 202.842 236.439 204.017C237.544 205.436 237.613 207.48 236.603 208.876C235.536 210.353 233.369 210.813 231.873 209.882C231.639 209.736 231.567 209.428 231.713 209.193C231.859 208.958 232.167 208.886 232.401 209.033C233.449 209.686 235.033 209.337 235.792 208.29C236.536 207.262 236.475 205.69 235.649 204.632C234.856 203.614 233.408 203.088 232.041 203.314C231.893 203.342 231.737 203.296 231.624 203.194C231.511 203.093 231.451 202.945 231.459 202.793C231.541 201.389 230.779 199.973 229.561 199.269C228.344 198.565 226.735 198.612 225.56 199.385C224.384 200.158 223.705 201.616 223.869 203.013C223.885 203.157 223.839 203.302 223.74 203.409C223.641 203.516 223.512 203.56 223.356 203.57C222.244 203.512 221.119 204.208 220.628 205.21C220.137 206.212 220.292 207.512 221.004 208.37C221.716 209.229 222.96 209.62 224.04 209.325C224.309 209.252 224.583 209.408 224.655 209.674C224.729 209.94 224.572 210.214 224.307 210.288C223.973 210.381 223.631 210.425 223.289 210.425Z" fill="#E1E1E1"/>
<path d="M230.464 207.625C230.32 207.625 230.176 207.563 230.078 207.443L227.974 204.881L225.83 207.447C225.654 207.659 225.338 207.685 225.126 207.509C224.914 207.332 224.886 207.016 225.063 206.804L227.594 203.777C227.688 203.664 227.771 203.616 227.979 203.599C228.128 203.599 228.27 203.667 228.363 203.781L230.851 206.808C231.026 207.021 230.995 207.336 230.782 207.512C230.688 207.588 230.576 207.625 230.464 207.625Z" fill="#E1E1E1"/>
<path d="M227.956 212.308C227.68 212.308 227.456 212.084 227.456 211.808V204.099C227.456 203.823 227.68 203.599 227.956 203.599C228.232 203.599 228.456 203.823 228.456 204.099V211.808C228.456 212.084 228.232 212.308 227.956 212.308Z" fill="#E1E1E1"/>
<path d="M334.652 196.65C330.265 196.65 326.697 200.218 326.697 204.605C326.697 208.99 330.265 212.56 334.652 212.56C339.039 212.56 342.607 208.99 342.607 204.605C342.607 200.218 339.039 196.65 334.652 196.65ZM334.652 213.56C329.715 213.56 325.697 209.542 325.697 204.605C325.697 199.668 329.715 195.65 334.652 195.65C339.589 195.65 343.607 199.668 343.607 204.605C343.607 209.542 339.589 213.56 334.652 213.56Z" fill="#E1E1E1"/>
<path d="M338.111 204.942C337.993 204.942 337.874 204.901 337.779 204.815L334.651 202.035L331.525 204.815C331.319 204.999 331.003 204.982 330.818 204.774C330.635 204.567 330.654 204.251 330.861 204.069L334.319 200.994C334.509 200.826 334.795 200.826 334.983 200.994L338.443 204.069C338.65 204.251 338.669 204.567 338.485 204.774C338.386 204.886 338.25 204.942 338.111 204.942Z" fill="#E1E1E1"/>
<path d="M334.652 209.679C334.376 209.679 334.152 209.455 334.152 209.179V201.639C334.152 201.363 334.376 201.139 334.652 201.139C334.928 201.139 335.152 201.363 335.152 201.639V209.179C335.152 209.455 334.928 209.679 334.652 209.679Z" fill="#E1E1E1"/>
<path d="M422.936 197.087C418.549 197.087 414.981 200.655 414.981 205.042C414.981 209.427 418.549 212.996 422.936 212.996C427.322 212.996 430.89 209.427 430.89 205.042C430.89 200.655 427.322 197.087 422.936 197.087ZM422.936 213.996C417.998 213.996 413.981 209.979 413.981 205.042C413.981 200.104 417.998 196.087 422.936 196.087C427.873 196.087 431.89 200.104 431.89 205.042C431.89 209.979 427.873 213.996 422.936 213.996Z" fill="#E1E1E1"/>
<path d="M426.44 205.854H419.432C419.156 205.854 418.932 205.63 418.932 205.354C418.932 205.078 419.156 204.854 419.432 204.854H426.44C426.716 204.854 426.94 205.078 426.94 205.354C426.94 205.63 426.716 205.854 426.44 205.854Z" fill="#E1E1E1"/>
<path d="M458.141 196.487C453.755 196.487 450.187 200.055 450.187 204.442C450.187 208.827 453.755 212.397 458.141 212.397C462.528 212.397 466.096 208.827 466.096 204.442C466.096 200.055 462.528 196.487 458.141 196.487ZM458.141 213.397C453.204 213.397 449.187 209.379 449.187 204.442C449.187 199.505 453.204 195.487 458.141 195.487C463.079 195.487 467.096 199.505 467.096 204.442C467.096 209.379 463.079 213.397 458.141 213.397Z" fill="#E1E1E1"/>
<path d="M461.645 205.254H454.637C454.361 205.254 454.137 205.03 454.137 204.754C454.137 204.478 454.361 204.254 454.637 204.254H461.645C461.921 204.254 462.145 204.478 462.145 204.754C462.145 205.03 461.921 205.254 461.645 205.254Z" fill="#E1E1E1"/>
<path d="M458.141 208.609C457.865 208.609 457.641 208.385 457.641 208.109V201.101C457.641 200.825 457.865 200.601 458.141 200.601C458.417 200.601 458.641 200.825 458.641 201.101V208.109C458.641 208.385 458.417 208.609 458.141 208.609Z" fill="#E1E1E1"/>
<path d="M370.951 196.65C366.565 196.65 362.997 200.218 362.997 204.605C362.997 208.99 366.565 212.56 370.951 212.56C375.338 212.56 378.906 208.99 378.906 204.605C378.906 200.218 375.338 196.65 370.951 196.65ZM370.951 213.56C366.014 213.56 361.997 209.542 361.997 204.605C361.997 199.668 366.014 195.65 370.951 195.65C375.889 195.65 379.906 199.668 379.906 204.605C379.906 209.542 375.889 213.56 370.951 213.56Z" fill="#E1E1E1"/>
<path d="M370.951 208.342C370.833 208.342 370.714 208.3 370.619 208.216L367.161 205.141C366.954 204.957 366.935 204.642 367.119 204.436C367.303 204.229 367.618 204.209 367.825 204.394L370.951 207.173L374.079 204.394C374.285 204.21 374.601 204.23 374.785 204.436C374.969 204.642 374.95 204.957 374.743 205.141L371.283 208.216C371.189 208.3 371.07 208.342 370.951 208.342Z" fill="#E1E1E1"/>
<path d="M370.951 208.07C370.675 208.07 370.451 207.846 370.451 207.57V200.03C370.451 199.754 370.675 199.53 370.951 199.53C371.227 199.53 371.451 199.754 371.451 200.03V207.57C371.451 207.846 371.227 208.07 370.951 208.07Z" fill="#E1E1E1"/>
<path d="M312.816 258.645C312.816 258.837 285.6 258.993 252.035 258.993C218.457 258.993 191.247 258.837 191.247 258.645C191.247 258.453 218.457 258.298 252.035 258.298C285.6 258.298 312.816 258.453 312.816 258.645Z" fill="#1A2E35"/>
<path d="M162.842 564.676C162.65 564.676 162.495 487.942 162.495 393.308C162.495 298.642 162.65 221.924 162.842 221.924C163.034 221.924 163.189 298.642 163.189 393.308C163.189 487.942 163.034 564.676 162.842 564.676Z" fill="#E1E1E1"/>
<path d="M145.824 238.562C145.368 238.562 144.997 238.933 144.997 239.389V251.77C144.997 252.226 145.368 252.597 145.824 252.597H154.842C155.298 252.597 155.669 252.226 155.669 251.77V241.357L152.764 238.772C152.612 238.637 152.416 238.562 152.213 238.562H145.824ZM154.842 253.597H145.824C144.817 253.597 143.997 252.778 143.997 251.77V239.389C143.997 238.381 144.817 237.562 145.824 237.562H152.213C152.661 237.562 153.092 237.726 153.428 238.024L156.669 240.908V251.77C156.669 252.778 155.85 253.597 154.842 253.597Z" fill="#E1E1E1"/>
<path d="M149.752 258.428H140.852C139.844 258.428 139.025 257.61 139.025 256.602V244.78C139.025 243.772 139.844 242.954 140.852 242.954H144.497V243.954H140.852C140.396 243.954 140.025 244.324 140.025 244.78V256.602C140.025 257.058 140.396 257.428 140.852 257.428H149.752C150.208 257.428 150.579 257.058 150.579 256.602V253.096H151.579V256.602C151.579 257.61 150.759 258.428 149.752 258.428Z" fill="#E1E1E1"/>
<path d="M148.664 299.709C148.842 299.709 149.02 299.767 149.17 299.883L154.098 303.703V286.231H143.376V303.685L148.152 299.889C148.302 299.769 148.483 299.709 148.664 299.709ZM154.272 304.885C154.094 304.885 153.916 304.827 153.768 304.712L148.666 300.759L143.714 304.695C143.464 304.895 143.13 304.932 142.842 304.792C142.554 304.653 142.376 304.369 142.376 304.049V285.231H155.098V304.06C155.098 304.376 154.92 304.66 154.636 304.8C154.52 304.857 154.395 304.885 154.272 304.885Z" fill="#E1E1E1"/>
<path d="M144.315 349.842C142.977 349.842 141.64 349.328 140.635 348.307C138.667 346.311 138.639 343.155 140.569 341.123L148.372 332.914C149.101 332.147 150.085 331.712 151.141 331.688C152.192 331.668 153.2 332.055 153.961 332.787C154.74 333.536 155.171 334.543 155.172 335.623C155.173 336.703 154.747 337.712 153.969 338.463L149.756 342.536C148.944 343.322 147.632 343.312 146.833 342.511C146.436 342.114 146.219 341.586 146.223 341.023C146.228 340.46 146.452 339.934 146.856 339.542L150.179 336.316L150.875 337.034L147.552 340.259C147.343 340.464 147.225 340.738 147.223 341.031C147.221 341.322 147.333 341.598 147.54 341.804C147.956 342.22 148.637 342.227 149.061 341.818L153.275 337.744C153.855 337.184 154.173 336.431 154.172 335.626C154.171 334.818 153.849 334.067 153.268 333.508C152.7 332.962 151.948 332.675 151.164 332.688C150.375 332.706 149.641 333.031 149.097 333.603L141.295 341.814C139.737 343.451 139.76 345.995 141.347 347.604C142.941 349.226 145.571 349.259 147.205 347.68L155.843 339.346L156.537 340.064L147.9 348.399C146.903 349.362 145.608 349.842 144.315 349.842Z" fill="#E1E1E1"/>
<path d="M258.741 209.184H275.699V202.001H258.741V209.184ZM275.873 210.184H258.565C258.111 210.184 257.741 209.815 257.741 209.36V201.827C257.741 201.372 258.111 201.003 258.565 201.003H275.873C276.328 201.003 276.699 201.372 276.699 201.827V209.36C276.699 209.815 276.328 210.184 275.873 210.184Z" fill="#E1E1E1"/>
<path d="M261.924 201.003H272.881V197.248H261.924V201.003ZM273.057 202.003H261.749C261.295 202.003 260.924 201.632 260.924 201.179V197.072C260.924 196.617 261.295 196.248 261.749 196.248H273.057C273.512 196.248 273.881 196.617 273.881 197.072V201.179C273.881 201.632 273.512 202.003 273.057 202.003Z" fill="#E1E1E1"/>
<path d="M273.973 204.36H272.493V203.36H273.973V204.36Z" fill="#E1E1E1"/>
<path d="M273.057 213.144H261.75C261.57 213.144 261.425 212.998 261.425 212.818V206.306C261.425 206.126 261.57 205.981 261.75 205.981H273.057C273.235 205.981 273.382 206.126 273.382 206.306V212.818C273.382 212.998 273.235 213.144 273.057 213.144Z" fill="white"/>
<path d="M261.924 212.644H272.881V206.481H261.924V212.644ZM273.057 213.644H261.749C261.295 213.644 260.924 213.273 260.924 212.819V206.305C260.924 205.851 261.295 205.481 261.749 205.481H273.057C273.512 205.481 273.881 205.851 273.881 206.305V212.819C273.881 213.273 273.512 213.644 273.057 213.644Z" fill="#E1E1E1"/>
<path d="M305.311 218.625C305.119 218.625 304.964 212.275 304.964 204.443C304.964 196.607 305.119 190.257 305.311 190.257C305.503 190.257 305.657 196.607 305.657 204.443C305.657 212.275 305.503 218.625 305.311 218.625Z" fill="#E1E1E1"/>
<path d="M397.201 221.754C397.008 221.754 396.853 214.337 396.853 205.189C396.853 196.037 397.008 188.621 397.201 188.621C397.393 188.621 397.548 196.037 397.548 205.189C397.548 214.337 397.393 221.754 397.201 221.754Z" fill="#E1E1E1"/>
<path d="M431.391 315.169H366.26V300.781H431.391V315.169Z" fill="#FFBF23"/>
<path d="M449.687 296.141H416.645V286.196H449.687V296.141Z" fill="#FFBF23"/>
<path d="M258.241 408.527H180.981V394.139H258.241V408.527Z" fill="#FFBF23"/>
<path d="M443.42 514.596H266.591V500.208H443.42V514.596Z" fill="#FFBF23"/>
<path d="M410.134 291.619C410.134 291.811 360.18 291.966 298.572 291.966C236.943 291.966 187 291.811 187 291.619C187 291.427 236.943 291.272 298.572 291.272C360.18 291.272 410.134 291.427 410.134 291.619Z" fill="#1A2E35"/>
<path d="M358.583 308.472C358.583 308.664 320.169 308.82 272.796 308.82C225.405 308.82 187 308.664 187 308.472C187 308.28 225.405 308.125 272.796 308.125C320.169 308.125 358.583 308.28 358.583 308.472Z" fill="#1A2E35"/>
<path d="M443.42 291.619C443.42 291.811 438.841 291.966 433.195 291.966C427.547 291.966 422.969 291.811 422.969 291.619C422.969 291.427 427.547 291.272 433.195 291.272C438.841 291.272 443.42 291.427 443.42 291.619Z" fill="#1A2E35"/>
<path d="M427.059 307.366C427.059 307.558 414.573 307.713 399.173 307.713C383.767 307.713 371.283 307.558 371.283 307.366C371.283 307.174 383.767 307.02 399.173 307.02C414.573 307.02 427.059 307.174 427.059 307.366Z" fill="#1A2E35"/>
<path d="M252.816 327.854C252.816 328.046 238.081 328.202 219.909 328.202C201.732 328.202 187 328.046 187 327.854C187 327.662 201.732 327.507 219.909 327.507C238.081 327.507 252.816 327.662 252.816 327.854Z" fill="#1A2E35"/>
<path d="M302.121 326.337C302.121 326.529 294.795 326.685 285.761 326.685C276.723 326.685 269.398 326.529 269.398 326.337C269.398 326.145 276.723 325.99 285.761 325.99C294.795 325.99 302.121 326.145 302.121 326.337Z" fill="#1A2E35"/>
<path d="M419.251 325.578C419.251 325.77 396.691 325.925 368.868 325.925C341.036 325.925 318.481 325.77 318.481 325.578C318.481 325.386 341.036 325.231 368.868 325.231C396.691 325.231 419.251 325.386 419.251 325.578Z" fill="#1A2E35"/>
<path d="M447.882 325.578C447.882 325.77 444.053 325.925 439.33 325.925C434.606 325.925 430.778 325.77 430.778 325.578C430.778 325.386 434.606 325.231 439.33 325.231C444.053 325.231 447.882 325.386 447.882 325.578Z" fill="#1A2E35"/>
<path d="M295.578 345.687C295.578 345.879 271.27 346.033 241.292 346.033C211.302 346.033 187 345.879 187 345.687C187 345.495 211.302 345.339 241.292 345.339C271.27 345.339 295.578 345.495 295.578 345.687Z" fill="#1A2E35"/>
<path d="M335.587 345.307C335.587 345.5 329.425 345.655 321.829 345.655C314.229 345.655 308.069 345.5 308.069 345.307C308.069 345.115 314.229 344.96 321.829 344.96C329.425 344.96 335.587 345.115 335.587 345.307Z" fill="#1A2E35"/>
<path d="M442.676 345.307C442.676 345.5 421.866 345.655 396.199 345.655C370.523 345.655 349.716 345.5 349.716 345.307C349.716 345.115 370.523 344.96 396.199 344.96C421.866 344.96 442.676 345.115 442.676 345.307Z" fill="#1A2E35"/>
<path d="M410.134 365.826C410.134 366.018 360.18 366.173 298.572 366.173C236.943 366.173 187 366.018 187 365.826C187 365.634 236.943 365.478 298.572 365.478C360.18 365.478 410.134 365.634 410.134 365.826Z" fill="#1A2E35"/>
<path d="M358.583 382.679C358.583 382.871 320.169 383.027 272.796 383.027C225.405 383.027 187 382.871 187 382.679C187 382.487 225.405 382.332 272.796 382.332C320.169 382.332 358.583 382.487 358.583 382.679Z" fill="#1A2E35"/>
<path d="M443.42 365.826C443.42 366.018 438.841 366.173 433.195 366.173C427.547 366.173 422.969 366.018 422.969 365.826C422.969 365.634 427.547 365.478 433.195 365.478C438.841 365.478 443.42 365.634 443.42 365.826Z" fill="#1A2E35"/>
<path d="M427.059 381.573C427.059 381.765 414.573 381.921 399.173 381.921C383.767 381.921 371.283 381.765 371.283 381.573C371.283 381.381 383.767 381.225 399.173 381.225C414.573 381.225 427.059 381.381 427.059 381.573Z" fill="#1A2E35"/>
<path d="M252.816 402.062C252.816 402.254 238.081 402.408 219.909 402.408C201.732 402.408 187 402.254 187 402.062C187 401.868 201.732 401.714 219.909 401.714C238.081 401.714 252.816 401.868 252.816 402.062Z" fill="#1A2E35"/>
<path d="M302.121 400.543C302.121 400.735 294.795 400.891 285.761 400.891C276.723 400.891 269.398 400.735 269.398 400.543C269.398 400.351 276.723 400.197 285.761 400.197C294.795 400.197 302.121 400.351 302.121 400.543Z" fill="#1A2E35"/>
<path d="M419.251 399.784C419.251 399.978 396.691 400.132 368.868 400.132C341.036 400.132 318.481 399.978 318.481 399.784C318.481 399.592 341.036 399.438 368.868 399.438C396.691 399.438 419.251 399.592 419.251 399.784Z" fill="#1A2E35"/>
<path d="M447.882 399.784C447.882 399.978 444.053 400.132 439.33 400.132C434.606 400.132 430.778 399.978 430.778 399.784C430.778 399.592 434.606 399.438 439.33 399.438C444.053 399.438 447.882 399.592 447.882 399.784Z" fill="#1A2E35"/>
<path d="M295.578 419.894C295.578 420.086 271.27 420.24 241.292 420.24C211.302 420.24 187 420.086 187 419.894C187 419.702 211.302 419.546 241.292 419.546C271.27 419.546 295.578 419.702 295.578 419.894Z" fill="#1A2E35"/>
<path d="M335.587 419.514C335.587 419.707 329.425 419.862 321.829 419.862C314.229 419.862 308.069 419.707 308.069 419.514C308.069 419.322 314.229 419.167 321.829 419.167C329.425 419.167 335.587 419.322 335.587 419.514Z" fill="#1A2E35"/>
<path d="M442.676 419.514C442.676 419.707 421.866 419.862 396.199 419.862C370.523 419.862 349.716 419.707 349.716 419.514C349.716 419.322 370.523 419.167 396.199 419.167C421.866 419.167 442.676 419.322 442.676 419.514Z" fill="#1A2E35"/>
<path d="M220.123 491.05C220.123 490.856 270.078 490.702 331.685 490.702C393.314 490.702 443.258 490.856 443.258 491.05C443.258 491.242 393.314 491.396 331.685 491.396C270.078 491.396 220.123 491.242 220.123 491.05Z" fill="#1A2E35"/>
<path d="M271.675 474.196C271.675 474.004 310.088 473.849 357.461 473.849C404.852 473.849 443.257 474.004 443.257 474.196C443.257 474.388 404.852 474.544 357.461 474.544C310.088 474.544 271.675 474.388 271.675 474.196Z" fill="#1A2E35"/>
<path d="M186.837 491.05C186.837 490.856 191.416 490.702 197.063 490.702C202.711 490.702 207.288 490.856 207.288 491.05C207.288 491.242 202.711 491.396 197.063 491.396C191.416 491.396 186.837 491.242 186.837 491.05Z" fill="#1A2E35"/>
<path d="M186.837 475.303C186.837 475.109 202.987 474.955 222.904 474.955C242.828 474.955 258.975 475.109 258.975 475.303C258.975 475.495 242.828 475.649 222.904 475.649C202.987 475.649 186.837 475.495 186.837 475.303Z" fill="#1A2E35"/>
<path d="M334.68 436.982C334.68 436.789 358.988 436.634 388.965 436.634C418.955 436.634 443.257 436.789 443.257 436.982C443.257 437.174 418.955 437.329 388.965 437.329C358.988 437.329 334.68 437.174 334.68 436.982Z" fill="#1A2E35"/>
<path d="M294.671 437.361C294.671 437.169 300.831 437.013 308.429 437.013C316.029 437.013 322.187 437.169 322.187 437.361C322.187 437.553 316.029 437.709 308.429 437.709C300.831 437.709 294.671 437.553 294.671 437.361Z" fill="#1A2E35"/>
<path d="M187.581 437.361C187.581 437.169 208.393 437.013 234.058 437.013C259.734 437.013 280.541 437.169 280.541 437.361C280.541 437.553 259.734 437.709 234.058 437.709C208.393 437.709 187.581 437.553 187.581 437.361Z" fill="#1A2E35"/>
<path d="M480.045 564.843H466.596V221.755H480.045V564.843Z" fill="#E1E1E1"/>
<path d="M473.321 284.07C469.566 284.07 466.521 281.026 466.521 277.271V253.092C466.521 249.336 469.566 246.292 473.321 246.292C477.076 246.292 480.121 249.336 480.121 253.092V277.271C480.121 281.026 477.076 284.07 473.321 284.07Z" fill="#F5F5F5"/>
<path d="M473.321 246.325C469.59 246.325 466.556 249.36 466.556 253.092V277.271C466.556 281.001 469.59 284.037 473.321 284.037C477.052 284.037 480.086 281.001 480.086 277.271V253.092C480.086 249.36 477.052 246.325 473.321 246.325ZM473.321 284.103C469.553 284.103 466.488 281.039 466.488 277.271V253.092C466.488 249.324 469.553 246.259 473.321 246.259C477.089 246.259 480.154 249.324 480.154 253.092V277.271C480.154 281.039 477.089 284.103 473.321 284.103Z" fill="#E1E1E1"/>
<path d="M220.287 524.929C220.287 524.737 270.24 524.581 331.848 524.581C393.477 524.581 443.42 524.737 443.42 524.929C443.42 525.121 393.477 525.275 331.848 525.275C270.24 525.275 220.287 525.121 220.287 524.929Z" fill="#1A2E35"/>
<path d="M271.838 508.076C271.838 507.883 310.251 507.728 357.625 507.728C405.015 507.728 443.421 507.883 443.421 508.076C443.421 508.268 405.015 508.423 357.625 508.423C310.251 508.423 271.838 508.268 271.838 508.076Z" fill="#1A2E35"/>
<path d="M187 524.929C187 524.737 191.579 524.581 197.225 524.581C202.873 524.581 207.452 524.737 207.452 524.929C207.452 525.121 202.873 525.275 197.225 525.275C191.579 525.275 187 525.121 187 524.929Z" fill="#1A2E35"/>
<path d="M187 509.181C187 508.988 203.149 508.833 223.067 508.833C242.991 508.833 259.137 508.988 259.137 509.181C259.137 509.373 242.991 509.528 223.067 509.528C203.149 509.528 187 509.373 187 509.181Z" fill="#1A2E35"/>
<path d="M443.881 546.206C443.881 546.398 386.513 546.554 315.762 546.554C244.986 546.554 187.632 546.398 187.632 546.206C187.632 546.014 244.986 545.86 315.762 545.86C386.513 545.86 443.881 546.014 443.881 546.206Z" fill="#1A2E35"/>
</g>
<mask id="mask4_321_6033" style="mask-type:luminance" maskUnits="userSpaceOnUse" x="0" y="0" width="667" height="667">
<path d="M0 0.000121117H666.667V666.667H0V0.000121117Z" fill="white"/>
</mask>
<g mask="url(#mask4_321_6033)">
<path d="M445.545 309.078C445.545 311.127 443.884 312.789 441.834 312.789C439.785 312.789 438.125 311.127 438.125 309.078C438.125 307.029 439.785 305.367 441.834 305.367C443.884 305.367 445.545 307.029 445.545 309.078Z" fill="#FFBF23"/>
<path d="M459.276 507.857C459.276 509.907 457.614 511.568 455.565 511.568C453.516 511.568 451.854 509.907 451.854 507.857C451.854 505.808 453.516 504.148 455.565 504.148C457.614 504.148 459.276 505.808 459.276 507.857Z" fill="#FFBF23"/>
<path d="M464.721 290.55C464.721 292.599 463.059 294.261 461.01 294.261C458.961 294.261 457.299 292.599 457.299 290.55C457.299 288.501 458.961 286.839 461.01 286.839C463.059 286.839 464.721 288.501 464.721 290.55Z" fill="#FFBF23"/>
<path d="M616.527 418.56L519.919 418.51C515.589 418.508 512.083 414.996 512.084 410.667L512.147 292.967C512.149 288.638 515.66 285.13 519.989 285.132L616.597 285.183C620.927 285.184 624.435 288.696 624.432 293.026L624.371 410.726C624.368 415.055 620.856 418.563 616.527 418.56Z" fill="white"/>
<path d="M616.527 418.56C616.525 418.53 616.948 418.559 617.749 418.422C618.539 418.28 619.749 417.972 621.035 417.044C622.309 416.144 623.649 414.532 624.112 412.263C624.339 411.139 624.232 409.876 624.252 408.536C624.248 407.198 624.243 405.77 624.237 404.258C624.219 392.15 624.189 374.66 624.155 353.054C624.148 342.243 624.14 330.403 624.131 317.694C624.128 311.338 624.127 304.766 624.124 297.995C624.121 296.304 624.117 294.6 624.115 292.886C624.089 291.235 623.496 289.592 622.443 288.291C621.385 287.002 619.892 286.043 618.235 285.684C617.404 285.499 616.564 285.494 615.664 285.5H612.992C584.407 285.494 552.984 285.487 520 285.479C518.023 285.47 516.073 286.279 514.689 287.671C513.296 289.055 512.492 290.992 512.495 292.944C512.492 297.016 512.489 301.062 512.485 305.079C512.48 313.112 512.473 321.028 512.468 328.806C512.452 344.362 512.439 359.366 512.424 373.659C512.415 380.807 512.407 387.775 512.397 394.547C512.393 397.932 512.388 401.268 512.385 404.552C512.383 406.196 512.38 407.824 512.377 409.44C512.324 411.075 512.425 412.607 513.152 413.995C513.815 415.376 514.921 416.514 516.227 417.258C517.551 418.011 519.035 418.288 520.556 418.232C523.623 418.238 526.633 418.243 529.584 418.248C535.484 418.258 541.145 418.268 546.551 418.279C568.159 418.336 585.647 418.383 597.753 418.416C603.785 418.447 608.473 418.472 611.673 418.488C613.252 418.504 614.46 418.516 615.293 418.526C616.111 418.536 616.527 418.56 616.527 418.56C616.527 418.56 616.111 418.584 615.293 418.595C614.46 418.603 613.252 418.614 611.673 418.628C608.473 418.642 603.785 418.66 597.753 418.687C585.647 418.706 568.159 418.735 546.551 418.77C541.145 418.774 535.483 418.778 529.583 418.783C526.633 418.784 523.623 418.787 520.556 418.788C519.804 418.804 518.979 418.764 518.2 418.603C517.415 418.435 516.66 418.138 515.949 417.751C514.544 416.955 513.353 415.735 512.635 414.25C511.849 412.795 511.737 411.014 511.792 409.439C511.792 407.824 511.791 406.195 511.791 404.552C511.789 401.268 511.788 397.932 511.787 394.547C511.785 387.775 511.784 380.807 511.784 373.659C511.784 359.366 511.785 344.362 511.787 328.806C511.789 321.027 511.792 313.112 511.795 305.079C511.796 301.062 511.799 297.015 511.801 292.942C511.796 290.812 512.677 288.691 514.199 287.18C515.708 285.659 517.844 284.774 520 284.784C552.984 284.811 584.408 284.838 612.993 284.862C613.887 284.862 614.776 284.863 615.664 284.864C616.535 284.858 617.477 284.863 618.372 285.066C620.171 285.458 621.785 286.499 622.931 287.898C624.068 289.307 624.708 291.09 624.733 292.875C624.733 294.594 624.733 296.3 624.735 297.995C624.724 304.766 624.716 311.338 624.707 317.694C624.685 330.403 624.665 342.243 624.647 353.054C624.588 374.662 624.541 392.15 624.508 404.258C624.501 405.77 624.497 407.198 624.491 408.536C624.46 409.87 624.559 411.139 624.315 412.304C623.816 414.631 622.425 416.262 621.115 417.158C619.793 418.084 618.56 418.371 617.761 418.491C617.356 418.56 617.045 418.559 616.837 418.563C616.632 418.568 616.527 418.56 616.527 418.56Z" fill="#1A2E35"/>
<path d="M636.016 288.89C636.016 297.266 629.226 304.057 620.851 304.057C612.475 304.057 605.684 297.266 605.684 288.89C605.684 280.514 612.475 273.723 620.851 273.723C629.226 273.723 636.016 280.514 636.016 288.89Z" fill="#FFBF23"/>
<path d="M577.027 323.06C577.027 323.252 564.645 323.407 549.375 323.407C534.099 323.407 521.719 323.252 521.719 323.06C521.719 322.868 534.099 322.712 549.375 322.712C564.645 322.712 577.027 322.868 577.027 323.06Z" fill="#1A2E35"/>
<path d="M599.393 322.817C599.393 323.009 595.771 323.164 591.307 323.164C586.839 323.164 583.218 323.009 583.218 322.817C583.218 322.625 586.839 322.469 591.307 322.469C595.771 322.469 599.393 322.625 599.393 322.817Z" fill="#1A2E35"/>
<path d="M616.181 322.202C616.181 322.394 613.843 322.55 610.961 322.55C608.077 322.55 605.739 322.394 605.739 322.202C605.739 322.01 608.077 321.856 610.961 321.856C613.843 321.856 616.181 322.01 616.181 322.202Z" fill="#1A2E35"/>
<path d="M577.027 331.398C577.027 331.59 564.645 331.746 549.375 331.746C534.099 331.746 521.719 331.59 521.719 331.398C521.719 331.206 534.099 331.052 549.375 331.052C564.645 331.052 577.027 331.206 577.027 331.398Z" fill="#1A2E35"/>
<path d="M616.18 331.155C616.18 331.347 608.802 331.501 599.701 331.501C590.598 331.501 583.218 331.347 583.218 331.155C583.218 330.963 590.598 330.808 599.701 330.808C608.802 330.808 616.18 330.963 616.18 331.155Z" fill="#1A2E35"/>
<path d="M560.873 347.18C560.873 346.988 573.255 346.832 588.525 346.832C603.801 346.832 616.18 346.988 616.18 347.18C616.18 347.372 603.801 347.527 588.525 347.527C573.255 347.527 560.873 347.372 560.873 347.18Z" fill="#1A2E35"/>
<path d="M538.507 347.424C538.507 347.232 542.129 347.076 546.593 347.076C551.061 347.076 554.681 347.232 554.681 347.424C554.681 347.616 551.061 347.771 546.593 347.771C542.129 347.771 538.507 347.616 538.507 347.424Z" fill="#1A2E35"/>
<path d="M521.718 348.038C521.718 347.845 524.057 347.69 526.94 347.69C529.824 347.69 532.16 347.845 532.16 348.038C532.16 348.23 529.824 348.385 526.94 348.385C524.057 348.385 521.718 348.23 521.718 348.038Z" fill="#1A2E35"/>
<path d="M560.873 338.842C560.873 338.65 573.255 338.494 588.525 338.494C603.801 338.494 616.18 338.65 616.18 338.842C616.18 339.034 603.801 339.19 588.525 339.19C573.255 339.19 560.873 339.034 560.873 338.842Z" fill="#1A2E35"/>
<path d="M521.718 339.085C521.718 338.893 529.098 338.737 538.198 338.737C547.302 338.737 554.681 338.893 554.681 339.085C554.681 339.277 547.302 339.433 538.198 339.433C529.098 339.433 521.718 339.277 521.718 339.085Z" fill="#1A2E35"/>
<path d="M577.027 358.218C577.027 358.411 564.645 358.566 549.375 358.566C534.099 358.566 521.719 358.411 521.719 358.218C521.719 358.026 534.099 357.871 549.375 357.871C564.645 357.871 577.027 358.026 577.027 358.218Z" fill="#1A2E35"/>
<path d="M599.393 357.975C599.393 358.168 595.771 358.323 591.307 358.323C586.839 358.323 583.218 358.168 583.218 357.975C583.218 357.783 586.839 357.628 591.307 357.628C595.771 357.628 599.393 357.783 599.393 357.975Z" fill="#1A2E35"/>
<path d="M616.181 357.361C616.181 357.553 613.843 357.708 610.961 357.708C608.077 357.708 605.739 357.553 605.739 357.361C605.739 357.168 608.077 357.013 610.961 357.013C613.843 357.013 616.181 357.168 616.181 357.361Z" fill="#1A2E35"/>
<path d="M577.027 366.557C577.027 366.749 564.645 366.905 549.375 366.905C534.099 366.905 521.719 366.749 521.719 366.557C521.719 366.365 534.099 366.21 549.375 366.21C564.645 366.21 577.027 366.365 577.027 366.557Z" fill="#1A2E35"/>
<path d="M616.18 366.313C616.18 366.505 608.802 366.661 599.701 366.661C590.598 366.661 583.218 366.505 583.218 366.313C583.218 366.121 590.598 365.966 599.701 365.966C608.802 365.966 616.18 366.121 616.18 366.313Z" fill="#1A2E35"/>
<path d="M560.873 382.338C560.873 382.146 573.255 381.991 588.525 381.991C603.801 381.991 616.18 382.146 616.18 382.338C616.18 382.531 603.801 382.686 588.525 382.686C573.255 382.686 560.873 382.531 560.873 382.338Z" fill="#1A2E35"/>
<path d="M538.507 382.581C538.507 382.389 542.129 382.235 546.593 382.235C551.061 382.235 554.681 382.389 554.681 382.581C554.681 382.775 551.061 382.929 546.593 382.929C542.129 382.929 538.507 382.775 538.507 382.581Z" fill="#1A2E35"/>
<path d="M521.718 383.196C521.718 383.004 524.057 382.849 526.94 382.849C529.824 382.849 532.16 383.004 532.16 383.196C532.16 383.388 529.824 383.544 526.94 383.544C524.057 383.544 521.718 383.388 521.718 383.196Z" fill="#1A2E35"/>
<path d="M560.873 374.001C560.873 373.807 573.255 373.653 588.525 373.653C603.801 373.653 616.18 373.807 616.18 374.001C616.18 374.193 603.801 374.347 588.525 374.347C573.255 374.347 560.873 374.193 560.873 374.001Z" fill="#1A2E35"/>
<path d="M521.718 374.244C521.718 374.051 529.098 373.896 538.198 373.896C547.302 373.896 554.681 374.051 554.681 374.244C554.681 374.436 547.302 374.591 538.198 374.591C529.098 374.591 521.718 374.436 521.718 374.244Z" fill="#1A2E35"/>
<path d="M614.395 405.819C614.395 406.011 606.587 406.167 596.958 406.167C587.325 406.167 579.519 406.011 579.519 405.819C579.519 405.627 587.325 405.473 596.958 405.473C606.587 405.473 614.395 405.627 614.395 405.819Z" fill="#1A2E35"/>
<path d="M617.481 294.291L615.333 292.142L624.961 282.512L627.112 284.662L617.481 294.291Z" fill="white"/>
<path d="M627.111 292.142L624.962 294.291L615.333 284.662L617.481 282.513L627.111 292.142Z" fill="white"/>
<path d="M616.561 529.399L519.951 529.348C515.623 529.347 512.115 525.835 512.117 521.506L512.146 466.759C512.147 462.428 515.659 458.922 519.989 458.924L616.597 458.975C620.926 458.978 624.434 462.487 624.431 466.816L624.403 521.564C624.401 525.894 620.889 529.402 616.561 529.399Z" fill="white"/>
<path d="M616.561 529.399C616.534 529.312 617.862 529.539 619.979 528.531C621.015 528.02 622.206 527.118 623.105 525.676C623.551 524.962 623.925 524.115 624.115 523.159C624.327 522.208 624.263 521.162 624.269 520.044C624.247 511.116 624.215 498.238 624.178 482.331C624.173 478.35 624.167 474.18 624.162 469.835C624.154 468.754 624.174 467.642 624.145 466.552C624.107 465.483 623.841 464.415 623.353 463.442C622.398 461.48 620.497 459.964 618.297 459.463C617.21 459.184 616.037 459.283 614.837 459.266C613.646 459.266 612.447 459.267 611.238 459.268C608.818 459.27 606.363 459.271 603.869 459.272C598.882 459.275 593.75 459.278 588.487 459.279C567.433 459.276 544.29 459.274 519.997 459.27C517.071 459.235 514.273 461.083 513.137 463.732C512.526 465.063 512.447 466.468 512.491 467.982C512.49 469.472 512.489 470.956 512.489 472.435C512.483 478.352 512.478 484.183 512.474 489.911C512.469 495.64 512.462 501.266 512.457 506.778C512.454 509.534 512.45 512.26 512.447 514.955C512.445 516.303 512.443 517.643 512.442 518.975C512.469 520.303 512.357 521.655 512.569 522.88C513.007 525.38 514.795 527.526 517.077 528.463C518.23 528.942 519.427 529.072 520.699 529.039C521.965 529.042 523.221 529.043 524.467 529.046C529.454 529.054 534.295 529.063 538.977 529.071C548.338 529.091 557.058 529.11 565.022 529.127C580.926 529.182 593.806 529.226 602.733 529.258C607.169 529.287 610.618 529.312 612.985 529.327C614.142 529.343 615.029 529.355 615.651 529.364C616.253 529.375 616.561 529.399 616.561 529.399C616.561 529.399 616.253 529.423 615.651 529.434C615.029 529.442 614.142 529.454 612.985 529.468C610.618 529.482 607.169 529.502 602.733 529.527C593.806 529.548 580.926 529.58 565.022 529.618C557.058 529.627 548.338 529.636 538.977 529.647C534.295 529.648 529.454 529.652 524.467 529.655C523.219 529.656 521.965 529.658 520.699 529.658C519.447 529.698 518.061 529.559 516.837 529.04C514.363 528.031 512.422 525.711 511.938 522.996C511.706 521.62 511.827 520.306 511.795 518.975V514.955C511.794 512.26 511.794 509.534 511.794 506.778V489.911C511.795 484.182 511.797 478.352 511.798 472.435C511.798 470.956 511.799 469.472 511.799 467.982C511.802 467.244 511.777 466.488 511.875 465.703C511.957 464.924 512.202 464.172 512.502 463.451C513.743 460.556 516.802 458.538 519.998 458.576C544.29 458.598 567.433 458.62 588.487 458.64C593.751 458.648 598.882 458.655 603.869 458.662C606.363 458.666 608.819 458.671 611.238 458.675C612.447 458.676 613.647 458.679 614.838 458.682C616.009 458.703 617.227 458.599 618.426 458.902C620.795 459.448 622.83 461.084 623.851 463.194C624.37 464.24 624.655 465.39 624.691 466.535C624.717 467.66 624.695 468.744 624.699 469.835C624.689 474.18 624.678 478.35 624.669 482.331C624.614 498.238 624.57 511.118 624.538 520.044C624.523 521.15 624.579 522.223 624.35 523.208C624.143 524.192 623.747 525.058 623.279 525.787C622.338 527.255 621.105 528.156 620.042 528.655C618.971 529.163 618.067 529.316 617.471 529.378C616.869 529.419 616.561 529.399 616.561 529.399Z" fill="#1A2E35"/>
<path d="M636.016 462.681C636.016 471.057 629.226 477.848 620.851 477.848C612.475 477.848 605.684 471.057 605.684 462.681C605.684 454.305 612.475 447.515 620.851 447.515C629.226 447.515 636.016 454.305 636.016 462.681Z" fill="#FFBF23"/>
<path d="M577.027 496.852C577.027 497.044 564.645 497.199 549.375 497.199C534.099 497.199 521.719 497.044 521.719 496.852C521.719 496.66 534.099 496.504 549.375 496.504C564.645 496.504 577.027 496.66 577.027 496.852Z" fill="#1A2E35"/>
<path d="M599.393 496.609C599.393 496.801 595.771 496.955 591.307 496.955C586.839 496.955 583.218 496.801 583.218 496.609C583.218 496.417 586.839 496.261 591.307 496.261C595.771 496.261 599.393 496.417 599.393 496.609Z" fill="#1A2E35"/>
<path d="M616.181 495.994C616.181 496.186 613.843 496.342 610.961 496.342C608.077 496.342 605.739 496.186 605.739 495.994C605.739 495.802 608.077 495.646 610.961 495.646C613.843 495.646 616.181 495.802 616.181 495.994Z" fill="#1A2E35"/>
<path d="M577.027 505.191C577.027 505.383 564.645 505.537 549.375 505.537C534.099 505.537 521.719 505.383 521.719 505.191C521.719 504.997 534.099 504.843 549.375 504.843C564.645 504.843 577.027 504.997 577.027 505.191Z" fill="#1A2E35"/>
<path d="M616.18 504.947C616.18 505.139 608.802 505.294 599.701 505.294C590.598 505.294 583.218 505.139 583.218 504.947C583.218 504.754 590.598 504.599 599.701 504.599C608.802 504.599 616.18 504.754 616.18 504.947Z" fill="#1A2E35"/>
<path d="M560.873 512.633C560.873 512.441 573.255 512.285 588.525 512.285C603.801 512.285 616.18 512.441 616.18 512.633C616.18 512.825 603.801 512.981 588.525 512.981C573.255 512.981 560.873 512.825 560.873 512.633Z" fill="#1A2E35"/>
<path d="M521.718 512.877C521.718 512.685 529.098 512.529 538.198 512.529C547.302 512.529 554.681 512.685 554.681 512.877C554.681 513.069 547.302 513.225 538.198 513.225C529.098 513.225 521.718 513.069 521.718 512.877Z" fill="#1A2E35"/>
<path d="M617.481 468.083L615.333 465.935L624.961 456.304L627.112 458.452L617.481 468.083Z" fill="white"/>
<path d="M627.111 465.934L624.962 468.082L615.333 458.453L617.481 456.303L627.111 465.934Z" fill="white"/>
<path d="M525.63 308.527L524.75 306.401L523.868 308.527H525.63ZM526.035 309.503H523.456L522.964 310.694H521.647L524.122 305.139H525.391L527.876 310.694H526.527L526.035 309.503Z" fill="#1A2E35"/>
<path d="M532.737 308.249V310.693H531.499V308.44C531.499 307.749 531.182 307.432 530.634 307.432C530.039 307.432 529.61 307.797 529.61 308.582V310.693H528.374V306.424H529.555V306.924C529.889 306.558 530.389 306.361 530.967 306.361C531.975 306.361 532.737 306.948 532.737 308.249Z" fill="#1A2E35"/>
<path d="M538.223 308.249V310.693H536.986V308.44C536.986 307.749 536.669 307.432 536.121 307.432C535.526 307.432 535.097 307.797 535.097 308.582V310.693H533.861V306.424H535.042V306.924C535.375 306.558 535.875 306.361 536.454 306.361C537.462 306.361 538.223 306.948 538.223 308.249Z" fill="#1A2E35"/>
<path d="M542.513 308.559C542.513 307.821 542.043 307.377 541.426 307.377C540.806 307.377 540.33 307.821 540.33 308.559C540.33 309.297 540.806 309.742 541.426 309.742C542.043 309.742 542.513 309.297 542.513 308.559ZM539.077 308.559C539.077 307.274 540.069 306.362 541.426 306.362C542.782 306.362 543.765 307.274 543.765 308.559C543.765 309.845 542.782 310.757 541.426 310.757C540.069 310.757 539.077 309.845 539.077 308.559Z" fill="#1A2E35"/>
<path d="M547.349 310.487C547.095 310.67 546.722 310.758 546.341 310.758C545.333 310.758 544.747 310.24 544.747 309.226V307.472H544.089V306.519H544.747V305.48H545.985V306.519H547.047V307.472H545.985V309.21C545.985 309.575 546.183 309.772 546.515 309.772C546.699 309.772 546.881 309.718 547.015 309.614L547.349 310.487Z" fill="#1A2E35"/>
<path d="M550.589 309.344V308.908H549.74C549.161 308.908 548.979 309.122 548.979 309.408C548.979 309.718 549.24 309.924 549.676 309.924C550.089 309.924 550.447 309.734 550.589 309.344ZM551.827 308.258V310.694H550.669V310.162C550.439 310.551 549.995 310.758 549.367 310.758C548.368 310.758 547.772 310.202 547.772 309.463C547.772 308.71 548.304 308.186 549.605 308.186H550.589C550.589 307.654 550.272 307.344 549.605 307.344C549.153 307.344 548.684 307.495 548.376 307.742L547.931 306.876C548.399 306.543 549.089 306.362 549.772 306.362C551.072 306.362 551.827 306.964 551.827 308.258Z" fill="#1A2E35"/>
<path d="M555.703 310.487C555.449 310.67 555.076 310.758 554.695 310.758C553.687 310.758 553.101 310.24 553.101 309.226V307.472H552.443V306.519H553.101V305.48H554.339V306.519H555.401V307.472H554.339V309.21C554.339 309.575 554.537 309.772 554.869 309.772C555.053 309.772 555.235 309.718 555.369 309.614L555.703 310.487Z" fill="#1A2E35"/>
<path d="M556.404 306.424H557.641V310.693H556.404V306.424ZM556.253 305.139C556.253 304.751 556.563 304.448 557.023 304.448C557.483 304.448 557.792 304.735 557.792 305.115C557.792 305.528 557.483 305.829 557.023 305.829C556.563 305.829 556.253 305.528 556.253 305.139Z" fill="#1A2E35"/>
<path d="M561.912 308.559C561.912 307.821 561.443 307.377 560.826 307.377C560.206 307.377 559.73 307.821 559.73 308.559C559.73 309.297 560.206 309.742 560.826 309.742C561.443 309.742 561.912 309.297 561.912 308.559ZM558.476 308.559C558.476 307.274 559.468 306.362 560.826 306.362C562.182 306.362 563.164 307.274 563.164 308.559C563.164 309.845 562.182 310.757 560.826 310.757C559.468 310.757 558.476 309.845 558.476 308.559Z" fill="#1A2E35"/>
<path d="M568.359 308.249V310.693H567.122V308.44C567.122 307.749 566.804 307.432 566.256 307.432C565.662 307.432 565.232 307.797 565.232 308.582V310.693H563.996V306.424H565.178V306.924C565.511 306.558 566.011 306.361 566.59 306.361C567.598 306.361 568.359 306.948 568.359 308.249Z" fill="#1A2E35"/>
<path d="M526.726 480.21L525.846 478.083L524.965 480.21H526.726ZM527.131 481.186H524.553L524.061 482.377H522.743L525.218 476.822H526.487L528.973 482.377H527.623L527.131 481.186Z" fill="#1A2E35"/>
<path d="M533.833 479.933V482.377H532.595V480.123C532.595 479.433 532.278 479.115 531.73 479.115C531.135 479.115 530.706 479.481 530.706 480.266V482.377H529.47V478.109H530.651V478.607C530.985 478.242 531.485 478.045 532.063 478.045C533.071 478.045 533.833 478.631 533.833 479.933Z" fill="#1A2E35"/>
<path d="M539.32 479.933V482.377H538.082V480.123C538.082 479.433 537.765 479.115 537.217 479.115C536.622 479.115 536.193 479.481 536.193 480.266V482.377H534.957V478.109H536.138V478.607C536.472 478.242 536.972 478.045 537.55 478.045C538.558 478.045 539.32 478.631 539.32 479.933Z" fill="#1A2E35"/>
<path d="M543.609 480.243C543.609 479.504 543.14 479.06 542.522 479.06C541.902 479.06 541.426 479.504 541.426 480.243C541.426 480.98 541.902 481.425 542.522 481.425C543.14 481.425 543.609 480.98 543.609 480.243ZM540.173 480.243C540.173 478.957 541.165 478.045 542.522 478.045C543.878 478.045 544.861 478.957 544.861 480.243C544.861 481.528 543.878 482.44 542.522 482.44C541.165 482.44 540.173 481.528 540.173 480.243Z" fill="#1A2E35"/>
<path d="M548.445 482.171C548.191 482.354 547.818 482.44 547.437 482.44C546.429 482.44 545.843 481.924 545.843 480.91V479.155H545.185V478.203H545.843V477.163H547.081V478.203H548.143V479.155H547.081V480.892C547.081 481.258 547.279 481.456 547.611 481.456C547.795 481.456 547.977 481.4 548.111 481.298L548.445 482.171Z" fill="#1A2E35"/>
<path d="M551.686 481.028V480.592H550.836C550.258 480.592 550.075 480.805 550.075 481.092C550.075 481.4 550.336 481.608 550.772 481.608C551.186 481.608 551.543 481.417 551.686 481.028ZM552.923 479.941V482.377H551.766V481.845C551.535 482.233 551.091 482.441 550.463 482.441C549.464 482.441 548.868 481.885 548.868 481.146C548.868 480.393 549.4 479.869 550.702 479.869H551.686C551.686 479.337 551.368 479.028 550.702 479.028C550.25 479.028 549.78 479.178 549.472 479.425L549.027 478.56C549.495 478.226 550.186 478.045 550.868 478.045C552.168 478.045 552.923 478.648 552.923 479.941Z" fill="#1A2E35"/>
<path d="M556.799 482.171C556.546 482.354 556.172 482.44 555.791 482.44C554.783 482.44 554.198 481.924 554.198 480.91V479.155H553.539V478.203H554.198V477.163H555.435V478.203H556.498V479.155H555.435V480.892C555.435 481.258 555.634 481.456 555.966 481.456C556.15 481.456 556.331 481.4 556.466 481.298L556.799 482.171Z" fill="#1A2E35"/>
<path d="M557.501 478.108H558.739V482.376H557.501V478.108ZM557.349 476.823C557.349 476.435 557.66 476.132 558.119 476.132C558.579 476.132 558.889 476.419 558.889 476.799C558.889 477.212 558.579 477.514 558.119 477.514C557.66 477.514 557.349 477.212 557.349 476.823Z" fill="#1A2E35"/>
<path d="M563.009 480.243C563.009 479.504 562.539 479.06 561.922 479.06C561.302 479.06 560.826 479.504 560.826 480.243C560.826 480.98 561.302 481.425 561.922 481.425C562.539 481.425 563.009 480.98 563.009 480.243ZM559.573 480.243C559.573 478.957 560.565 478.045 561.922 478.045C563.278 478.045 564.261 478.957 564.261 480.243C564.261 481.528 563.278 482.44 561.922 482.44C560.565 482.44 559.573 481.528 559.573 480.243Z" fill="#1A2E35"/>
<path d="M569.455 479.933V482.377H568.218V480.123C568.218 479.433 567.901 479.115 567.353 479.115C566.758 479.115 566.329 479.481 566.329 480.266V482.377H565.093V478.109H566.274V478.607C566.607 478.242 567.107 478.045 567.686 478.045C568.694 478.045 569.455 478.631 569.455 479.933Z" fill="#1A2E35"/>
<path d="M616.555 241.428L519.947 241.378C515.618 241.375 512.11 237.864 512.113 233.535L512.141 178.787C512.143 174.458 515.655 170.951 519.983 170.952L616.593 171.003C620.921 171.006 624.429 174.516 624.426 178.846L624.398 233.594C624.397 237.923 620.885 241.43 616.555 241.428Z" fill="white"/>
<path d="M616.555 241.428C616.529 241.34 617.857 241.568 619.975 240.559C621.01 240.05 622.201 239.147 623.101 237.706C623.546 236.99 623.921 236.144 624.111 235.188C624.322 234.238 624.259 233.19 624.263 232.074C624.243 223.146 624.211 210.266 624.174 194.36C624.169 190.379 624.163 186.208 624.157 181.863C624.15 180.782 624.169 179.67 624.139 178.582C624.103 177.512 623.835 176.444 623.349 175.471C622.393 173.508 620.493 171.994 618.293 171.491C617.205 171.212 616.033 171.312 614.833 171.295C613.642 171.295 612.442 171.296 611.234 171.298C608.814 171.299 606.358 171.3 603.863 171.302C598.877 171.304 593.746 171.306 588.482 171.308C567.427 171.306 544.285 171.303 519.993 171.299C517.066 171.264 514.267 173.111 513.133 175.762C512.522 177.092 512.442 178.496 512.486 180.011C512.486 181.5 512.485 182.986 512.483 184.464C512.478 190.382 512.474 196.211 512.47 201.94C512.463 207.668 512.458 213.295 512.453 218.807C512.449 221.562 512.446 224.288 512.442 226.984C512.441 228.331 512.438 229.672 512.437 231.004C512.465 232.331 512.353 233.684 512.563 234.91C513.002 237.41 514.79 239.554 517.073 240.491C518.226 240.971 519.423 241.1 520.694 241.068C521.961 241.07 523.215 241.072 524.463 241.074C529.45 241.083 534.291 241.091 538.971 241.099C548.333 241.12 557.053 241.139 565.017 241.155C580.922 241.211 593.802 241.255 602.727 241.286C607.163 241.316 610.613 241.34 612.981 241.356C614.137 241.372 615.023 241.384 615.646 241.392C616.249 241.404 616.555 241.428 616.555 241.428C616.555 241.428 616.249 241.452 615.646 241.463C615.023 241.471 614.137 241.483 612.981 241.496C610.613 241.511 607.163 241.531 602.727 241.556C593.802 241.578 580.922 241.608 565.017 241.647C557.053 241.655 548.333 241.664 538.971 241.675C534.291 241.678 529.449 241.682 524.462 241.684C523.215 241.686 521.959 241.686 520.694 241.687C519.442 241.726 518.057 241.588 516.833 241.068C514.358 240.059 512.417 237.74 511.934 235.026C511.701 233.65 511.823 232.334 511.791 231.003C511.791 229.671 511.79 228.331 511.79 226.984C511.79 224.288 511.79 221.562 511.789 218.806V201.939C511.79 196.211 511.793 190.38 511.794 184.464C511.794 182.984 511.794 181.5 511.795 180.011C511.798 179.274 511.771 178.518 511.87 177.731C511.953 176.954 512.197 176.2 512.498 175.48C513.738 172.586 516.798 170.567 519.993 170.606C544.286 170.627 567.429 170.65 588.482 170.668C593.746 170.676 598.878 170.684 603.865 170.691C606.358 170.695 608.814 170.7 611.234 170.704C612.443 170.706 613.642 170.707 614.833 170.71C616.003 170.732 617.223 170.627 618.421 170.93C620.791 171.478 622.826 173.112 623.846 175.222C624.366 176.268 624.65 177.418 624.687 178.563C624.711 179.69 624.69 180.774 624.694 181.864C624.683 186.208 624.674 190.379 624.665 194.36C624.61 210.266 624.565 223.146 624.534 232.074C624.519 233.179 624.574 234.252 624.345 235.238C624.138 236.22 623.743 237.087 623.275 237.816C622.333 239.283 621.101 240.186 620.037 240.684C618.966 241.192 618.063 241.344 617.466 241.407C616.863 241.447 616.555 241.428 616.555 241.428Z" fill="#1A2E35"/>
<path d="M636.013 174.71C636.013 183.086 629.222 189.877 620.846 189.877C612.47 189.877 605.679 183.086 605.679 174.71C605.679 166.334 612.47 159.543 620.846 159.543C629.222 159.543 636.013 166.334 636.013 174.71Z" fill="#FFBF23"/>
<path d="M577.023 208.881C577.023 209.073 564.64 209.228 549.37 209.228C534.094 209.228 521.715 209.073 521.715 208.881C521.715 208.689 534.094 208.534 549.37 208.534C564.64 208.534 577.023 208.689 577.023 208.881Z" fill="#1A2E35"/>
<path d="M599.389 208.637C599.389 208.829 595.767 208.984 591.302 208.984C586.834 208.984 583.214 208.829 583.214 208.637C583.214 208.445 586.834 208.291 591.302 208.291C595.767 208.291 599.389 208.445 599.389 208.637Z" fill="#1A2E35"/>
<path d="M616.177 208.023C616.177 208.215 613.839 208.371 610.955 208.371C608.073 208.371 605.735 208.215 605.735 208.023C605.735 207.831 608.073 207.676 610.955 207.676C613.839 207.676 616.177 207.831 616.177 208.023Z" fill="#1A2E35"/>
<path d="M577.023 217.219C577.023 217.411 564.64 217.567 549.37 217.567C534.094 217.567 521.715 217.411 521.715 217.219C521.715 217.027 534.094 216.872 549.37 216.872C564.64 216.872 577.023 217.027 577.023 217.219Z" fill="#1A2E35"/>
<path d="M616.177 216.975C616.177 217.167 608.797 217.323 599.697 217.323C590.593 217.323 583.214 217.167 583.214 216.975C583.214 216.783 590.593 216.629 599.697 216.629C608.797 216.629 616.177 216.783 616.177 216.975Z" fill="#1A2E35"/>
<path d="M560.868 224.662C560.868 224.47 573.251 224.315 588.52 224.315C603.796 224.315 616.176 224.47 616.176 224.662C616.176 224.854 603.796 225.01 588.52 225.01C573.251 225.01 560.868 224.854 560.868 224.662Z" fill="#1A2E35"/>
<path d="M521.714 224.905C521.714 224.713 529.093 224.559 538.194 224.559C547.298 224.559 554.677 224.713 554.677 224.905C554.677 225.097 547.298 225.253 538.194 225.253C529.093 225.253 521.714 225.097 521.714 224.905Z" fill="#1A2E35"/>
<path d="M617.477 180.111L615.328 177.963L624.957 168.333L627.107 170.482L617.477 180.111Z" fill="white"/>
<path d="M627.106 177.963L624.958 180.111L615.328 170.482L617.476 168.332L627.106 177.963Z" fill="white"/>
<path d="M526.457 191.096L525.577 188.97L524.695 191.096H526.457ZM526.862 192.072H524.283L523.791 193.263H522.474L524.949 187.708H526.218L528.703 193.263H527.354L526.862 192.072Z" fill="#1A2E35"/>
<path d="M533.563 190.818V193.262H532.326V191.009C532.326 190.318 532.009 190.001 531.461 190.001C530.866 190.001 530.437 190.366 530.437 191.152V193.262H529.201V188.993H530.382V189.493C530.715 189.128 531.215 188.93 531.794 188.93C532.802 188.93 533.563 189.517 533.563 190.818Z" fill="#1A2E35"/>
<path d="M539.05 190.818V193.262H537.813V191.009C537.813 190.318 537.496 190.001 536.948 190.001C536.353 190.001 535.924 190.366 535.924 191.152V193.262H534.688V188.993H535.869V189.493C536.202 189.128 536.702 188.93 537.281 188.93C538.289 188.93 539.05 189.517 539.05 190.818Z" fill="#1A2E35"/>
<path d="M543.339 191.128C543.339 190.389 542.87 189.945 542.253 189.945C541.633 189.945 541.157 190.389 541.157 191.128C541.157 191.865 541.633 192.311 542.253 192.311C542.87 192.311 543.339 191.865 543.339 191.128ZM539.903 191.128C539.903 189.843 540.895 188.931 542.253 188.931C543.609 188.931 544.591 189.843 544.591 191.128C544.591 192.413 543.609 193.325 542.253 193.325C540.895 193.325 539.903 192.413 539.903 191.128Z" fill="#1A2E35"/>
<path d="M548.175 193.056C547.922 193.239 547.549 193.327 547.167 193.327C546.159 193.327 545.574 192.809 545.574 191.795V190.041H544.915V189.088H545.574V188.049H546.811V189.088H547.874V190.041H546.811V191.779C546.811 192.144 547.009 192.341 547.342 192.341C547.526 192.341 547.707 192.287 547.842 192.183L548.175 193.056Z" fill="#1A2E35"/>
<path d="M551.416 191.913V191.477H550.567C549.988 191.477 549.805 191.691 549.805 191.977C549.805 192.287 550.067 192.493 550.503 192.493C550.916 192.493 551.273 192.303 551.416 191.913ZM552.653 190.827V193.263H551.496V192.731C551.265 193.12 550.821 193.327 550.193 193.327C549.193 193.327 548.599 192.771 548.599 192.032C548.599 191.279 549.131 190.755 550.432 190.755H551.416C551.416 190.223 551.099 189.913 550.432 189.913C549.98 189.913 549.511 190.064 549.203 190.311L548.757 189.445C549.225 189.112 549.916 188.931 550.599 188.931C551.899 188.931 552.653 189.533 552.653 190.827Z" fill="#1A2E35"/>
<path d="M556.529 193.056C556.276 193.239 555.903 193.327 555.521 193.327C554.513 193.327 553.928 192.809 553.928 191.795V190.041H553.269V189.088H553.928V188.049H555.165V189.088H556.228V190.041H555.165V191.779C555.165 192.144 555.363 192.341 555.696 192.341C555.88 192.341 556.061 192.287 556.196 192.183L556.529 193.056Z" fill="#1A2E35"/>
<path d="M557.231 188.993H558.468V193.263H557.231V188.993ZM557.08 187.708C557.08 187.32 557.391 187.017 557.849 187.017C558.311 187.017 558.619 187.303 558.619 187.684C558.619 188.097 558.311 188.399 557.849 188.399C557.391 188.399 557.08 188.097 557.08 187.708Z" fill="#1A2E35"/>
<path d="M562.739 191.128C562.739 190.389 562.27 189.945 561.652 189.945C561.032 189.945 560.556 190.389 560.556 191.128C560.556 191.865 561.032 192.311 561.652 192.311C562.27 192.311 562.739 191.865 562.739 191.128ZM559.303 191.128C559.303 189.843 560.295 188.931 561.652 188.931C563.008 188.931 563.991 189.843 563.991 191.128C563.991 192.413 563.008 193.325 561.652 193.325C560.295 193.325 559.303 192.413 559.303 191.128Z" fill="#1A2E35"/>
<path d="M569.186 190.818V193.262H567.948V191.009C567.948 190.318 567.631 190.001 567.083 190.001C566.488 190.001 566.059 190.366 566.059 191.152V193.262H564.823V188.993H566.004V189.493C566.338 189.128 566.838 188.93 567.416 188.93C568.424 188.93 569.186 189.517 569.186 190.818Z" fill="#1A2E35"/>
<path d="M494.695 508.524H455.564V507.191H494.695C499.135 507.191 502.748 503.579 502.748 499.139V498.777C502.748 493.603 506.957 489.391 512.133 489.391V490.724C507.693 490.724 504.081 494.337 504.081 498.777V499.139C504.081 504.315 499.871 508.524 494.695 508.524Z" fill="#FFBF23"/>
<path d="M512.113 358.885H486.659C480.519 358.885 475.523 353.89 475.523 347.749V319.547C475.523 314.142 471.126 309.745 465.719 309.745H441.834V308.411H465.719C471.861 308.411 476.857 313.407 476.857 319.547V347.749C476.857 353.154 481.253 357.551 486.659 357.551H512.113V358.885Z" fill="#FFBF23"/>
<path d="M461.676 290.55H460.343V249.957C460.343 244.491 464.79 240.045 470.256 240.045H493.636C498.367 240.045 502.214 236.197 502.214 231.466V217.882C502.214 212.417 506.66 207.97 512.126 207.97V209.303C507.395 209.303 503.547 213.153 503.547 217.882V231.466C503.547 236.931 499.1 241.378 493.636 241.378H470.256C465.526 241.378 461.676 245.226 461.676 249.957V290.55Z" fill="#FFBF23"/>
</g>
<mask id="mask5_321_6033" style="mask-type:luminance" maskUnits="userSpaceOnUse" x="0" y="0" width="667" height="667">
<path d="M0 0.000121117H666.667V666.667H0V0.000121117Z" fill="white"/>
</mask>
<g mask="url(#mask5_321_6033)">
<path d="M129.437 232.362C130.534 232.557 141.112 237.001 145.918 239.034C147.44 239.678 148.676 240.844 149.409 242.324L173.006 289.936L154.756 302.57C154.756 302.57 149.628 340.352 144.928 342.232C143.173 342.934 86.6637 342.232 86.6637 342.232C86.6637 342.232 79.7731 344.674 77.3011 342.232C75.3931 340.345 76.1344 336.673 76.1344 336.673L76.1171 259.049L72.6717 237.672C72.6717 237.672 105.57 228.15 129.437 232.362Z" fill="#FFBF23"/>
<path d="M153.388 295.957C153.2 294.707 152.982 293.249 152.629 290.9C152.129 287.409 151.481 282.896 150.765 277.904C150.061 272.909 149.424 268.395 148.93 264.901C148.721 263.355 148.541 262.04 148.394 260.959C148.277 260.027 148.226 259.508 148.276 259.499C148.321 259.491 148.46 259.993 148.66 260.913C148.86 261.833 149.12 263.171 149.414 264.825C150.002 268.137 150.729 272.727 151.449 277.807C152.17 282.885 152.752 287.495 153.114 290.839C153.296 292.511 153.422 293.865 153.481 294.807C153.512 295.277 153.525 295.643 153.517 295.895L153.504 296.064C153.473 296.068 153.554 296.179 153.392 296.121L153.378 296.06C153.373 295.995 153.377 295.96 153.388 295.957Z" fill="#1A2E35"/>
<path d="M102.244 158.802C99.1096 156.811 98.3522 152.195 100.051 148.894C101.75 145.594 105.355 143.589 109.02 142.997C114.326 142.141 119.998 144.021 123.743 147.875C125.766 149.959 127.404 152.677 130.147 153.631C132.558 154.47 135.226 153.713 137.758 154.041C141.151 154.481 144.059 156.893 145.8 159.839C147.54 162.786 148.258 166.222 148.66 169.621C149.028 172.739 149.272 176.163 151.436 178.439C153.547 180.659 156.88 181.129 159.504 182.709C164.442 185.679 166.042 193.038 162.784 197.791C161.744 199.306 160.254 200.695 160.134 202.53C160.023 204.203 161.106 205.694 161.612 207.293C162.916 211.41 159.546 216.301 155.235 216.549C153.058 216.674 150.726 215.825 148.775 216.798C146.836 217.765 146.115 220.102 144.876 221.878C142.438 225.371 137.336 226.689 133.512 224.813C131.911 224.027 130.399 222.731 128.619 222.851C126.844 222.971 125.446 224.487 123.699 224.825C121.412 225.267 119.24 223.582 117.88 221.691C116.522 219.801 115.574 217.573 113.832 216.025C111.554 213.997 108.351 213.497 105.467 212.502C99.1016 210.31 93.7829 205.259 91.2656 199.015C88.7482 192.771 89.0776 185.442 92.1429 179.449" fill="#1A2E35"/>
<path d="M135.41 199.79C136.06 199.088 136.996 198.432 137.954 198.116L137.76 198.104C137.939 198.055 138.122 198.034 138.304 198.012C139.006 197.846 139.703 197.882 140.292 198.258L140.274 198.256C141.363 198.656 142.323 199.455 142.847 200.496C143.762 202.308 143.422 204.622 142.191 206.235C141.122 207.638 139.283 208.558 137.568 208.142C135.994 207.759 134.827 206.331 134.38 204.774C133.892 203.068 134.204 201.09 135.41 199.79Z" fill="#375A64"/>
<path d="M94.0477 233.127L90.7157 171.981C90.5864 169.289 92.5384 166.945 95.2091 166.586L122.546 158.845C131.338 157.661 137.51 168.351 138.32 177.186C139.217 187.001 139.929 199.018 138.972 206.389C137.048 221.206 125.796 223.405 125.796 223.405C125.79 223.355 126.073 236.699 126.162 242.061L125.178 260.523L94.0477 233.127Z" fill="#B8725D"/>
<path d="M135.296 190.006C135.359 191.005 134.567 191.881 133.526 191.966C132.487 192.052 131.591 191.314 131.527 190.316C131.463 189.318 132.256 188.44 133.295 188.354C134.336 188.269 135.232 189.008 135.296 190.006Z" fill="#1A2E35"/>
<path d="M135.888 183.517C135.661 183.771 134.197 182.751 132.161 182.815C130.126 182.848 128.662 183.937 128.434 183.695C128.322 183.588 128.549 183.136 129.186 182.644C129.813 182.155 130.892 181.664 132.161 181.633C133.429 181.604 134.509 182.041 135.136 182.501C135.776 182.964 136 183.404 135.888 183.517Z" fill="#1A2E35"/>
<path d="M115.933 190.006C115.997 191.005 115.203 191.881 114.162 191.966C113.125 192.052 112.229 191.314 112.165 190.316C112.101 189.318 112.893 188.441 113.933 188.354C114.973 188.269 115.869 189.008 115.933 190.006Z" fill="#1A2E35"/>
<path d="M115.888 184.466C115.66 184.719 114.194 183.699 112.16 183.763C110.126 183.797 108.662 184.886 108.434 184.643C108.322 184.537 108.546 184.085 109.186 183.593C109.813 183.102 110.892 182.613 112.16 182.582C113.428 182.553 114.508 182.99 115.136 183.45C115.773 183.913 115.998 184.353 115.888 184.466Z" fill="#1A2E35"/>
<path d="M123.704 199.354C123.692 199.239 124.951 198.985 126.993 198.663C127.512 198.595 128.001 198.478 128.079 198.121C128.191 197.742 127.957 197.187 127.688 196.59C127.164 195.346 126.615 194.042 126.039 192.675C123.744 187.099 122.065 182.509 122.291 182.419C122.517 182.329 124.56 186.774 126.855 192.35C127.408 193.725 127.937 195.035 128.441 196.29C128.655 196.874 129.012 197.535 128.768 198.322C128.64 198.715 128.265 199.007 127.935 199.106C127.604 199.218 127.313 199.231 127.056 199.254C124.996 199.423 123.715 199.469 123.704 199.354Z" fill="#1A2E35"/>
<path d="M125.795 223.405C125.795 223.405 115.89 224.326 105.89 218.695C105.89 218.695 110.97 228.694 125.695 226.894L125.795 223.405Z" fill="#764335"/>
<path d="M123.541 204.203C122.515 202.839 120.883 202.031 119.354 202.132C118.294 202.203 117.269 202.724 116.717 203.667C116.165 204.608 116.171 205.99 116.859 206.955C117.634 208.042 119.054 208.36 120.197 208.05C121.339 207.738 122.265 206.924 123.142 206.111C123.385 205.886 123.631 205.65 123.763 205.331C123.898 205.011 123.889 204.583 123.654 204.3" fill="#764335"/>
<path d="M117.753 200.932C118.084 200.904 118.151 203.113 120.087 204.628C122.019 206.148 124.368 205.833 124.393 206.141C124.428 206.279 123.881 206.585 122.888 206.64C121.915 206.703 120.481 206.429 119.296 205.503C118.115 204.573 117.583 203.304 117.481 202.4C117.371 201.479 117.601 200.924 117.753 200.932Z" fill="#1A2E35"/>
<path d="M116.548 176.06C116.363 176.618 114.324 176.414 111.943 176.77C109.555 177.078 107.65 177.832 107.319 177.344C107.171 177.11 107.492 176.581 108.255 176.022C109.012 175.465 110.228 174.921 111.659 174.722C113.087 174.524 114.407 174.714 115.287 175.044C116.174 175.372 116.627 175.794 116.548 176.06Z" fill="#1A2E35"/>
<path d="M134.972 176.532C134.626 177.004 133.21 176.564 131.524 176.59C129.836 176.556 128.418 176.988 128.076 176.515C127.925 176.284 128.137 175.814 128.749 175.359C129.35 174.906 130.369 174.519 131.529 174.522C132.689 174.526 133.705 174.916 134.305 175.372C134.914 175.831 135.124 176.302 134.972 176.532Z" fill="#1A2E35"/>
<path d="M148.264 174.087C147.577 171.878 146.313 169.768 144.373 168.504C143.311 167.812 142.076 167.391 141.089 166.594C138.957 164.872 138.463 161.878 137.148 159.475C135.451 156.378 132.173 154.203 128.659 153.844C125.736 153.546 122.724 154.422 119.875 153.703C117.768 153.172 115.929 151.806 113.795 151.4C109.64 150.611 105.776 153.592 102.764 156.562C102.752 159.536 105.123 161.526 107.403 163.435C109.684 165.343 112.831 166.174 115.757 165.639C118.027 165.224 120.515 164.076 122.48 165.286C124.547 166.559 124.632 169.674 126.465 171.264C129.085 173.538 133.249 171.406 136.575 172.391C139.144 173.152 140.748 175.608 142.453 177.672C144.16 179.738 146.715 181.7 149.284 180.939C149.12 178.63 148.952 176.298 148.264 174.087Z" fill="#1A2E35"/>
<path d="M117.062 161.515C115.199 160.981 111.387 159.775 110.389 158.159C108.218 154.651 104.393 152.253 100.482 152.467C96.574 152.681 92.822 155.768 92.022 159.896C87.2913 159.932 82.6767 162.903 80.4073 167.373C80.1233 167.932 79.8767 168.512 79.67 169.107C78.1953 171.699 77.9126 174.949 78.9806 177.737C79.626 179.42 80.7247 181.292 79.858 182.872C78.978 184.48 76.7513 184.531 75.018 185.128C72.0007 186.168 70.046 189.635 70.718 192.753C70.958 193.873 71.4927 194.991 71.2593 196.111C71.018 197.277 70.018 198.101 69.2513 199.015C67.346 201.279 66.7567 204.579 67.7593 207.363C68.7633 210.148 71.3207 212.313 74.234 212.843C75.5593 213.084 76.9953 213.028 78.1433 213.735C79.458 214.543 80.034 216.125 80.962 217.36C82.742 219.728 86.0913 220.776 88.9033 219.848C89.474 219.659 90.002 219.375 90.4993 219.044C91.3873 220.276 92.7793 221.109 95.162 221.109L94.6153 190.004C94.9113 190.66 95.4793 191.251 96.5007 191.481C101.493 192.611 102.222 182.323 101.109 179.535C102.914 177.931 104.739 176.304 106.118 174.267C107.495 172.231 108.709 166.675 108.415 164.175C110.215 164.28 117.881 161.748 117.062 161.515Z" fill="#1A2E35"/>
<path d="M95.9897 192.534C95.8311 189.373 91.9631 188.697 89.2231 190.281C87.7177 191.15 86.5671 192.898 86.7057 196.256C87.0737 205.206 95.9844 202.989 95.9897 202.732C95.9924 202.573 96.1751 196.236 95.9897 192.534Z" fill="#B8725D"/>
<path d="M93.1155 199.453C93.0755 199.427 92.9635 199.569 92.7061 199.701C92.4528 199.829 92.0155 199.928 91.5408 199.773C90.5808 199.464 89.7235 197.996 89.6141 196.385C89.5568 195.571 89.6955 194.788 89.9581 194.135C90.2035 193.468 90.6088 192.993 91.0808 192.889C91.5501 192.76 91.8995 193.031 92.0195 193.279C92.1488 193.524 92.0995 193.704 92.1475 193.719C92.1741 193.74 92.3341 193.561 92.2461 193.193C92.2021 193.017 92.0888 192.811 91.8715 192.648C91.6488 192.481 91.3301 192.405 91.0008 192.455C90.3115 192.532 89.7168 193.192 89.4275 193.909C89.1021 194.633 88.9261 195.513 88.9901 196.427C89.1221 198.228 90.1155 199.877 91.4235 200.199C92.0595 200.337 92.5781 200.125 92.8395 199.903C93.1088 199.671 93.1475 199.468 93.1155 199.453Z" fill="#764335"/>
<path d="M104.738 159.098C104.803 159.192 103.835 159.354 102.953 160.594C102.066 161.812 101.733 164.15 102.294 166.783L102.342 167.01L102.122 167.064C99.9072 167.615 97.4685 169.375 96.3538 172.144C96.0925 172.827 95.9138 173.584 95.8912 174.327C95.8872 175.086 96.0245 175.879 96.1712 176.692C96.3165 177.507 96.4818 178.348 96.5125 179.239C96.5725 180.115 96.3392 181.13 95.8032 181.88C94.6898 183.575 92.9005 184.408 91.3632 185.218C89.7818 186.003 88.3192 186.804 87.2072 187.939C84.9405 190.171 83.9285 193.056 83.8632 195.439C83.7765 197.855 84.4578 199.763 85.0432 200.971C85.6378 202.192 86.1365 202.776 86.0858 202.812C86.0698 202.827 85.9392 202.688 85.7045 202.41C85.4818 202.124 85.1565 201.694 84.8245 201.084C84.1592 199.886 83.3872 197.943 83.4178 195.428C83.4272 192.942 84.4352 189.898 86.7965 187.527C87.9538 186.319 89.5152 185.451 91.0805 184.667C92.6178 183.858 94.3045 183.032 95.2725 181.538C96.2645 180.179 95.8218 178.404 95.5605 176.8C95.4178 175.984 95.2752 175.16 95.2845 174.318C95.3178 173.462 95.5165 172.672 95.8085 171.928C97.0405 168.958 99.6485 167.15 102.011 166.61L101.838 166.89C101.309 164.13 101.729 161.71 102.741 160.44C103.231 159.808 103.769 159.467 104.142 159.299C104.529 159.144 104.73 159.076 104.738 159.098Z" fill="#375A64"/>
<path d="M89.7722 202.804C90.4229 202.103 91.3576 201.447 92.3162 201.131L92.1216 201.119C92.3002 201.07 92.4842 201.048 92.6669 201.027C93.3682 200.86 94.0642 200.896 94.6549 201.272L94.6349 201.271C95.7242 201.671 96.6856 202.47 97.2096 203.511C98.1229 205.323 97.7842 207.636 96.5536 209.25C95.4842 210.652 93.6456 211.572 91.9309 211.156C90.3562 210.774 89.1882 209.346 88.7429 207.788C88.2536 206.083 88.5656 204.104 89.7722 202.804Z" fill="#375A64"/>
<path d="M155.807 494.025C155.807 494.025 153.911 508.619 148.622 543.847C145.531 564.424 140.057 608.513 140.057 608.513L118.669 604.66V535.112V484.652C118.669 477.801 130.073 480.497 130.073 480.497L155.807 494.025Z" fill="#B8725D"/>
<path d="M111.953 486.424C111.991 493.173 93.7913 605.113 93.7913 605.113L74.1193 608.05C74.1193 608.05 73.8487 572.098 73.8487 556.104C73.8487 540.314 73.1407 481.393 73.1407 481.393L111.953 486.424Z" fill="#B8725D"/>
<path d="M161.554 369.649C173.609 396.31 187.84 451.038 188.193 490.323C182.989 491.27 179.676 497.894 173.525 498.367C167.373 498.841 165.789 494.109 160.904 493.162C156.017 492.215 156.964 499.381 150.812 498.399C144.661 497.421 144.188 491.27 138.509 492.215C132.832 493.162 135.67 497.198 126.206 498.493C116.742 499.787 113.496 492.215 108.258 493.635C103.021 495.055 104.913 500.81 96.8689 498.642C88.8249 496.474 89.2983 491.27 83.1463 492.215C76.9956 493.162 77.7276 503.669 70.0262 499.125C62.3262 494.581 62.6343 486.538 55.8556 488.903C49.0783 491.27 49.2036 498.693 43.9983 495.853C42.8196 495.21 41.7556 494.526 40.8156 493.853C37.6369 491.578 36.0689 487.677 36.6756 483.815C39.5903 465.253 49.8516 404.543 64.6369 368.059C68.0676 359.593 70.9169 348.765 77.3023 342.233H144.928C150.888 349.305 157.374 360.401 161.554 369.649Z" fill="#1A2E35"/>
<path d="M168.277 428.979C168.3 428.975 168.283 428.699 168.227 428.177C168.156 427.583 168.065 426.829 167.952 425.897C167.707 423.918 167.285 421.063 166.705 417.543C165.551 410.505 163.653 400.823 160.968 390.271C158.271 379.718 155.3 370.31 152.943 363.578C151.767 360.211 150.769 357.502 150.037 355.647C149.689 354.775 149.408 354.069 149.185 353.513C148.984 353.029 148.868 352.778 148.847 352.786C148.824 352.794 148.897 353.062 149.057 353.562C149.248 354.127 149.491 354.849 149.789 355.737C150.444 357.618 151.372 360.349 152.489 363.731C154.727 370.495 157.619 379.906 160.309 390.439C162.991 400.97 164.959 410.617 166.233 417.625C166.872 421.129 167.365 423.97 167.692 425.937C167.856 426.859 167.988 427.609 168.092 428.197C168.191 428.713 168.253 428.982 168.277 428.979Z" fill="#375A64"/>
<path d="M157.962 463.995C157.774 463.998 157.713 470.479 157.822 478.471C157.933 486.467 158.173 492.943 158.36 492.94C158.548 492.938 158.61 486.458 158.5 478.463C158.39 470.47 158.149 463.992 157.962 463.995Z" fill="#375A64"/>
<path d="M135.886 424.671C135.862 424.675 135.88 424.918 135.932 425.376C136.001 425.912 136.086 426.575 136.192 427.382C136.446 429.218 136.794 431.708 137.216 434.744C138.072 440.959 139.168 449.556 140.128 459.08C141.081 468.607 141.718 477.252 142.114 483.514C142.304 486.572 142.46 489.082 142.574 490.93C142.633 491.743 142.68 492.41 142.718 492.947C142.758 493.408 142.792 493.648 142.814 493.648C142.837 493.647 142.852 493.404 142.856 492.942C142.85 492.403 142.845 491.735 142.838 490.92C142.813 489.163 142.732 486.624 142.593 483.487C142.318 477.214 141.757 468.551 140.802 459.012C139.841 449.476 138.669 440.876 137.69 434.674C137.202 431.572 136.777 429.067 136.453 427.34C136.297 426.54 136.169 425.884 136.066 425.355C135.97 424.903 135.909 424.667 135.886 424.671Z" fill="#375A64"/>
<path d="M111.457 388.228C111.503 388.234 111.614 387.723 111.775 386.792C111.939 385.862 112.145 384.51 112.373 382.836C112.829 379.49 113.355 374.854 113.765 369.715C114.173 364.576 114.386 359.914 114.463 356.536C114.502 354.85 114.514 353.482 114.499 352.538C114.486 351.592 114.457 351.071 114.41 351.07C114.365 351.068 114.303 351.588 114.235 352.53C114.167 353.616 114.083 354.948 113.985 356.518C113.785 359.883 113.495 364.534 113.089 369.662C112.681 374.79 112.231 379.424 111.895 382.78C111.746 384.346 111.618 385.674 111.514 386.758C111.433 387.699 111.41 388.222 111.457 388.228Z" fill="#375A64"/>
<path d="M104.66 401.815C104.706 401.814 104.736 401.067 104.748 399.723C104.753 398.378 104.784 396.431 104.852 394.029C104.982 389.226 105.374 382.593 106.328 375.325C107.29 368.055 108.629 361.547 109.746 356.874C110.304 354.535 110.778 352.649 111.122 351.347C111.458 350.046 111.624 349.318 111.578 349.305C111.534 349.29 111.284 349.993 110.869 351.275C110.446 352.555 109.9 354.427 109.282 356.757C108.041 361.414 106.622 367.937 105.656 375.235C104.698 382.535 104.38 389.202 104.372 394.021C104.365 396.431 104.409 398.382 104.484 399.727C104.553 401.073 104.613 401.817 104.66 401.815Z" fill="#375A64"/>
<path d="M109.317 447.412C109.131 447.405 108.591 457.76 108.112 470.537C107.633 483.319 107.397 493.683 107.584 493.689C107.771 493.697 108.311 483.344 108.789 470.563C109.268 457.785 109.504 447.419 109.317 447.412Z" fill="#375A64"/>
<path d="M81.6577 494.007C81.6817 494.008 81.7244 493.745 81.7844 493.243C81.843 492.667 81.919 491.937 82.0124 491.043C82.2044 489.041 82.4684 486.3 82.791 482.951C83.455 476.119 84.4484 466.688 85.7684 456.3C87.095 445.909 88.5377 436.536 89.7444 429.783C90.335 426.403 90.8617 423.676 91.2324 421.794C91.4004 420.91 91.5364 420.191 91.6444 419.621C91.731 419.123 91.7657 418.859 91.743 418.853C91.7204 418.848 91.6404 419.102 91.511 419.591C91.371 420.154 91.1924 420.864 90.9737 421.738C90.5244 423.606 89.9244 426.321 89.2737 429.696C87.943 436.437 86.423 445.812 85.0964 456.214C83.7737 466.612 82.855 476.06 82.3137 482.908C82.0364 486.331 81.855 489.104 81.7484 491.023C81.707 491.923 81.6737 492.653 81.647 493.233C81.631 493.739 81.635 494.005 81.6577 494.007Z" fill="#375A64"/>
<path d="M63.1428 399.026C63.1881 399.041 63.4335 398.372 63.8401 397.152C64.2775 395.813 64.8468 394.072 65.5321 391.976C66.9521 387.605 68.9455 381.577 71.2695 374.964C73.5961 368.348 75.8135 362.398 77.4401 358.1C78.2175 356.037 78.8628 354.324 79.3588 353.005C79.8055 351.798 80.0321 351.124 79.9895 351.106C79.9455 351.088 79.6361 351.729 79.1148 352.905C78.5895 354.081 77.8655 355.794 76.9948 357.925C75.2521 362.182 72.9601 368.113 70.6295 374.738C68.3028 381.362 66.3788 387.422 65.0735 391.833C64.4201 394.04 63.9135 395.832 63.5868 397.076C63.2588 398.32 63.0975 399.013 63.1428 399.026Z" fill="#375A64"/>
<path d="M57.7639 487.013C57.7759 487.015 57.8092 486.897 57.8625 486.667C57.9199 486.399 57.9932 486.061 58.0825 485.643C58.2719 484.688 58.5345 483.367 58.8679 481.689C59.5545 478.204 60.5305 473.249 61.7319 467.149C64.1865 454.88 67.7665 437.968 72.1905 419.397C76.6252 400.823 81.0612 384.113 84.4065 372.057C86.0865 366.071 87.4519 361.209 88.4119 357.791C88.8719 356.144 89.2345 354.845 89.4959 353.909C89.6039 353.495 89.6905 353.16 89.7612 352.895C89.8172 352.664 89.8399 352.545 89.8292 352.541C89.8185 352.54 89.7719 352.652 89.6945 352.875C89.6079 353.136 89.4985 353.464 89.3639 353.871C89.0732 354.797 88.6705 356.084 88.1585 357.715C87.1199 361.057 85.6759 365.912 83.9452 371.928C80.4812 383.955 75.9679 400.655 71.5305 419.241C67.1052 437.821 63.5972 454.76 61.2612 467.057C60.0905 473.207 59.1879 478.191 58.6079 481.643C58.3279 483.328 58.1079 484.659 57.9492 485.619C57.8852 486.041 57.8345 486.383 57.7932 486.655C57.7639 486.889 57.7532 487.011 57.7639 487.013Z" fill="#375A64"/>
<path d="M153.537 440.774C153.561 440.773 153.565 440.461 153.55 439.866C153.526 439.203 153.495 438.342 153.455 437.27C153.362 435.017 153.185 431.755 152.931 427.73C152.426 419.679 151.565 408.565 150.318 396.317C149.067 384.067 147.667 373.007 146.537 365.019C145.973 361.025 145.489 357.797 145.125 355.571C144.947 354.513 144.803 353.662 144.694 353.009C144.587 352.423 144.521 352.119 144.497 352.122C144.474 352.126 144.495 352.438 144.558 353.027C144.637 353.686 144.737 354.542 144.863 355.607C145.157 357.923 145.563 361.141 146.062 365.082C147.07 373.082 148.394 384.143 149.645 396.386C150.89 408.626 151.826 419.725 152.454 427.763C152.761 431.726 153.011 434.959 153.193 437.286C153.283 438.355 153.357 439.214 153.414 439.874C153.471 440.466 153.514 440.775 153.537 440.774Z" fill="#375A64"/>
<path d="M142.078 599.862L142.101 601.313C142.101 601.313 166.822 610.897 167.14 615.562L118.286 615.9L118.838 599.64C126.125 602.952 133.729 603.28 142.078 599.862Z" fill="#FFBF23"/>
<mask id="mask6_321_6033" style="mask-type:luminance" maskUnits="userSpaceOnUse" x="122" y="604" width="5" height="5">
<path d="M122.412 604.717H126.219V608.513H122.412V604.717Z" fill="white"/>
</mask>
<g mask="url(#mask6_321_6033)">
<g opacity="0.600006">
<path d="M123.821 604.802C122.877 605.068 122.232 606.136 122.459 607.089C122.684 608.044 123.764 608.709 124.712 608.46C125.66 608.213 126.475 606.954 126.144 606.032C125.812 605.109 124.501 604.396 123.64 604.865" fill="white"/>
</g>
</g>
<mask id="mask7_321_6033" style="mask-type:luminance" maskUnits="userSpaceOnUse" x="118" y="611" width="50" height="5">
<path d="M118.287 611.989H167.157V615.9H118.287V611.989Z" fill="white"/>
</mask>
<g mask="url(#mask7_321_6033)">
<g opacity="0.600006">
<path d="M118.287 615.9L118.42 611.989L165.193 613.096C165.193 613.096 167.375 614.029 167.14 615.563L118.287 615.9Z" fill="white"/>
</g>
</g>
<path d="M142.273 601.448C142.268 601.688 141.076 601.804 139.906 602.579C138.717 603.323 138.12 604.362 137.9 604.268C137.68 604.223 138.025 602.795 139.457 601.882C140.88 600.955 142.324 601.23 142.273 601.448Z" fill="#1A2E35"/>
<path d="M147.412 603.533C147.468 603.764 146.438 604.176 145.635 605.19C144.802 606.181 144.604 607.274 144.367 607.266C144.143 607.305 143.968 605.908 144.991 604.666C146.002 603.414 147.406 603.305 147.412 603.533Z" fill="#1A2E35"/>
<path d="M150.365 609.645C150.147 609.697 149.809 608.508 150.411 607.197C151.006 605.882 152.127 605.358 152.229 605.558C152.365 605.752 151.646 606.458 151.167 607.542C150.662 608.614 150.602 609.62 150.365 609.645Z" fill="#1A2E35"/>
<path d="M94.5816 599.239C94.5816 599.239 79.1336 607.083 73.4443 597.703L71.1016 601.555L59.1083 629.639C58.3323 631.456 58.9589 633.66 60.7309 634.628C62.0949 635.373 63.7229 635.279 64.9443 634.421C71.4843 629.828 95.4563 612.817 95.6149 610.089L96.5069 602.915C96.6923 601.427 95.9296 599.972 94.5816 599.239Z" fill="#FFBF23"/>
<mask id="mask8_321_6033" style="mask-type:luminance" maskUnits="userSpaceOnUse" x="61" y="607" width="35" height="29">
<path d="M61.3971 607.598H95.9648V635.162H61.3971V607.598Z" fill="white"/>
</mask>
<g mask="url(#mask8_321_6033)">
<g opacity="0.600006">
<path d="M61.3973 634.92L95.9653 607.598L95.7453 609.162C95.6667 610.88 94.8147 611.446 93.8413 612.42C90.9533 615.306 83.1893 621.586 65.0587 634.44C64.004 635.186 62.6253 635.369 61.3973 634.92Z" fill="white"/>
</g>
</g>
<mask id="mask9_321_6033" style="mask-type:luminance" maskUnits="userSpaceOnUse" x="90" y="602" width="6" height="5">
<path d="M90.9138 602.111H95.3786V606.489H90.9138V602.111Z" fill="white"/>
</mask>
<g mask="url(#mask9_321_6033)">
<g opacity="0.600006">
<path d="M92.1597 602.335C91.121 602.842 90.6144 604.197 91.0984 605.234C91.5824 606.27 92.9957 606.794 94.0437 606.305C95.0917 605.815 95.7504 604.207 95.1517 603.23C94.5517 602.253 92.8584 601.725 91.9637 602.445" fill="white"/>
</g>
</g>
<path d="M72.3185 620.005C72.0905 620.077 71.5065 618.025 69.3985 616.669C67.3305 615.255 65.1639 615.48 65.1492 615.247C65.1279 615.151 65.6479 614.931 66.5519 614.933C67.4492 614.929 68.7132 615.231 69.8679 615.993C71.0172 616.76 71.7705 617.799 72.0972 618.615C72.4332 619.435 72.4172 619.988 72.3185 620.005Z" fill="#1A2E35"/>
<path d="M68.9267 624.569C68.724 624.705 67.676 623.335 65.792 622.513C63.9267 621.652 62.1853 621.769 62.156 621.532C62.0733 621.327 64.008 620.8 66.14 621.769C68.2813 622.717 69.1373 624.499 68.9267 624.569Z" fill="#1A2E35"/>
<path d="M78.2306 614.374C78.0293 614.523 76.4266 612.409 73.6106 610.883C70.8186 609.314 68.1413 609.067 68.1693 608.821C68.1346 608.615 71.0226 608.495 74.0213 610.171C77.036 611.815 78.428 614.295 78.2306 614.374Z" fill="#1A2E35"/>
<path d="M80.1102 605.584C79.9782 605.79 78.0036 604.646 75.2929 604.169C72.5876 603.657 70.3329 604.028 70.2836 603.788C70.2049 603.593 72.5342 602.82 75.4422 603.365C78.3542 603.885 80.2542 605.43 80.1102 605.584Z" fill="#1A2E35"/>
<path d="M73.7508 603.878C73.7041 603.863 73.7828 603.362 74.1521 602.525C74.5214 601.695 75.2014 600.518 76.4241 599.379C77.0388 598.85 77.7321 598.139 78.9028 598.006C79.4868 597.935 80.2081 598.271 80.4814 598.881C80.7548 599.475 80.6948 600.099 80.5188 600.663C79.7241 602.895 77.0121 604.419 74.3094 603.895C71.6094 603.323 69.7374 601.106 69.3588 598.831C69.3014 598.255 69.3521 597.59 69.8361 597.085C70.3161 596.573 71.1361 596.574 71.6268 596.831C72.6534 597.341 73.1308 598.167 73.6134 598.822C74.5361 600.211 74.9641 601.494 75.1681 602.378C75.3734 603.27 75.3628 603.777 75.3148 603.783C75.1574 603.834 74.9814 601.746 73.1241 599.147C72.6414 598.531 72.1028 597.775 71.3494 597.451C70.9828 597.293 70.6068 597.331 70.3721 597.583C70.1374 597.825 70.0628 598.294 70.1268 598.75C70.4654 600.622 72.1814 602.643 74.4708 603.093C76.7454 603.558 79.1268 602.214 79.7828 600.423C79.9348 599.991 79.9628 599.515 79.8108 599.179C79.6614 598.847 79.3268 598.661 78.9468 598.683C78.1468 598.73 77.4228 599.318 76.8268 599.809C74.4201 601.906 73.9001 603.966 73.7508 603.878Z" fill="#1A2E35"/>
<path d="M186.156 284.215L177.774 315.875C177.31 317.631 175.706 318.84 173.892 318.804L130.493 317.952C128.024 317.904 126.209 315.62 126.718 313.203L133.109 282.881C133.493 281.059 135.101 279.756 136.962 279.756H182.724C185.053 279.756 186.752 281.963 186.156 284.215Z" fill="#1A2E35"/>
<path d="M189.805 291.366C190.759 290.314 190.676 288.573 189.825 287.437C188.973 286.3 187.52 285.729 186.101 285.676C184.681 285.624 183.285 286.029 181.959 286.536C180.321 287.162 178.745 287.949 177.261 288.88C176.212 289.538 175.127 290.396 174.92 291.616C174.716 292.838 176.043 294.23 177.119 293.618C175.72 294.208 174.311 295.686 174.085 297.23C173.861 298.777 174.688 299.606 176.184 300.052C175.045 300.494 174.317 301.924 174.839 303.029C175.387 304.19 176.988 304.509 178.188 304.05C179.388 303.592 180.273 302.578 181.107 301.602C180.253 303.066 179.952 304.844 180.275 306.508C183.577 305.38 186.112 302.266 186.549 298.804C188.169 297.585 188.711 295.137 187.755 293.349C189.087 292.933 190.596 290.901 190.492 289.509" fill="#B8725D"/>
<path d="M176.213 300.067C176.25 300.108 176.772 299.653 177.642 298.975C178.514 298.312 179.781 297.397 181.408 297.047C182.213 296.876 183.014 296.877 183.7 297.049C184.386 297.221 184.957 297.544 185.372 297.885C186.21 298.583 186.398 299.291 186.461 299.259C186.478 299.253 186.458 299.076 186.333 298.783C186.209 298.489 185.961 298.087 185.541 297.692C185.12 297.303 184.522 296.929 183.784 296.727C183.046 296.521 182.186 296.512 181.333 296.693C179.608 297.067 178.32 298.057 177.481 298.776C176.64 299.516 176.184 300.035 176.213 300.067Z" fill="#764335"/>
<path d="M176.578 293.768C176.598 293.816 177.274 293.555 178.314 293.045C178.836 292.796 179.453 292.493 180.161 292.237C180.865 291.991 181.686 291.775 182.537 291.623C183.392 291.476 184.224 291.457 184.95 291.599C185.676 291.739 186.29 292.04 186.738 292.376C187.652 293.055 187.844 293.803 187.905 293.768C187.924 293.763 187.902 293.579 187.766 293.273C187.63 292.973 187.357 292.557 186.896 292.175C186.44 291.789 185.794 291.441 185.018 291.272C184.242 291.101 183.362 291.113 182.477 291.265C181.589 291.424 180.777 291.649 180.044 291.925C179.318 292.208 178.705 292.539 178.197 292.817C177.186 293.385 176.56 293.724 176.578 293.768Z" fill="#764335"/>
<path d="M85.2176 254.209L86.2309 292.819L53.3309 295.966C53.3309 295.75 49.7749 245.915 72.6709 237.673L85.2176 254.209Z" fill="#FFBF23"/>
<path d="M53.3309 295.967C53.3269 295.919 54.1629 295.793 55.6776 295.607C57.3056 295.423 59.4736 295.179 62.1002 294.883C67.5256 294.3 75.0269 293.544 83.3149 292.751C84.3029 292.657 85.2789 292.564 86.1976 292.477L85.8869 292.825C85.6949 285.167 85.5563 278.353 85.4896 273.455C85.4709 271.089 85.4549 269.144 85.4429 267.675C85.4469 266.316 85.4709 265.569 85.5163 265.568C85.5603 265.568 85.6229 266.312 85.6976 267.669C85.7629 269.139 85.8509 271.083 85.9549 273.445C86.1456 278.343 86.3656 285.155 86.5749 292.812L86.5829 293.131L86.2643 293.161C85.3443 293.249 84.3683 293.344 83.3816 293.439C75.0923 294.232 67.5842 294.911 62.1469 295.368C59.5109 295.576 57.3362 295.747 55.7029 295.875C54.1802 295.979 53.3349 296.015 53.3309 295.967Z" fill="#1A2E35"/>
<path d="M82.3544 293.55L83.4157 306.292L114.08 295.079L122.145 291.35C125.762 289.676 129.845 289.294 133.71 290.266C133.71 290.266 152.486 291.495 152.657 292.69C152.828 293.884 153.681 294.91 152.657 295.079C151.632 295.25 136.782 295.934 136.782 295.934C136.782 295.934 152.794 296.958 153.153 298.152C153.51 299.347 152.998 301.224 152.145 301.224H134.734C134.734 301.224 151.121 302.248 151.292 302.931C151.462 303.614 152.657 304.808 151.121 305.322C149.584 305.832 134.564 306.346 134.564 306.346L148.732 308.906C148.732 308.906 149.244 311.124 148.049 311.124C146.853 311.124 115.958 313.172 115.958 313.172C115.958 313.172 79.7731 336.251 72.9424 337.923C65.9917 339.626 60.1424 331.699 59.2997 326.115C58.0304 317.692 56.8531 295.662 56.8531 295.662L82.3544 293.55Z" fill="#B8725D"/>
<path d="M73.6825 320.78C73.6038 320.772 73.6012 319.738 73.9145 318.098C74.2345 316.469 74.9385 314.216 76.3638 312.064C77.7958 309.917 79.6132 308.4 81.0092 307.497C82.4145 306.594 83.3798 306.224 83.4158 306.293C83.5878 306.512 79.7185 308.302 76.9385 312.446C75.5758 314.505 74.8238 316.644 74.3905 318.212C73.9638 319.785 73.7932 320.794 73.6825 320.78Z" fill="#764335"/>
</g>
</svg>
