<svg width="196" height="173" viewBox="0 0 196 173" fill="none" xmlns="http://www.w3.org/2000/svg">
<path d="M123.265 43.9257L111.781 20.6113H46.3206V152.388H149.68V54.0624L123.265 43.9257Z" fill="#F3F5F9"/>
<path d="M149.68 54.0624L123.265 43.9257L111.781 20.6113H98V152.388H149.68V54.0624Z" fill="#E1E6F0"/>
<path d="M11.8672 -3.8147e-06V30.4101H23.3519V10.1367H46.3202V-3.8147e-06H11.8672Z" fill="#5A5A5A"/>
<path d="M11.8672 142.59V173H46.3202V162.863H23.3519V142.59H11.8672Z" fill="#5A5A5A"/>
<path d="M149.68 53.9608V54.0621H111.896L111.781 20.6114H111.896L149.68 53.9608Z" fill="#CFD7E6"/>
<path d="M149.68 -3.8147e-06V10.1367H172.648V30.4101H184.133V-3.8147e-06H149.68Z" fill="#5A5A5A"/>
<path d="M172.648 142.59V162.863H149.68V173H184.133V142.59H172.648Z" fill="#5A5A5A"/>
<path d="M92.2577 71.2952H69.2891V61.1585H92.2577V71.2952ZM126.711 91.5686H69.2891V81.4319H126.711V91.5686Z" fill="#E1E6F0"/>
<path d="M97.9998 91.5686H126.711V81.4319H97.9998V91.5686Z" fill="#CFD7E6"/>
<path d="M184.132 111.842H11.8672V101.705H184.132V111.842Z" fill="#FFBF23"/>
<path d="M97.9998 111.842H184.132V101.705H97.9998V111.842Z" fill="#FFBF23"/>
<path d="M126.711 132.115H69.2891V121.979H126.711V132.115Z" fill="#E1E6F0"/>
<path d="M97.9998 132.115H126.711V121.979H97.9998V132.115Z" fill="#CFD7E6"/>
</svg>
