<svg width="30" height="30" viewBox="0 0 30 30" fill="none" xmlns="http://www.w3.org/2000/svg">
<g clip-path="url(#clip0_38_3239)">
<path d="M27.2443 20.4094C27.0828 20.4073 26.9225 20.4377 26.7729 20.4987C26.6233 20.5597 26.4874 20.65 26.3733 20.7644C26.2592 20.8788 26.1692 21.0149 26.1086 21.1647C26.0479 21.3144 26.018 21.4748 26.0204 21.6363V24.7038C26.0204 25.7778 25.1024 26.5458 24.1829 26.5458H21.1229C20.9613 26.5435 20.8008 26.5738 20.651 26.6347C20.5012 26.6956 20.3652 26.7859 20.2509 26.9003C20.1367 27.0147 20.0465 27.1508 19.9858 27.3007C19.9251 27.4506 19.895 27.6111 19.8975 27.7727C19.8975 28.5392 20.3565 28.9997 21.1229 28.9997H24.1829C24.7467 29.0001 25.305 28.8892 25.8258 28.6733C26.3466 28.4574 26.8196 28.1409 27.2178 27.7417C27.6159 27.3426 27.9313 26.8688 28.1459 26.3475C28.3605 25.8261 28.4701 25.2676 28.4683 24.7038V21.6363C28.4683 21.0214 27.8563 20.4094 27.2443 20.4094ZM21.1229 4.45413H24.1829C25.2554 4.45413 26.0204 5.37512 26.0204 6.2961V9.36355C26.0204 9.97854 26.4794 10.5905 27.2443 10.5905C28.0093 10.5905 28.4698 10.1315 28.4698 9.36355V6.2961C28.4698 3.99514 26.6324 2.00018 24.1829 2.00018H21.1229C20.9613 1.99795 20.8008 2.02818 20.651 2.08907C20.5012 2.14996 20.3652 2.24028 20.2509 2.35469C20.1367 2.46909 20.0465 2.60525 19.9858 2.75511C19.9251 2.90497 19.895 3.06548 19.8975 3.22716C19.8975 3.99514 20.511 4.45413 21.1229 4.45413ZM8.87715 26.5458H5.8172C4.74472 26.5458 3.97973 25.6248 3.97973 24.7038V21.6363C3.97973 21.0214 3.52074 20.4094 2.75575 20.4094C1.99077 20.4094 1.53027 21.0229 1.53027 21.6363V24.7038C1.53027 27.0063 3.36774 28.9997 5.8172 28.9997H8.87715C9.03883 29.0019 9.1993 28.9717 9.34909 28.9108C9.49888 28.8499 9.63493 28.7596 9.74919 28.6452C9.86345 28.5308 9.9536 28.3947 10.0143 28.2448C10.075 28.0949 10.1051 27.9344 10.1026 27.7727C10.1051 27.6111 10.075 27.4506 10.0143 27.3007C9.9536 27.1508 9.86345 27.0147 9.74919 26.9003C9.63493 26.7859 9.49888 26.6956 9.34909 26.6347C9.1993 26.5738 9.03883 26.5435 8.87715 26.5458ZM2.75575 10.5905C2.9173 10.5926 3.07762 10.5622 3.22723 10.5012C3.37684 10.4402 3.51271 10.3499 3.62681 10.2355C3.74091 10.1211 3.83093 9.98501 3.89155 9.83525C3.95217 9.68549 3.98215 9.5251 3.97973 9.36355V6.2961C3.97973 5.22212 4.89772 4.45413 5.8172 4.45413H8.87715C9.03883 4.45636 9.1993 4.42613 9.34909 4.36524C9.49888 4.30435 9.63493 4.21403 9.74919 4.09962C9.86345 3.98522 9.9536 3.84906 10.0143 3.6992C10.075 3.54934 10.1051 3.38883 10.1026 3.22716C10.1051 3.06548 10.075 2.90497 10.0143 2.75511C9.9536 2.60525 9.86345 2.46909 9.74919 2.35469C9.63493 2.24028 9.49888 2.14996 9.34909 2.08907C9.1993 2.02818 9.03883 1.99795 8.87715 2.00018H5.8172C3.52074 2.00018 1.53027 3.99514 1.53027 6.2961V9.36355C1.53027 9.97854 2.14376 10.5905 2.75575 10.5905Z" fill="black"/>
<path d="M21.1228 24.7038C21.9344 24.6998 22.7116 24.3751 23.2848 23.8005C23.858 23.2259 24.1808 22.448 24.1827 21.6363V18.8764H5.81854V21.6363C5.82051 22.448 6.14329 23.2259 6.7165 23.8005C7.28971 24.3751 8.06686 24.6998 8.87849 24.7038H21.1228ZM28.7757 14.2729H24.1842V9.36353C24.1823 8.55164 23.8593 7.77347 23.2857 7.19881C22.7122 6.62415 21.9347 6.29964 21.1228 6.29608H8.87699C8.06536 6.30004 7.28821 6.62472 6.715 7.19934C6.14179 7.77396 5.81901 8.5519 5.81704 9.36353V14.5804H1.22412C1.06257 14.5784 0.90225 14.6088 0.752639 14.6698C0.603028 14.7308 0.467158 14.8211 0.353056 14.9355C0.238955 15.0499 0.148936 15.186 0.0883193 15.3357C0.0277025 15.4855 -0.00228263 15.6459 0.000135425 15.8074C0.000135425 16.5739 0.459128 17.0344 1.22412 17.0344H28.7757C28.9372 17.0364 29.0975 17.006 29.2471 16.9451C29.3967 16.8841 29.5326 16.7937 29.6467 16.6793C29.7608 16.565 29.8508 16.4289 29.9115 16.2791C29.9721 16.1294 30.0021 15.969 29.9996 15.8074C29.9996 15.0394 29.3876 14.2729 28.7757 14.2729Z" fill="black"/>
</g>
<defs>
<clipPath id="clip0_38_3239">
<rect width="30" height="30" fill="white"/>
</clipPath>
</defs>
</svg>
