<svg width="34" height="34" viewBox="0 0 34 34" fill="none" xmlns="http://www.w3.org/2000/svg">
<circle cx="17" cy="17" r="17" fill="#FFBF23"/>
<path d="M22.9059 22.7583C22.7374 22.7584 22.5727 22.7085 22.4326 22.6148C22.2926 22.5212 22.1836 22.388 22.1193 22.2323C22.0551 22.0765 22.0386 21.9052 22.072 21.74C22.1053 21.5749 22.187 21.4234 22.3066 21.3048C23.5918 20.0281 24.2999 18.323 24.2999 16.5023C24.2999 14.6816 23.5918 12.9765 22.3066 11.6998C22.1467 11.5408 22.0564 11.3249 22.0557 11.0994C22.055 10.8739 22.1438 10.6574 22.3028 10.4974C22.4617 10.3375 22.6777 10.2472 22.9032 10.2465C23.1286 10.2458 23.3452 10.3347 23.5051 10.4936C25.1142 12.0925 25.9999 14.226 25.9999 16.5023C25.9999 18.7786 25.1142 20.9121 23.5051 22.5109C23.346 22.6695 23.1305 22.7585 22.9059 22.7583Z" fill="black"/>
<path d="M20.5005 20.3528C20.3318 20.3531 20.1669 20.3033 20.0266 20.2095C19.8864 20.1158 19.7773 19.9824 19.7132 19.8263C19.6491 19.6703 19.6329 19.4987 19.6667 19.3334C19.7005 19.1682 19.7827 19.0167 19.903 18.8984C20.5362 18.272 20.9 17.3982 20.9 16.5023C20.9 15.6064 20.5362 14.7326 19.903 14.1061C19.8215 14.0281 19.7563 13.9347 19.7113 13.8313C19.6662 13.7279 19.6422 13.6165 19.6407 13.5037C19.6391 13.3909 19.66 13.279 19.7021 13.1743C19.7443 13.0697 19.8068 12.9745 19.8862 12.8943C19.9655 12.8141 20.0599 12.7505 20.1641 12.7071C20.2682 12.6638 20.38 12.6416 20.4928 12.6419C20.6056 12.6422 20.7172 12.665 20.8211 12.7088C20.925 12.7527 21.0192 12.8168 21.0981 12.8974C21.573 13.3701 21.95 13.9318 22.2078 14.5504C22.4655 15.1689 22.5988 15.8322 22.6 16.5023C22.5988 17.1723 22.4655 17.8356 22.2078 18.4541C21.95 19.0727 21.573 19.6344 21.0981 20.1071C20.9392 20.2648 20.7243 20.3531 20.5005 20.3528ZM17.5 25.0023C17.2746 25.0022 17.0584 24.9126 16.8991 24.7532L12.8981 20.7523H10.7C9.76245 20.7523 9 19.9898 9 19.0523V13.9523C9 13.0147 9.76245 12.2523 10.7 12.2523H12.8981L16.8991 8.2513C17.0176 8.13162 17.1691 8.04995 17.3343 8.0167C17.4994 7.98344 17.6707 8.0001 17.8263 8.06456C17.982 8.12902 18.1149 8.23836 18.2081 8.37864C18.3014 8.51892 18.3508 8.68379 18.35 8.85225V24.1523C18.35 24.3777 18.2605 24.5939 18.1011 24.7533C17.9416 24.9127 17.7254 25.0023 17.5 25.0023Z" fill="black"/>
</svg>
